%TF.GenerationSoftware,KiCad,Pcbnew,(5.1.6)-1*%
%TF.CreationDate,2020-10-31T14:57:59+02:00*%
%TF.ProjectId,zigbee-raspberry-module,7a696762-6565-42d7-9261-737062657272,rev?*%
%TF.SameCoordinates,Original*%
%TF.FileFunction,Copper,L2,Bot*%
%TF.FilePolarity,Positive*%
%FSLAX46Y46*%
G04 Gerber Fmt 4.6, Leading zero omitted, Abs format (unit mm)*
G04 Created by KiCad (PCBNEW (5.1.6)-1) date 2020-10-31 14:57:59*
%MOMM*%
%LPD*%
G01*
G04 APERTURE LIST*
%TA.AperFunction,ComponentPad*%
%ADD10O,1.700000X1.700000*%
%TD*%
%TA.AperFunction,ComponentPad*%
%ADD11R,1.700000X1.700000*%
%TD*%
%TA.AperFunction,SMDPad,CuDef*%
%ADD12R,3.960000X3.960000*%
%TD*%
%TA.AperFunction,SMDPad,CuDef*%
%ADD13R,5.080000X1.780000*%
%TD*%
%TA.AperFunction,SMDPad,CuDef*%
%ADD14R,1.000000X2.500000*%
%TD*%
%TA.AperFunction,ViaPad*%
%ADD15C,0.800000*%
%TD*%
%TA.AperFunction,Conductor*%
%ADD16C,0.250000*%
%TD*%
%TA.AperFunction,NonConductor*%
%ADD17C,0.254000*%
%TD*%
G04 APERTURE END LIST*
D10*
%TO.P,J1,10*%
%TO.N,GND*%
X147574000Y-110490000D03*
%TO.P,J1,9*%
%TO.N,TXD*%
X147574000Y-107950000D03*
%TO.P,J1,8*%
%TO.N,Net-(J1-Pad8)*%
X150114000Y-110490000D03*
%TO.P,J1,7*%
%TO.N,RXD*%
X150114000Y-107950000D03*
%TO.P,J1,6*%
%TO.N,SCL*%
X152654000Y-110490000D03*
%TO.P,J1,5*%
%TO.N,GND*%
X152654000Y-107950000D03*
%TO.P,J1,4*%
%TO.N,SDA*%
X155194000Y-110490000D03*
%TO.P,J1,3*%
%TO.N,Net-(J1-Pad3)*%
X155194000Y-107950000D03*
%TO.P,J1,2*%
%TO.N,VCC*%
X157734000Y-110490000D03*
D11*
%TO.P,J1,1*%
%TO.N,Net-(J1-Pad1)*%
X157734000Y-107950000D03*
%TD*%
D12*
%TO.P,BT1,2*%
%TO.N,GND*%
X141478000Y-99440000D03*
D13*
%TO.P,BT1,1*%
%TO.N,N/C*%
X141478000Y-104140000D03*
%TO.N,Net-(BT1-Pad1)*%
X141478000Y-94740000D03*
%TD*%
%TO.P,U2,16*%
%TO.N,SCL*%
%TA.AperFunction,SMDPad,CuDef*%
G36*
G01*
X149107000Y-93322000D02*
X149107000Y-93622000D01*
G75*
G02*
X148957000Y-93772000I-150000J0D01*
G01*
X147207000Y-93772000D01*
G75*
G02*
X147057000Y-93622000I0J150000D01*
G01*
X147057000Y-93322000D01*
G75*
G02*
X147207000Y-93172000I150000J0D01*
G01*
X148957000Y-93172000D01*
G75*
G02*
X149107000Y-93322000I0J-150000D01*
G01*
G37*
%TD.AperFunction*%
%TO.P,U2,15*%
%TO.N,SDA*%
%TA.AperFunction,SMDPad,CuDef*%
G36*
G01*
X149107000Y-94592000D02*
X149107000Y-94892000D01*
G75*
G02*
X148957000Y-95042000I-150000J0D01*
G01*
X147207000Y-95042000D01*
G75*
G02*
X147057000Y-94892000I0J150000D01*
G01*
X147057000Y-94592000D01*
G75*
G02*
X147207000Y-94442000I150000J0D01*
G01*
X148957000Y-94442000D01*
G75*
G02*
X149107000Y-94592000I0J-150000D01*
G01*
G37*
%TD.AperFunction*%
%TO.P,U2,14*%
%TO.N,Net-(BT1-Pad1)*%
%TA.AperFunction,SMDPad,CuDef*%
G36*
G01*
X149107000Y-95862000D02*
X149107000Y-96162000D01*
G75*
G02*
X148957000Y-96312000I-150000J0D01*
G01*
X147207000Y-96312000D01*
G75*
G02*
X147057000Y-96162000I0J150000D01*
G01*
X147057000Y-95862000D01*
G75*
G02*
X147207000Y-95712000I150000J0D01*
G01*
X148957000Y-95712000D01*
G75*
G02*
X149107000Y-95862000I0J-150000D01*
G01*
G37*
%TD.AperFunction*%
%TO.P,U2,13*%
%TO.N,GND*%
%TA.AperFunction,SMDPad,CuDef*%
G36*
G01*
X149107000Y-97132000D02*
X149107000Y-97432000D01*
G75*
G02*
X148957000Y-97582000I-150000J0D01*
G01*
X147207000Y-97582000D01*
G75*
G02*
X147057000Y-97432000I0J150000D01*
G01*
X147057000Y-97132000D01*
G75*
G02*
X147207000Y-96982000I150000J0D01*
G01*
X148957000Y-96982000D01*
G75*
G02*
X149107000Y-97132000I0J-150000D01*
G01*
G37*
%TD.AperFunction*%
%TO.P,U2,12*%
%TA.AperFunction,SMDPad,CuDef*%
G36*
G01*
X149107000Y-98402000D02*
X149107000Y-98702000D01*
G75*
G02*
X148957000Y-98852000I-150000J0D01*
G01*
X147207000Y-98852000D01*
G75*
G02*
X147057000Y-98702000I0J150000D01*
G01*
X147057000Y-98402000D01*
G75*
G02*
X147207000Y-98252000I150000J0D01*
G01*
X148957000Y-98252000D01*
G75*
G02*
X149107000Y-98402000I0J-150000D01*
G01*
G37*
%TD.AperFunction*%
%TO.P,U2,11*%
%TA.AperFunction,SMDPad,CuDef*%
G36*
G01*
X149107000Y-99672000D02*
X149107000Y-99972000D01*
G75*
G02*
X148957000Y-100122000I-150000J0D01*
G01*
X147207000Y-100122000D01*
G75*
G02*
X147057000Y-99972000I0J150000D01*
G01*
X147057000Y-99672000D01*
G75*
G02*
X147207000Y-99522000I150000J0D01*
G01*
X148957000Y-99522000D01*
G75*
G02*
X149107000Y-99672000I0J-150000D01*
G01*
G37*
%TD.AperFunction*%
%TO.P,U2,10*%
%TA.AperFunction,SMDPad,CuDef*%
G36*
G01*
X149107000Y-100942000D02*
X149107000Y-101242000D01*
G75*
G02*
X148957000Y-101392000I-150000J0D01*
G01*
X147207000Y-101392000D01*
G75*
G02*
X147057000Y-101242000I0J150000D01*
G01*
X147057000Y-100942000D01*
G75*
G02*
X147207000Y-100792000I150000J0D01*
G01*
X148957000Y-100792000D01*
G75*
G02*
X149107000Y-100942000I0J-150000D01*
G01*
G37*
%TD.AperFunction*%
%TO.P,U2,9*%
%TA.AperFunction,SMDPad,CuDef*%
G36*
G01*
X149107000Y-102212000D02*
X149107000Y-102512000D01*
G75*
G02*
X148957000Y-102662000I-150000J0D01*
G01*
X147207000Y-102662000D01*
G75*
G02*
X147057000Y-102512000I0J150000D01*
G01*
X147057000Y-102212000D01*
G75*
G02*
X147207000Y-102062000I150000J0D01*
G01*
X148957000Y-102062000D01*
G75*
G02*
X149107000Y-102212000I0J-150000D01*
G01*
G37*
%TD.AperFunction*%
%TO.P,U2,8*%
%TA.AperFunction,SMDPad,CuDef*%
G36*
G01*
X158407000Y-102212000D02*
X158407000Y-102512000D01*
G75*
G02*
X158257000Y-102662000I-150000J0D01*
G01*
X156507000Y-102662000D01*
G75*
G02*
X156357000Y-102512000I0J150000D01*
G01*
X156357000Y-102212000D01*
G75*
G02*
X156507000Y-102062000I150000J0D01*
G01*
X158257000Y-102062000D01*
G75*
G02*
X158407000Y-102212000I0J-150000D01*
G01*
G37*
%TD.AperFunction*%
%TO.P,U2,7*%
%TA.AperFunction,SMDPad,CuDef*%
G36*
G01*
X158407000Y-100942000D02*
X158407000Y-101242000D01*
G75*
G02*
X158257000Y-101392000I-150000J0D01*
G01*
X156507000Y-101392000D01*
G75*
G02*
X156357000Y-101242000I0J150000D01*
G01*
X156357000Y-100942000D01*
G75*
G02*
X156507000Y-100792000I150000J0D01*
G01*
X158257000Y-100792000D01*
G75*
G02*
X158407000Y-100942000I0J-150000D01*
G01*
G37*
%TD.AperFunction*%
%TO.P,U2,6*%
%TA.AperFunction,SMDPad,CuDef*%
G36*
G01*
X158407000Y-99672000D02*
X158407000Y-99972000D01*
G75*
G02*
X158257000Y-100122000I-150000J0D01*
G01*
X156507000Y-100122000D01*
G75*
G02*
X156357000Y-99972000I0J150000D01*
G01*
X156357000Y-99672000D01*
G75*
G02*
X156507000Y-99522000I150000J0D01*
G01*
X158257000Y-99522000D01*
G75*
G02*
X158407000Y-99672000I0J-150000D01*
G01*
G37*
%TD.AperFunction*%
%TO.P,U2,5*%
%TA.AperFunction,SMDPad,CuDef*%
G36*
G01*
X158407000Y-98402000D02*
X158407000Y-98702000D01*
G75*
G02*
X158257000Y-98852000I-150000J0D01*
G01*
X156507000Y-98852000D01*
G75*
G02*
X156357000Y-98702000I0J150000D01*
G01*
X156357000Y-98402000D01*
G75*
G02*
X156507000Y-98252000I150000J0D01*
G01*
X158257000Y-98252000D01*
G75*
G02*
X158407000Y-98402000I0J-150000D01*
G01*
G37*
%TD.AperFunction*%
%TO.P,U2,4*%
%TO.N,Net-(U2-Pad4)*%
%TA.AperFunction,SMDPad,CuDef*%
G36*
G01*
X158407000Y-97132000D02*
X158407000Y-97432000D01*
G75*
G02*
X158257000Y-97582000I-150000J0D01*
G01*
X156507000Y-97582000D01*
G75*
G02*
X156357000Y-97432000I0J150000D01*
G01*
X156357000Y-97132000D01*
G75*
G02*
X156507000Y-96982000I150000J0D01*
G01*
X158257000Y-96982000D01*
G75*
G02*
X158407000Y-97132000I0J-150000D01*
G01*
G37*
%TD.AperFunction*%
%TO.P,U2,3*%
%TO.N,Net-(R4-Pad2)*%
%TA.AperFunction,SMDPad,CuDef*%
G36*
G01*
X158407000Y-95862000D02*
X158407000Y-96162000D01*
G75*
G02*
X158257000Y-96312000I-150000J0D01*
G01*
X156507000Y-96312000D01*
G75*
G02*
X156357000Y-96162000I0J150000D01*
G01*
X156357000Y-95862000D01*
G75*
G02*
X156507000Y-95712000I150000J0D01*
G01*
X158257000Y-95712000D01*
G75*
G02*
X158407000Y-95862000I0J-150000D01*
G01*
G37*
%TD.AperFunction*%
%TO.P,U2,2*%
%TO.N,VCC*%
%TA.AperFunction,SMDPad,CuDef*%
G36*
G01*
X158407000Y-94592000D02*
X158407000Y-94892000D01*
G75*
G02*
X158257000Y-95042000I-150000J0D01*
G01*
X156507000Y-95042000D01*
G75*
G02*
X156357000Y-94892000I0J150000D01*
G01*
X156357000Y-94592000D01*
G75*
G02*
X156507000Y-94442000I150000J0D01*
G01*
X158257000Y-94442000D01*
G75*
G02*
X158407000Y-94592000I0J-150000D01*
G01*
G37*
%TD.AperFunction*%
%TO.P,U2,1*%
%TO.N,Net-(U2-Pad1)*%
%TA.AperFunction,SMDPad,CuDef*%
G36*
G01*
X158407000Y-93322000D02*
X158407000Y-93622000D01*
G75*
G02*
X158257000Y-93772000I-150000J0D01*
G01*
X156507000Y-93772000D01*
G75*
G02*
X156357000Y-93622000I0J150000D01*
G01*
X156357000Y-93322000D01*
G75*
G02*
X156507000Y-93172000I150000J0D01*
G01*
X158257000Y-93172000D01*
G75*
G02*
X158407000Y-93322000I0J-150000D01*
G01*
G37*
%TD.AperFunction*%
%TD*%
%TO.P,R4,2*%
%TO.N,Net-(R4-Pad2)*%
%TA.AperFunction,SMDPad,CuDef*%
G36*
G01*
X151689750Y-90541500D02*
X152602250Y-90541500D01*
G75*
G02*
X152846000Y-90785250I0J-243750D01*
G01*
X152846000Y-91272750D01*
G75*
G02*
X152602250Y-91516500I-243750J0D01*
G01*
X151689750Y-91516500D01*
G75*
G02*
X151446000Y-91272750I0J243750D01*
G01*
X151446000Y-90785250D01*
G75*
G02*
X151689750Y-90541500I243750J0D01*
G01*
G37*
%TD.AperFunction*%
%TO.P,R4,1*%
%TO.N,VCC*%
%TA.AperFunction,SMDPad,CuDef*%
G36*
G01*
X151689750Y-88666500D02*
X152602250Y-88666500D01*
G75*
G02*
X152846000Y-88910250I0J-243750D01*
G01*
X152846000Y-89397750D01*
G75*
G02*
X152602250Y-89641500I-243750J0D01*
G01*
X151689750Y-89641500D01*
G75*
G02*
X151446000Y-89397750I0J243750D01*
G01*
X151446000Y-88910250D01*
G75*
G02*
X151689750Y-88666500I243750J0D01*
G01*
G37*
%TD.AperFunction*%
%TD*%
%TO.P,R3,2*%
%TO.N,SCL*%
%TA.AperFunction,SMDPad,CuDef*%
G36*
G01*
X147371750Y-90541500D02*
X148284250Y-90541500D01*
G75*
G02*
X148528000Y-90785250I0J-243750D01*
G01*
X148528000Y-91272750D01*
G75*
G02*
X148284250Y-91516500I-243750J0D01*
G01*
X147371750Y-91516500D01*
G75*
G02*
X147128000Y-91272750I0J243750D01*
G01*
X147128000Y-90785250D01*
G75*
G02*
X147371750Y-90541500I243750J0D01*
G01*
G37*
%TD.AperFunction*%
%TO.P,R3,1*%
%TO.N,VCC*%
%TA.AperFunction,SMDPad,CuDef*%
G36*
G01*
X147371750Y-88666500D02*
X148284250Y-88666500D01*
G75*
G02*
X148528000Y-88910250I0J-243750D01*
G01*
X148528000Y-89397750D01*
G75*
G02*
X148284250Y-89641500I-243750J0D01*
G01*
X147371750Y-89641500D01*
G75*
G02*
X147128000Y-89397750I0J243750D01*
G01*
X147128000Y-88910250D01*
G75*
G02*
X147371750Y-88666500I243750J0D01*
G01*
G37*
%TD.AperFunction*%
%TD*%
%TO.P,R2,2*%
%TO.N,SDA*%
%TA.AperFunction,SMDPad,CuDef*%
G36*
G01*
X143307750Y-90541500D02*
X144220250Y-90541500D01*
G75*
G02*
X144464000Y-90785250I0J-243750D01*
G01*
X144464000Y-91272750D01*
G75*
G02*
X144220250Y-91516500I-243750J0D01*
G01*
X143307750Y-91516500D01*
G75*
G02*
X143064000Y-91272750I0J243750D01*
G01*
X143064000Y-90785250D01*
G75*
G02*
X143307750Y-90541500I243750J0D01*
G01*
G37*
%TD.AperFunction*%
%TO.P,R2,1*%
%TO.N,VCC*%
%TA.AperFunction,SMDPad,CuDef*%
G36*
G01*
X143307750Y-88666500D02*
X144220250Y-88666500D01*
G75*
G02*
X144464000Y-88910250I0J-243750D01*
G01*
X144464000Y-89397750D01*
G75*
G02*
X144220250Y-89641500I-243750J0D01*
G01*
X143307750Y-89641500D01*
G75*
G02*
X143064000Y-89397750I0J243750D01*
G01*
X143064000Y-88910250D01*
G75*
G02*
X143307750Y-88666500I243750J0D01*
G01*
G37*
%TD.AperFunction*%
%TD*%
D14*
%TO.P,JTAG1,7*%
%TO.N,GND*%
X141986000Y-80455000D03*
%TO.P,JTAG1,6*%
%TO.N,VCC*%
X144526000Y-80455000D03*
%TO.P,JTAG1,5*%
%TO.N,TMS*%
X147066000Y-80455000D03*
%TO.P,JTAG1,4*%
%TO.N,TCK*%
X149606000Y-80455000D03*
%TO.P,JTAG1,3*%
%TO.N,PB7*%
X152146000Y-80455000D03*
%TO.P,JTAG1,2*%
%TO.N,PB6*%
X154686000Y-80455000D03*
%TO.P,JTAG1,1*%
%TO.N,RST*%
X157226000Y-80455000D03*
%TD*%
D15*
%TO.N,GND*%
X147320000Y-104648000D03*
X140462000Y-82550000D03*
X157988000Y-105918000D03*
%TO.N,TXD*%
X154686000Y-96774000D03*
X152400000Y-105918000D03*
%TO.N,RXD*%
X154686000Y-98298000D03*
X154178000Y-105918000D03*
%TO.N,VCC*%
X140462000Y-85090000D03*
%TO.N,RST*%
X154686000Y-86360000D03*
%TO.N,PB6*%
X152146000Y-86360000D03*
%TO.N,PB7*%
X149606000Y-86360000D03*
%TO.N,TCK*%
X147066000Y-86360000D03*
%TO.N,TMS*%
X144526000Y-86360000D03*
%TD*%
D16*
%TO.N,GND*%
X141478000Y-99442000D02*
X144144000Y-99442000D01*
X146304000Y-97282000D02*
X148082000Y-97282000D01*
X144144000Y-99442000D02*
X146304000Y-97282000D01*
X148082000Y-97282000D02*
X148082000Y-102362000D01*
X157382000Y-102362000D02*
X157382000Y-98552000D01*
X141986000Y-80455000D02*
X141986000Y-81534000D01*
X141986000Y-80455000D02*
X141795000Y-80455000D01*
X140462000Y-81788000D02*
X140462000Y-82550000D01*
X141795000Y-80455000D02*
X140462000Y-81788000D01*
X148082000Y-103886000D02*
X147320000Y-104648000D01*
X148082000Y-102362000D02*
X148082000Y-103886000D01*
X157382000Y-102362000D02*
X157382000Y-105312000D01*
X157382000Y-105312000D02*
X157988000Y-105918000D01*
X157988000Y-105918000D02*
X157988000Y-105918000D01*
X138176000Y-96140000D02*
X141478000Y-99442000D01*
X138176000Y-84836000D02*
X138176000Y-96140000D01*
X140462000Y-82550000D02*
X138176000Y-84836000D01*
X148749001Y-106077001D02*
X147320000Y-104648000D01*
X148749001Y-109314999D02*
X147574000Y-110490000D01*
X148749001Y-106077001D02*
X148749001Y-109314999D01*
%TO.N,TXD*%
X154686000Y-96774000D02*
X152400000Y-99060000D01*
X152400000Y-105918000D02*
X152400000Y-99060000D01*
%TO.N,RXD*%
X153670000Y-99314000D02*
X154686000Y-98298000D01*
X153670000Y-105410000D02*
X153670000Y-99314000D01*
X154178000Y-105918000D02*
X153670000Y-105410000D01*
%TO.N,VCC*%
X157382000Y-94742000D02*
X156357000Y-94742000D01*
X156357000Y-94742000D02*
X154178000Y-92563000D01*
X154178000Y-92563000D02*
X154178000Y-89916000D01*
X153416000Y-89154000D02*
X152146000Y-89154000D01*
X154178000Y-89916000D02*
X153416000Y-89154000D01*
X152146000Y-89154000D02*
X143764000Y-89154000D01*
X144526000Y-80455000D02*
X144526000Y-81534000D01*
X140462000Y-85852000D02*
X143764000Y-89154000D01*
X140462000Y-85090000D02*
X140462000Y-85852000D01*
X144526000Y-80455000D02*
X144526000Y-83058000D01*
X142494000Y-85090000D02*
X140462000Y-85090000D01*
X144526000Y-83058000D02*
X142494000Y-85090000D01*
%TO.N,RST*%
X157226000Y-80455000D02*
X157226000Y-81534000D01*
X157226000Y-80455000D02*
X157226000Y-83820000D01*
X157226000Y-83820000D02*
X154686000Y-86360000D01*
X154686000Y-86360000D02*
X154686000Y-86360000D01*
%TO.N,PB6*%
X154686000Y-80455000D02*
X154686000Y-81534000D01*
X154686000Y-80455000D02*
X154686000Y-83820000D01*
X154686000Y-83820000D02*
X152146000Y-86360000D01*
X152146000Y-86360000D02*
X152146000Y-86360000D01*
%TO.N,PB7*%
X152146000Y-80455000D02*
X152146000Y-81534000D01*
X152146000Y-80455000D02*
X152146000Y-83820000D01*
X152146000Y-83820000D02*
X149606000Y-86360000D01*
X149606000Y-86360000D02*
X149606000Y-86360000D01*
%TO.N,TCK*%
X149606000Y-80455000D02*
X149606000Y-81534000D01*
X149606000Y-80455000D02*
X149606000Y-83820000D01*
X149606000Y-83820000D02*
X147066000Y-86360000D01*
X147066000Y-86360000D02*
X147066000Y-86360000D01*
%TO.N,TMS*%
X147066000Y-80455000D02*
X147066000Y-81534000D01*
X147066000Y-80455000D02*
X147066000Y-83820000D01*
X147066000Y-83820000D02*
X144526000Y-86360000D01*
X144526000Y-86360000D02*
X144526000Y-86360000D01*
%TO.N,Net-(BT1-Pad1)*%
X148082000Y-96012000D02*
X149107000Y-96012000D01*
X148082000Y-96012000D02*
X146304000Y-96012000D01*
X145034000Y-94742000D02*
X141478000Y-94742000D01*
X146304000Y-96012000D02*
X145034000Y-94742000D01*
%TO.N,SCL*%
X148082000Y-91283000D02*
X147828000Y-91029000D01*
X148082000Y-93472000D02*
X148082000Y-91283000D01*
X151478999Y-109314999D02*
X152654000Y-110490000D01*
X151478999Y-95843999D02*
X151478999Y-109314999D01*
X149107000Y-93472000D02*
X151478999Y-95843999D01*
X148082000Y-93472000D02*
X149107000Y-93472000D01*
%TO.N,SDA*%
X148508768Y-94742000D02*
X148082000Y-94742000D01*
X143764000Y-91029000D02*
X143764000Y-91948000D01*
X146558000Y-94742000D02*
X148082000Y-94742000D01*
X143764000Y-91948000D02*
X146558000Y-94742000D01*
X149709492Y-90216490D02*
X144576510Y-90216490D01*
X155763500Y-96270498D02*
X149709492Y-90216490D01*
X144576510Y-90216490D02*
X143764000Y-91029000D01*
X155194000Y-110490000D02*
X155194000Y-109689002D01*
X156558999Y-109125001D02*
X156558999Y-104488999D01*
X155194000Y-110490000D02*
X156558999Y-109125001D01*
X155763500Y-103693500D02*
X155763500Y-96270498D01*
X156558999Y-104488999D02*
X155763500Y-103693500D01*
%TO.N,Net-(R4-Pad2)*%
X152146000Y-91801000D02*
X152146000Y-91029000D01*
X156357000Y-96012000D02*
X152146000Y-91801000D01*
X157382000Y-96012000D02*
X156357000Y-96012000D01*
%TD*%
D17*
G36*
X158598001Y-109613104D02*
G01*
X158518717Y-109533820D01*
X158317097Y-109399102D01*
X158093069Y-109306307D01*
X157855243Y-109259000D01*
X157612757Y-109259000D01*
X157374931Y-109306307D01*
X157150903Y-109399102D01*
X156949283Y-109533820D01*
X156777820Y-109705283D01*
X156643102Y-109906903D01*
X156550307Y-110130931D01*
X156503000Y-110368757D01*
X156503000Y-110611243D01*
X156550307Y-110849069D01*
X156643102Y-111073097D01*
X156777820Y-111274717D01*
X156857103Y-111354000D01*
X156070897Y-111354000D01*
X156150180Y-111274717D01*
X156284898Y-111073097D01*
X156377693Y-110849069D01*
X156425000Y-110611243D01*
X156425000Y-110368757D01*
X156377693Y-110130931D01*
X156345758Y-110053833D01*
X156899219Y-109500373D01*
X156918526Y-109484528D01*
X156981758Y-109407480D01*
X157028744Y-109319576D01*
X157057677Y-109224194D01*
X157061750Y-109182843D01*
X158584000Y-109182843D01*
X158598001Y-109181464D01*
X158598001Y-109613104D01*
G37*
X158598001Y-109613104D02*
X158518717Y-109533820D01*
X158317097Y-109399102D01*
X158093069Y-109306307D01*
X157855243Y-109259000D01*
X157612757Y-109259000D01*
X157374931Y-109306307D01*
X157150903Y-109399102D01*
X156949283Y-109533820D01*
X156777820Y-109705283D01*
X156643102Y-109906903D01*
X156550307Y-110130931D01*
X156503000Y-110368757D01*
X156503000Y-110611243D01*
X156550307Y-110849069D01*
X156643102Y-111073097D01*
X156777820Y-111274717D01*
X156857103Y-111354000D01*
X156070897Y-111354000D01*
X156150180Y-111274717D01*
X156284898Y-111073097D01*
X156377693Y-110849069D01*
X156425000Y-110611243D01*
X156425000Y-110368757D01*
X156377693Y-110130931D01*
X156345758Y-110053833D01*
X156899219Y-109500373D01*
X156918526Y-109484528D01*
X156981758Y-109407480D01*
X157028744Y-109319576D01*
X157057677Y-109224194D01*
X157061750Y-109182843D01*
X158584000Y-109182843D01*
X158598001Y-109181464D01*
X158598001Y-109613104D01*
G36*
X150973000Y-109290143D02*
G01*
X150970552Y-109314999D01*
X150980321Y-109414191D01*
X151009254Y-109509573D01*
X151009255Y-109509574D01*
X151056241Y-109597478D01*
X151119473Y-109674526D01*
X151138779Y-109690370D01*
X151502242Y-110053833D01*
X151470307Y-110130931D01*
X151423000Y-110368757D01*
X151423000Y-110611243D01*
X151470307Y-110849069D01*
X151563102Y-111073097D01*
X151697820Y-111274717D01*
X151777103Y-111354000D01*
X150990897Y-111354000D01*
X151070180Y-111274717D01*
X151204898Y-111073097D01*
X151297693Y-110849069D01*
X151345000Y-110611243D01*
X151345000Y-110368757D01*
X151297693Y-110130931D01*
X151204898Y-109906903D01*
X151070180Y-109705283D01*
X150898717Y-109533820D01*
X150697097Y-109399102D01*
X150473069Y-109306307D01*
X150235243Y-109259000D01*
X149992757Y-109259000D01*
X149754931Y-109306307D01*
X149530903Y-109399102D01*
X149329283Y-109533820D01*
X149157820Y-109705283D01*
X149023102Y-109906903D01*
X148930307Y-110130931D01*
X148883000Y-110368757D01*
X148883000Y-110611243D01*
X148930307Y-110849069D01*
X149023102Y-111073097D01*
X149157820Y-111274717D01*
X149237103Y-111354000D01*
X148450897Y-111354000D01*
X148530180Y-111274717D01*
X148664898Y-111073097D01*
X148757693Y-110849069D01*
X148805000Y-110611243D01*
X148805000Y-110368757D01*
X148757693Y-110130931D01*
X148725758Y-110053833D01*
X149089221Y-109690371D01*
X149108528Y-109674526D01*
X149171760Y-109597478D01*
X149218746Y-109509574D01*
X149247679Y-109414192D01*
X149255001Y-109339853D01*
X149255001Y-109339846D01*
X149257448Y-109315000D01*
X149255001Y-109290154D01*
X149255001Y-108831898D01*
X149329283Y-108906180D01*
X149530903Y-109040898D01*
X149754931Y-109133693D01*
X149992757Y-109181000D01*
X150235243Y-109181000D01*
X150473069Y-109133693D01*
X150697097Y-109040898D01*
X150898717Y-108906180D01*
X150973000Y-108831897D01*
X150973000Y-109290143D01*
G37*
X150973000Y-109290143D02*
X150970552Y-109314999D01*
X150980321Y-109414191D01*
X151009254Y-109509573D01*
X151009255Y-109509574D01*
X151056241Y-109597478D01*
X151119473Y-109674526D01*
X151138779Y-109690370D01*
X151502242Y-110053833D01*
X151470307Y-110130931D01*
X151423000Y-110368757D01*
X151423000Y-110611243D01*
X151470307Y-110849069D01*
X151563102Y-111073097D01*
X151697820Y-111274717D01*
X151777103Y-111354000D01*
X150990897Y-111354000D01*
X151070180Y-111274717D01*
X151204898Y-111073097D01*
X151297693Y-110849069D01*
X151345000Y-110611243D01*
X151345000Y-110368757D01*
X151297693Y-110130931D01*
X151204898Y-109906903D01*
X151070180Y-109705283D01*
X150898717Y-109533820D01*
X150697097Y-109399102D01*
X150473069Y-109306307D01*
X150235243Y-109259000D01*
X149992757Y-109259000D01*
X149754931Y-109306307D01*
X149530903Y-109399102D01*
X149329283Y-109533820D01*
X149157820Y-109705283D01*
X149023102Y-109906903D01*
X148930307Y-110130931D01*
X148883000Y-110368757D01*
X148883000Y-110611243D01*
X148930307Y-110849069D01*
X149023102Y-111073097D01*
X149157820Y-111274717D01*
X149237103Y-111354000D01*
X148450897Y-111354000D01*
X148530180Y-111274717D01*
X148664898Y-111073097D01*
X148757693Y-110849069D01*
X148805000Y-110611243D01*
X148805000Y-110368757D01*
X148757693Y-110130931D01*
X148725758Y-110053833D01*
X149089221Y-109690371D01*
X149108528Y-109674526D01*
X149171760Y-109597478D01*
X149218746Y-109509574D01*
X149247679Y-109414192D01*
X149255001Y-109339853D01*
X149255001Y-109339846D01*
X149257448Y-109315000D01*
X149255001Y-109290154D01*
X149255001Y-108831898D01*
X149329283Y-108906180D01*
X149530903Y-109040898D01*
X149754931Y-109133693D01*
X149992757Y-109181000D01*
X150235243Y-109181000D01*
X150473069Y-109133693D01*
X150697097Y-109040898D01*
X150898717Y-108906180D01*
X150973000Y-108831897D01*
X150973000Y-109290143D01*
G36*
X153905000Y-98363408D02*
G01*
X153329780Y-98938629D01*
X153310474Y-98954473D01*
X153247242Y-99031521D01*
X153237906Y-99048987D01*
X153200255Y-99119426D01*
X153171322Y-99214808D01*
X153161553Y-99314000D01*
X153164001Y-99338856D01*
X153164000Y-105385154D01*
X153161553Y-105410000D01*
X153164000Y-105434846D01*
X153164000Y-105434853D01*
X153171322Y-105509192D01*
X153200255Y-105604574D01*
X153247241Y-105692479D01*
X153310473Y-105769527D01*
X153329785Y-105785376D01*
X153397000Y-105852591D01*
X153397000Y-105994922D01*
X153427013Y-106145809D01*
X153485887Y-106287942D01*
X153571358Y-106415859D01*
X153680141Y-106524642D01*
X153808058Y-106610113D01*
X153950191Y-106668987D01*
X154101078Y-106699000D01*
X154254922Y-106699000D01*
X154405809Y-106668987D01*
X154547942Y-106610113D01*
X154675859Y-106524642D01*
X154784642Y-106415859D01*
X154870113Y-106287942D01*
X154928987Y-106145809D01*
X154959000Y-105994922D01*
X154959000Y-105841078D01*
X154928987Y-105690191D01*
X154870113Y-105548058D01*
X154784642Y-105420141D01*
X154675859Y-105311358D01*
X154547942Y-105225887D01*
X154405809Y-105167013D01*
X154254922Y-105137000D01*
X154176000Y-105137000D01*
X154176000Y-99523591D01*
X154620592Y-99079000D01*
X154762922Y-99079000D01*
X154913809Y-99048987D01*
X155055942Y-98990113D01*
X155183859Y-98904642D01*
X155257501Y-98831000D01*
X155257500Y-103668654D01*
X155255053Y-103693500D01*
X155257500Y-103718346D01*
X155257500Y-103718353D01*
X155264822Y-103792692D01*
X155293755Y-103888074D01*
X155340741Y-103975979D01*
X155403973Y-104053027D01*
X155423285Y-104068876D01*
X156053000Y-104698592D01*
X156052999Y-107068102D01*
X155978717Y-106993820D01*
X155777097Y-106859102D01*
X155553069Y-106766307D01*
X155315243Y-106719000D01*
X155072757Y-106719000D01*
X154834931Y-106766307D01*
X154610903Y-106859102D01*
X154409283Y-106993820D01*
X154237820Y-107165283D01*
X154103102Y-107366903D01*
X154010307Y-107590931D01*
X153963000Y-107828757D01*
X153963000Y-108071243D01*
X154010307Y-108309069D01*
X154103102Y-108533097D01*
X154237820Y-108734717D01*
X154409283Y-108906180D01*
X154610903Y-109040898D01*
X154834931Y-109133693D01*
X155072757Y-109181000D01*
X155189472Y-109181000D01*
X155094808Y-109190324D01*
X154999426Y-109219257D01*
X154911522Y-109266243D01*
X154871589Y-109299015D01*
X154834931Y-109306307D01*
X154610903Y-109399102D01*
X154409283Y-109533820D01*
X154237820Y-109705283D01*
X154103102Y-109906903D01*
X154010307Y-110130931D01*
X153963000Y-110368757D01*
X153963000Y-110611243D01*
X154010307Y-110849069D01*
X154103102Y-111073097D01*
X154237820Y-111274717D01*
X154317103Y-111354000D01*
X153530897Y-111354000D01*
X153610180Y-111274717D01*
X153744898Y-111073097D01*
X153837693Y-110849069D01*
X153885000Y-110611243D01*
X153885000Y-110368757D01*
X153837693Y-110130931D01*
X153744898Y-109906903D01*
X153610180Y-109705283D01*
X153438717Y-109533820D01*
X153237097Y-109399102D01*
X153013069Y-109306307D01*
X152775243Y-109259000D01*
X152532757Y-109259000D01*
X152294931Y-109306307D01*
X152217833Y-109338242D01*
X151984999Y-109105408D01*
X151984999Y-108983499D01*
X152070903Y-109040898D01*
X152294931Y-109133693D01*
X152532757Y-109181000D01*
X152775243Y-109181000D01*
X153013069Y-109133693D01*
X153237097Y-109040898D01*
X153438717Y-108906180D01*
X153610180Y-108734717D01*
X153744898Y-108533097D01*
X153837693Y-108309069D01*
X153885000Y-108071243D01*
X153885000Y-107828757D01*
X153837693Y-107590931D01*
X153744898Y-107366903D01*
X153610180Y-107165283D01*
X153438717Y-106993820D01*
X153237097Y-106859102D01*
X153013069Y-106766307D01*
X152775243Y-106719000D01*
X152532757Y-106719000D01*
X152294931Y-106766307D01*
X152070903Y-106859102D01*
X151984999Y-106916501D01*
X151984999Y-106580006D01*
X152030058Y-106610113D01*
X152172191Y-106668987D01*
X152323078Y-106699000D01*
X152476922Y-106699000D01*
X152627809Y-106668987D01*
X152769942Y-106610113D01*
X152897859Y-106524642D01*
X153006642Y-106415859D01*
X153092113Y-106287942D01*
X153150987Y-106145809D01*
X153181000Y-105994922D01*
X153181000Y-105841078D01*
X153150987Y-105690191D01*
X153092113Y-105548058D01*
X153006642Y-105420141D01*
X152906000Y-105319499D01*
X152906000Y-99269591D01*
X153905000Y-98270592D01*
X153905000Y-98363408D01*
G37*
X153905000Y-98363408D02*
X153329780Y-98938629D01*
X153310474Y-98954473D01*
X153247242Y-99031521D01*
X153237906Y-99048987D01*
X153200255Y-99119426D01*
X153171322Y-99214808D01*
X153161553Y-99314000D01*
X153164001Y-99338856D01*
X153164000Y-105385154D01*
X153161553Y-105410000D01*
X153164000Y-105434846D01*
X153164000Y-105434853D01*
X153171322Y-105509192D01*
X153200255Y-105604574D01*
X153247241Y-105692479D01*
X153310473Y-105769527D01*
X153329785Y-105785376D01*
X153397000Y-105852591D01*
X153397000Y-105994922D01*
X153427013Y-106145809D01*
X153485887Y-106287942D01*
X153571358Y-106415859D01*
X153680141Y-106524642D01*
X153808058Y-106610113D01*
X153950191Y-106668987D01*
X154101078Y-106699000D01*
X154254922Y-106699000D01*
X154405809Y-106668987D01*
X154547942Y-106610113D01*
X154675859Y-106524642D01*
X154784642Y-106415859D01*
X154870113Y-106287942D01*
X154928987Y-106145809D01*
X154959000Y-105994922D01*
X154959000Y-105841078D01*
X154928987Y-105690191D01*
X154870113Y-105548058D01*
X154784642Y-105420141D01*
X154675859Y-105311358D01*
X154547942Y-105225887D01*
X154405809Y-105167013D01*
X154254922Y-105137000D01*
X154176000Y-105137000D01*
X154176000Y-99523591D01*
X154620592Y-99079000D01*
X154762922Y-99079000D01*
X154913809Y-99048987D01*
X155055942Y-98990113D01*
X155183859Y-98904642D01*
X155257501Y-98831000D01*
X155257500Y-103668654D01*
X155255053Y-103693500D01*
X155257500Y-103718346D01*
X155257500Y-103718353D01*
X155264822Y-103792692D01*
X155293755Y-103888074D01*
X155340741Y-103975979D01*
X155403973Y-104053027D01*
X155423285Y-104068876D01*
X156053000Y-104698592D01*
X156052999Y-107068102D01*
X155978717Y-106993820D01*
X155777097Y-106859102D01*
X155553069Y-106766307D01*
X155315243Y-106719000D01*
X155072757Y-106719000D01*
X154834931Y-106766307D01*
X154610903Y-106859102D01*
X154409283Y-106993820D01*
X154237820Y-107165283D01*
X154103102Y-107366903D01*
X154010307Y-107590931D01*
X153963000Y-107828757D01*
X153963000Y-108071243D01*
X154010307Y-108309069D01*
X154103102Y-108533097D01*
X154237820Y-108734717D01*
X154409283Y-108906180D01*
X154610903Y-109040898D01*
X154834931Y-109133693D01*
X155072757Y-109181000D01*
X155189472Y-109181000D01*
X155094808Y-109190324D01*
X154999426Y-109219257D01*
X154911522Y-109266243D01*
X154871589Y-109299015D01*
X154834931Y-109306307D01*
X154610903Y-109399102D01*
X154409283Y-109533820D01*
X154237820Y-109705283D01*
X154103102Y-109906903D01*
X154010307Y-110130931D01*
X153963000Y-110368757D01*
X153963000Y-110611243D01*
X154010307Y-110849069D01*
X154103102Y-111073097D01*
X154237820Y-111274717D01*
X154317103Y-111354000D01*
X153530897Y-111354000D01*
X153610180Y-111274717D01*
X153744898Y-111073097D01*
X153837693Y-110849069D01*
X153885000Y-110611243D01*
X153885000Y-110368757D01*
X153837693Y-110130931D01*
X153744898Y-109906903D01*
X153610180Y-109705283D01*
X153438717Y-109533820D01*
X153237097Y-109399102D01*
X153013069Y-109306307D01*
X152775243Y-109259000D01*
X152532757Y-109259000D01*
X152294931Y-109306307D01*
X152217833Y-109338242D01*
X151984999Y-109105408D01*
X151984999Y-108983499D01*
X152070903Y-109040898D01*
X152294931Y-109133693D01*
X152532757Y-109181000D01*
X152775243Y-109181000D01*
X153013069Y-109133693D01*
X153237097Y-109040898D01*
X153438717Y-108906180D01*
X153610180Y-108734717D01*
X153744898Y-108533097D01*
X153837693Y-108309069D01*
X153885000Y-108071243D01*
X153885000Y-107828757D01*
X153837693Y-107590931D01*
X153744898Y-107366903D01*
X153610180Y-107165283D01*
X153438717Y-106993820D01*
X153237097Y-106859102D01*
X153013069Y-106766307D01*
X152775243Y-106719000D01*
X152532757Y-106719000D01*
X152294931Y-106766307D01*
X152070903Y-106859102D01*
X151984999Y-106916501D01*
X151984999Y-106580006D01*
X152030058Y-106610113D01*
X152172191Y-106668987D01*
X152323078Y-106699000D01*
X152476922Y-106699000D01*
X152627809Y-106668987D01*
X152769942Y-106610113D01*
X152897859Y-106524642D01*
X153006642Y-106415859D01*
X153092113Y-106287942D01*
X153150987Y-106145809D01*
X153181000Y-105994922D01*
X153181000Y-105841078D01*
X153150987Y-105690191D01*
X153092113Y-105548058D01*
X153006642Y-105420141D01*
X152906000Y-105319499D01*
X152906000Y-99269591D01*
X153905000Y-98270592D01*
X153905000Y-98363408D01*
G36*
X146789283Y-108906180D02*
G01*
X146990903Y-109040898D01*
X147214931Y-109133693D01*
X147452757Y-109181000D01*
X147695243Y-109181000D01*
X147933069Y-109133693D01*
X148157097Y-109040898D01*
X148243002Y-108983498D01*
X148243002Y-109105406D01*
X148010167Y-109338242D01*
X147933069Y-109306307D01*
X147695243Y-109259000D01*
X147452757Y-109259000D01*
X147214931Y-109306307D01*
X146990903Y-109399102D01*
X146789283Y-109533820D01*
X146710000Y-109613103D01*
X146710000Y-108826897D01*
X146789283Y-108906180D01*
G37*
X146789283Y-108906180D02*
X146990903Y-109040898D01*
X147214931Y-109133693D01*
X147452757Y-109181000D01*
X147695243Y-109181000D01*
X147933069Y-109133693D01*
X148157097Y-109040898D01*
X148243002Y-108983498D01*
X148243002Y-109105406D01*
X148010167Y-109338242D01*
X147933069Y-109306307D01*
X147695243Y-109259000D01*
X147452757Y-109259000D01*
X147214931Y-109306307D01*
X146990903Y-109399102D01*
X146789283Y-109533820D01*
X146710000Y-109613103D01*
X146710000Y-108826897D01*
X146789283Y-108906180D01*
G36*
X156052999Y-108915409D02*
G01*
X155630167Y-109338242D01*
X155553069Y-109306307D01*
X155516412Y-109299015D01*
X155476479Y-109266243D01*
X155388575Y-109219257D01*
X155293193Y-109190324D01*
X155198528Y-109181000D01*
X155315243Y-109181000D01*
X155553069Y-109133693D01*
X155777097Y-109040898D01*
X155978717Y-108906180D01*
X156052999Y-108831898D01*
X156052999Y-108915409D01*
G37*
X156052999Y-108915409D02*
X155630167Y-109338242D01*
X155553069Y-109306307D01*
X155516412Y-109299015D01*
X155476479Y-109266243D01*
X155388575Y-109219257D01*
X155293193Y-109190324D01*
X155198528Y-109181000D01*
X155315243Y-109181000D01*
X155553069Y-109133693D01*
X155777097Y-109040898D01*
X155978717Y-108906180D01*
X156052999Y-108831898D01*
X156052999Y-108915409D01*
G36*
X158598000Y-67478171D02*
G01*
X158598001Y-92915862D01*
X158553032Y-92878957D01*
X158460910Y-92829717D01*
X158360953Y-92799395D01*
X158257000Y-92789157D01*
X156507000Y-92789157D01*
X156403047Y-92799395D01*
X156303090Y-92829717D01*
X156210968Y-92878957D01*
X156130223Y-92945223D01*
X156063957Y-93025968D01*
X156014717Y-93118090D01*
X155984395Y-93218047D01*
X155974157Y-93322000D01*
X155974157Y-93622000D01*
X155976513Y-93645921D01*
X154684000Y-92353409D01*
X154684000Y-89940854D01*
X154686448Y-89916000D01*
X154676678Y-89816807D01*
X154647745Y-89721425D01*
X154640592Y-89708043D01*
X154600759Y-89633521D01*
X154537527Y-89556473D01*
X154518220Y-89540628D01*
X153791376Y-88813785D01*
X153775527Y-88794473D01*
X153698479Y-88731241D01*
X153610575Y-88684255D01*
X153515193Y-88655322D01*
X153440854Y-88648000D01*
X153440846Y-88648000D01*
X153416000Y-88645553D01*
X153391154Y-88648000D01*
X153169139Y-88648000D01*
X153123243Y-88562134D01*
X153045318Y-88467182D01*
X152950366Y-88389257D01*
X152842037Y-88331354D01*
X152724492Y-88295697D01*
X152602250Y-88283657D01*
X151689750Y-88283657D01*
X151567508Y-88295697D01*
X151449963Y-88331354D01*
X151341634Y-88389257D01*
X151246682Y-88467182D01*
X151168757Y-88562134D01*
X151122861Y-88648000D01*
X148851139Y-88648000D01*
X148805243Y-88562134D01*
X148727318Y-88467182D01*
X148632366Y-88389257D01*
X148524037Y-88331354D01*
X148406492Y-88295697D01*
X148284250Y-88283657D01*
X147371750Y-88283657D01*
X147249508Y-88295697D01*
X147131963Y-88331354D01*
X147023634Y-88389257D01*
X146928682Y-88467182D01*
X146850757Y-88562134D01*
X146804861Y-88648000D01*
X144787139Y-88648000D01*
X144741243Y-88562134D01*
X144663318Y-88467182D01*
X144568366Y-88389257D01*
X144460037Y-88331354D01*
X144342492Y-88295697D01*
X144220250Y-88283657D01*
X143609249Y-88283657D01*
X141608670Y-86283078D01*
X143745000Y-86283078D01*
X143745000Y-86436922D01*
X143775013Y-86587809D01*
X143833887Y-86729942D01*
X143919358Y-86857859D01*
X144028141Y-86966642D01*
X144156058Y-87052113D01*
X144298191Y-87110987D01*
X144449078Y-87141000D01*
X144602922Y-87141000D01*
X144753809Y-87110987D01*
X144895942Y-87052113D01*
X145023859Y-86966642D01*
X145132642Y-86857859D01*
X145218113Y-86729942D01*
X145276987Y-86587809D01*
X145307000Y-86436922D01*
X145307000Y-86294591D01*
X145318513Y-86283078D01*
X146285000Y-86283078D01*
X146285000Y-86436922D01*
X146315013Y-86587809D01*
X146373887Y-86729942D01*
X146459358Y-86857859D01*
X146568141Y-86966642D01*
X146696058Y-87052113D01*
X146838191Y-87110987D01*
X146989078Y-87141000D01*
X147142922Y-87141000D01*
X147293809Y-87110987D01*
X147435942Y-87052113D01*
X147563859Y-86966642D01*
X147672642Y-86857859D01*
X147758113Y-86729942D01*
X147816987Y-86587809D01*
X147847000Y-86436922D01*
X147847000Y-86294591D01*
X147858513Y-86283078D01*
X148825000Y-86283078D01*
X148825000Y-86436922D01*
X148855013Y-86587809D01*
X148913887Y-86729942D01*
X148999358Y-86857859D01*
X149108141Y-86966642D01*
X149236058Y-87052113D01*
X149378191Y-87110987D01*
X149529078Y-87141000D01*
X149682922Y-87141000D01*
X149833809Y-87110987D01*
X149975942Y-87052113D01*
X150103859Y-86966642D01*
X150212642Y-86857859D01*
X150298113Y-86729942D01*
X150356987Y-86587809D01*
X150387000Y-86436922D01*
X150387000Y-86294591D01*
X150398513Y-86283078D01*
X151365000Y-86283078D01*
X151365000Y-86436922D01*
X151395013Y-86587809D01*
X151453887Y-86729942D01*
X151539358Y-86857859D01*
X151648141Y-86966642D01*
X151776058Y-87052113D01*
X151918191Y-87110987D01*
X152069078Y-87141000D01*
X152222922Y-87141000D01*
X152373809Y-87110987D01*
X152515942Y-87052113D01*
X152643859Y-86966642D01*
X152752642Y-86857859D01*
X152838113Y-86729942D01*
X152896987Y-86587809D01*
X152927000Y-86436922D01*
X152927000Y-86294591D01*
X152938513Y-86283078D01*
X153905000Y-86283078D01*
X153905000Y-86436922D01*
X153935013Y-86587809D01*
X153993887Y-86729942D01*
X154079358Y-86857859D01*
X154188141Y-86966642D01*
X154316058Y-87052113D01*
X154458191Y-87110987D01*
X154609078Y-87141000D01*
X154762922Y-87141000D01*
X154913809Y-87110987D01*
X155055942Y-87052113D01*
X155183859Y-86966642D01*
X155292642Y-86857859D01*
X155378113Y-86729942D01*
X155436987Y-86587809D01*
X155467000Y-86436922D01*
X155467000Y-86294591D01*
X157566220Y-84195372D01*
X157585527Y-84179527D01*
X157648759Y-84102479D01*
X157695745Y-84014575D01*
X157724678Y-83919193D01*
X157732000Y-83844854D01*
X157732000Y-83844847D01*
X157734447Y-83820001D01*
X157732000Y-83795155D01*
X157732000Y-82087252D01*
X157800689Y-82080487D01*
X157872508Y-82058701D01*
X157938696Y-82023322D01*
X157996711Y-81975711D01*
X158044322Y-81917696D01*
X158079701Y-81851508D01*
X158101487Y-81779689D01*
X158108843Y-81705000D01*
X158108843Y-79205000D01*
X158101487Y-79130311D01*
X158079701Y-79058492D01*
X158044322Y-78992304D01*
X157996711Y-78934289D01*
X157938696Y-78886678D01*
X157872508Y-78851299D01*
X157800689Y-78829513D01*
X157726000Y-78822157D01*
X156726000Y-78822157D01*
X156651311Y-78829513D01*
X156579492Y-78851299D01*
X156513304Y-78886678D01*
X156455289Y-78934289D01*
X156407678Y-78992304D01*
X156372299Y-79058492D01*
X156350513Y-79130311D01*
X156343157Y-79205000D01*
X156343157Y-81705000D01*
X156350513Y-81779689D01*
X156372299Y-81851508D01*
X156407678Y-81917696D01*
X156455289Y-81975711D01*
X156513304Y-82023322D01*
X156579492Y-82058701D01*
X156651311Y-82080487D01*
X156720000Y-82087252D01*
X156720001Y-83610407D01*
X154751409Y-85579000D01*
X154609078Y-85579000D01*
X154458191Y-85609013D01*
X154316058Y-85667887D01*
X154188141Y-85753358D01*
X154079358Y-85862141D01*
X153993887Y-85990058D01*
X153935013Y-86132191D01*
X153905000Y-86283078D01*
X152938513Y-86283078D01*
X155026220Y-84195372D01*
X155045527Y-84179527D01*
X155108759Y-84102479D01*
X155155745Y-84014575D01*
X155184678Y-83919193D01*
X155192000Y-83844854D01*
X155192000Y-83844847D01*
X155194447Y-83820001D01*
X155192000Y-83795155D01*
X155192000Y-82087252D01*
X155260689Y-82080487D01*
X155332508Y-82058701D01*
X155398696Y-82023322D01*
X155456711Y-81975711D01*
X155504322Y-81917696D01*
X155539701Y-81851508D01*
X155561487Y-81779689D01*
X155568843Y-81705000D01*
X155568843Y-79205000D01*
X155561487Y-79130311D01*
X155539701Y-79058492D01*
X155504322Y-78992304D01*
X155456711Y-78934289D01*
X155398696Y-78886678D01*
X155332508Y-78851299D01*
X155260689Y-78829513D01*
X155186000Y-78822157D01*
X154186000Y-78822157D01*
X154111311Y-78829513D01*
X154039492Y-78851299D01*
X153973304Y-78886678D01*
X153915289Y-78934289D01*
X153867678Y-78992304D01*
X153832299Y-79058492D01*
X153810513Y-79130311D01*
X153803157Y-79205000D01*
X153803157Y-81705000D01*
X153810513Y-81779689D01*
X153832299Y-81851508D01*
X153867678Y-81917696D01*
X153915289Y-81975711D01*
X153973304Y-82023322D01*
X154039492Y-82058701D01*
X154111311Y-82080487D01*
X154180000Y-82087252D01*
X154180001Y-83610407D01*
X152211409Y-85579000D01*
X152069078Y-85579000D01*
X151918191Y-85609013D01*
X151776058Y-85667887D01*
X151648141Y-85753358D01*
X151539358Y-85862141D01*
X151453887Y-85990058D01*
X151395013Y-86132191D01*
X151365000Y-86283078D01*
X150398513Y-86283078D01*
X152486220Y-84195372D01*
X152505527Y-84179527D01*
X152568759Y-84102479D01*
X152615745Y-84014575D01*
X152644678Y-83919193D01*
X152652000Y-83844854D01*
X152652000Y-83844847D01*
X152654447Y-83820001D01*
X152652000Y-83795155D01*
X152652000Y-82087252D01*
X152720689Y-82080487D01*
X152792508Y-82058701D01*
X152858696Y-82023322D01*
X152916711Y-81975711D01*
X152964322Y-81917696D01*
X152999701Y-81851508D01*
X153021487Y-81779689D01*
X153028843Y-81705000D01*
X153028843Y-79205000D01*
X153021487Y-79130311D01*
X152999701Y-79058492D01*
X152964322Y-78992304D01*
X152916711Y-78934289D01*
X152858696Y-78886678D01*
X152792508Y-78851299D01*
X152720689Y-78829513D01*
X152646000Y-78822157D01*
X151646000Y-78822157D01*
X151571311Y-78829513D01*
X151499492Y-78851299D01*
X151433304Y-78886678D01*
X151375289Y-78934289D01*
X151327678Y-78992304D01*
X151292299Y-79058492D01*
X151270513Y-79130311D01*
X151263157Y-79205000D01*
X151263157Y-81705000D01*
X151270513Y-81779689D01*
X151292299Y-81851508D01*
X151327678Y-81917696D01*
X151375289Y-81975711D01*
X151433304Y-82023322D01*
X151499492Y-82058701D01*
X151571311Y-82080487D01*
X151640000Y-82087252D01*
X151640001Y-83610407D01*
X149671409Y-85579000D01*
X149529078Y-85579000D01*
X149378191Y-85609013D01*
X149236058Y-85667887D01*
X149108141Y-85753358D01*
X148999358Y-85862141D01*
X148913887Y-85990058D01*
X148855013Y-86132191D01*
X148825000Y-86283078D01*
X147858513Y-86283078D01*
X149946220Y-84195372D01*
X149965527Y-84179527D01*
X150028759Y-84102479D01*
X150075745Y-84014575D01*
X150104678Y-83919193D01*
X150112000Y-83844854D01*
X150112000Y-83844847D01*
X150114447Y-83820001D01*
X150112000Y-83795155D01*
X150112000Y-82087252D01*
X150180689Y-82080487D01*
X150252508Y-82058701D01*
X150318696Y-82023322D01*
X150376711Y-81975711D01*
X150424322Y-81917696D01*
X150459701Y-81851508D01*
X150481487Y-81779689D01*
X150488843Y-81705000D01*
X150488843Y-79205000D01*
X150481487Y-79130311D01*
X150459701Y-79058492D01*
X150424322Y-78992304D01*
X150376711Y-78934289D01*
X150318696Y-78886678D01*
X150252508Y-78851299D01*
X150180689Y-78829513D01*
X150106000Y-78822157D01*
X149106000Y-78822157D01*
X149031311Y-78829513D01*
X148959492Y-78851299D01*
X148893304Y-78886678D01*
X148835289Y-78934289D01*
X148787678Y-78992304D01*
X148752299Y-79058492D01*
X148730513Y-79130311D01*
X148723157Y-79205000D01*
X148723157Y-81705000D01*
X148730513Y-81779689D01*
X148752299Y-81851508D01*
X148787678Y-81917696D01*
X148835289Y-81975711D01*
X148893304Y-82023322D01*
X148959492Y-82058701D01*
X149031311Y-82080487D01*
X149100000Y-82087252D01*
X149100001Y-83610407D01*
X147131409Y-85579000D01*
X146989078Y-85579000D01*
X146838191Y-85609013D01*
X146696058Y-85667887D01*
X146568141Y-85753358D01*
X146459358Y-85862141D01*
X146373887Y-85990058D01*
X146315013Y-86132191D01*
X146285000Y-86283078D01*
X145318513Y-86283078D01*
X147406220Y-84195372D01*
X147425527Y-84179527D01*
X147488759Y-84102479D01*
X147535745Y-84014575D01*
X147564678Y-83919193D01*
X147572000Y-83844854D01*
X147572000Y-83844847D01*
X147574447Y-83820001D01*
X147572000Y-83795155D01*
X147572000Y-82087252D01*
X147640689Y-82080487D01*
X147712508Y-82058701D01*
X147778696Y-82023322D01*
X147836711Y-81975711D01*
X147884322Y-81917696D01*
X147919701Y-81851508D01*
X147941487Y-81779689D01*
X147948843Y-81705000D01*
X147948843Y-79205000D01*
X147941487Y-79130311D01*
X147919701Y-79058492D01*
X147884322Y-78992304D01*
X147836711Y-78934289D01*
X147778696Y-78886678D01*
X147712508Y-78851299D01*
X147640689Y-78829513D01*
X147566000Y-78822157D01*
X146566000Y-78822157D01*
X146491311Y-78829513D01*
X146419492Y-78851299D01*
X146353304Y-78886678D01*
X146295289Y-78934289D01*
X146247678Y-78992304D01*
X146212299Y-79058492D01*
X146190513Y-79130311D01*
X146183157Y-79205000D01*
X146183157Y-81705000D01*
X146190513Y-81779689D01*
X146212299Y-81851508D01*
X146247678Y-81917696D01*
X146295289Y-81975711D01*
X146353304Y-82023322D01*
X146419492Y-82058701D01*
X146491311Y-82080487D01*
X146560000Y-82087252D01*
X146560001Y-83610407D01*
X144591409Y-85579000D01*
X144449078Y-85579000D01*
X144298191Y-85609013D01*
X144156058Y-85667887D01*
X144028141Y-85753358D01*
X143919358Y-85862141D01*
X143833887Y-85990058D01*
X143775013Y-86132191D01*
X143745000Y-86283078D01*
X141608670Y-86283078D01*
X140991046Y-85665455D01*
X141060501Y-85596000D01*
X142469154Y-85596000D01*
X142494000Y-85598447D01*
X142518846Y-85596000D01*
X142518854Y-85596000D01*
X142593193Y-85588678D01*
X142688575Y-85559745D01*
X142776479Y-85512759D01*
X142853527Y-85449527D01*
X142869376Y-85430215D01*
X144866220Y-83433372D01*
X144885527Y-83417527D01*
X144948759Y-83340479D01*
X144995745Y-83252575D01*
X145024678Y-83157193D01*
X145032000Y-83082854D01*
X145032000Y-83082846D01*
X145034447Y-83058000D01*
X145032000Y-83033154D01*
X145032000Y-82087252D01*
X145100689Y-82080487D01*
X145172508Y-82058701D01*
X145238696Y-82023322D01*
X145296711Y-81975711D01*
X145344322Y-81917696D01*
X145379701Y-81851508D01*
X145401487Y-81779689D01*
X145408843Y-81705000D01*
X145408843Y-79205000D01*
X145401487Y-79130311D01*
X145379701Y-79058492D01*
X145344322Y-78992304D01*
X145296711Y-78934289D01*
X145238696Y-78886678D01*
X145172508Y-78851299D01*
X145100689Y-78829513D01*
X145026000Y-78822157D01*
X144026000Y-78822157D01*
X143951311Y-78829513D01*
X143879492Y-78851299D01*
X143813304Y-78886678D01*
X143755289Y-78934289D01*
X143707678Y-78992304D01*
X143672299Y-79058492D01*
X143650513Y-79130311D01*
X143643157Y-79205000D01*
X143643157Y-81705000D01*
X143650513Y-81779689D01*
X143672299Y-81851508D01*
X143707678Y-81917696D01*
X143755289Y-81975711D01*
X143813304Y-82023322D01*
X143879492Y-82058701D01*
X143951311Y-82080487D01*
X144020001Y-82087252D01*
X144020001Y-82848407D01*
X142284409Y-84584000D01*
X141060501Y-84584000D01*
X140959859Y-84483358D01*
X140831942Y-84397887D01*
X140689809Y-84339013D01*
X140538922Y-84309000D01*
X140385078Y-84309000D01*
X140234191Y-84339013D01*
X140092058Y-84397887D01*
X139964141Y-84483358D01*
X139855358Y-84592141D01*
X139769887Y-84720058D01*
X139711013Y-84862191D01*
X139681000Y-85013078D01*
X139681000Y-85166922D01*
X139711013Y-85317809D01*
X139769887Y-85459942D01*
X139855358Y-85587859D01*
X139956001Y-85688502D01*
X139956001Y-85827144D01*
X139953553Y-85852000D01*
X139963322Y-85951192D01*
X139992255Y-86046574D01*
X139992256Y-86046575D01*
X140039242Y-86134479D01*
X140102474Y-86211527D01*
X140121781Y-86227372D01*
X142692230Y-88797822D01*
X142681157Y-88910250D01*
X142681157Y-89397750D01*
X142693197Y-89519992D01*
X142728854Y-89637537D01*
X142786757Y-89745866D01*
X142864682Y-89840818D01*
X142959634Y-89918743D01*
X143067963Y-89976646D01*
X143185508Y-90012303D01*
X143307750Y-90024343D01*
X144053065Y-90024343D01*
X143918751Y-90158657D01*
X143307750Y-90158657D01*
X143185508Y-90170697D01*
X143067963Y-90206354D01*
X142959634Y-90264257D01*
X142864682Y-90342182D01*
X142786757Y-90437134D01*
X142728854Y-90545463D01*
X142693197Y-90663008D01*
X142681157Y-90785250D01*
X142681157Y-91272750D01*
X142693197Y-91394992D01*
X142728854Y-91512537D01*
X142786757Y-91620866D01*
X142864682Y-91715818D01*
X142959634Y-91793743D01*
X143067963Y-91851646D01*
X143185508Y-91887303D01*
X143258001Y-91894443D01*
X143258001Y-91923144D01*
X143255553Y-91948000D01*
X143265322Y-92047192D01*
X143294255Y-92142574D01*
X143316127Y-92183492D01*
X143341242Y-92230479D01*
X143404474Y-92307527D01*
X143423781Y-92323372D01*
X146182628Y-95082220D01*
X146198473Y-95101527D01*
X146275521Y-95164759D01*
X146363423Y-95211744D01*
X146363425Y-95211745D01*
X146458807Y-95240678D01*
X146558000Y-95250448D01*
X146582854Y-95248000D01*
X146813172Y-95248000D01*
X146830223Y-95268777D01*
X146910968Y-95335043D01*
X146989464Y-95377000D01*
X146910968Y-95418957D01*
X146830223Y-95485223D01*
X146813172Y-95506000D01*
X146513592Y-95506000D01*
X145409376Y-94401785D01*
X145393527Y-94382473D01*
X145316479Y-94319241D01*
X145228575Y-94272255D01*
X145133193Y-94243322D01*
X145058854Y-94236000D01*
X145058846Y-94236000D01*
X145034000Y-94233553D01*
X145009154Y-94236000D01*
X144400843Y-94236000D01*
X144400843Y-93850000D01*
X144393487Y-93775311D01*
X144371701Y-93703492D01*
X144336322Y-93637304D01*
X144288711Y-93579289D01*
X144230696Y-93531678D01*
X144164508Y-93496299D01*
X144092689Y-93474513D01*
X144018000Y-93467157D01*
X138938000Y-93467157D01*
X138863311Y-93474513D01*
X138791492Y-93496299D01*
X138725304Y-93531678D01*
X138682000Y-93567216D01*
X138682000Y-85045591D01*
X140396592Y-83331000D01*
X140538922Y-83331000D01*
X140689809Y-83300987D01*
X140831942Y-83242113D01*
X140959859Y-83156642D01*
X141068642Y-83047859D01*
X141154113Y-82919942D01*
X141212987Y-82777809D01*
X141243000Y-82626922D01*
X141243000Y-82473078D01*
X141212987Y-82322191D01*
X141154113Y-82180058D01*
X141068642Y-82052141D01*
X140991046Y-81974545D01*
X141128059Y-81837532D01*
X141132299Y-81851508D01*
X141167678Y-81917696D01*
X141215289Y-81975711D01*
X141273304Y-82023322D01*
X141339492Y-82058701D01*
X141411311Y-82080487D01*
X141486000Y-82087843D01*
X142486000Y-82087843D01*
X142560689Y-82080487D01*
X142632508Y-82058701D01*
X142698696Y-82023322D01*
X142756711Y-81975711D01*
X142804322Y-81917696D01*
X142839701Y-81851508D01*
X142861487Y-81779689D01*
X142868843Y-81705000D01*
X142868843Y-79205000D01*
X142861487Y-79130311D01*
X142839701Y-79058492D01*
X142804322Y-78992304D01*
X142756711Y-78934289D01*
X142698696Y-78886678D01*
X142632508Y-78851299D01*
X142560689Y-78829513D01*
X142486000Y-78822157D01*
X141486000Y-78822157D01*
X141411311Y-78829513D01*
X141339492Y-78851299D01*
X141273304Y-78886678D01*
X141215289Y-78934289D01*
X141167678Y-78992304D01*
X141132299Y-79058492D01*
X141110513Y-79130311D01*
X141103157Y-79205000D01*
X141103157Y-80431251D01*
X140121785Y-81412624D01*
X140102473Y-81428473D01*
X140039241Y-81505521D01*
X139992255Y-81593426D01*
X139963322Y-81688808D01*
X139956000Y-81763147D01*
X139956000Y-81763154D01*
X139953553Y-81788000D01*
X139956000Y-81812847D01*
X139956000Y-81951499D01*
X139855358Y-82052141D01*
X139769887Y-82180058D01*
X139711013Y-82322191D01*
X139681000Y-82473078D01*
X139681000Y-82615408D01*
X137835785Y-84460624D01*
X137816473Y-84476473D01*
X137753241Y-84553521D01*
X137706255Y-84641426D01*
X137677322Y-84736808D01*
X137670000Y-84811147D01*
X137670000Y-84811154D01*
X137667553Y-84836000D01*
X137670000Y-84860846D01*
X137670001Y-96115144D01*
X137667553Y-96140000D01*
X137677322Y-96239192D01*
X137706255Y-96334574D01*
X137715808Y-96352446D01*
X137753242Y-96422479D01*
X137816474Y-96499527D01*
X137835781Y-96515372D01*
X139115157Y-97794748D01*
X139115157Y-101420000D01*
X139122513Y-101494689D01*
X139144299Y-101566508D01*
X139179678Y-101632696D01*
X139227289Y-101690711D01*
X139285304Y-101738322D01*
X139351492Y-101773701D01*
X139423311Y-101795487D01*
X139498000Y-101802843D01*
X143458000Y-101802843D01*
X143532689Y-101795487D01*
X143604508Y-101773701D01*
X143670696Y-101738322D01*
X143728711Y-101690711D01*
X143776322Y-101632696D01*
X143811701Y-101566508D01*
X143833487Y-101494689D01*
X143840843Y-101420000D01*
X143840843Y-99948000D01*
X144119154Y-99948000D01*
X144144000Y-99950447D01*
X144168846Y-99948000D01*
X144168854Y-99948000D01*
X144243193Y-99940678D01*
X144338575Y-99911745D01*
X144426479Y-99864759D01*
X144503527Y-99801527D01*
X144519376Y-99782215D01*
X146513592Y-97788000D01*
X146813172Y-97788000D01*
X146830223Y-97808777D01*
X146910968Y-97875043D01*
X146989464Y-97917000D01*
X146910968Y-97958957D01*
X146830223Y-98025223D01*
X146763957Y-98105968D01*
X146714717Y-98198090D01*
X146684395Y-98298047D01*
X146674157Y-98402000D01*
X146674157Y-98702000D01*
X146684395Y-98805953D01*
X146714717Y-98905910D01*
X146763957Y-98998032D01*
X146830223Y-99078777D01*
X146910968Y-99145043D01*
X146989464Y-99187000D01*
X146910968Y-99228957D01*
X146830223Y-99295223D01*
X146763957Y-99375968D01*
X146714717Y-99468090D01*
X146684395Y-99568047D01*
X146674157Y-99672000D01*
X146674157Y-99972000D01*
X146684395Y-100075953D01*
X146714717Y-100175910D01*
X146763957Y-100268032D01*
X146830223Y-100348777D01*
X146910968Y-100415043D01*
X146989464Y-100457000D01*
X146910968Y-100498957D01*
X146830223Y-100565223D01*
X146763957Y-100645968D01*
X146714717Y-100738090D01*
X146684395Y-100838047D01*
X146674157Y-100942000D01*
X146674157Y-101242000D01*
X146684395Y-101345953D01*
X146714717Y-101445910D01*
X146763957Y-101538032D01*
X146830223Y-101618777D01*
X146910968Y-101685043D01*
X146989464Y-101727000D01*
X146910968Y-101768957D01*
X146830223Y-101835223D01*
X146763957Y-101915968D01*
X146714717Y-102008090D01*
X146684395Y-102108047D01*
X146674157Y-102212000D01*
X146674157Y-102512000D01*
X146684395Y-102615953D01*
X146714717Y-102715910D01*
X146763957Y-102808032D01*
X146830223Y-102888777D01*
X146910968Y-102955043D01*
X147003090Y-103004283D01*
X147103047Y-103034605D01*
X147207000Y-103044843D01*
X147576000Y-103044843D01*
X147576001Y-103676407D01*
X147385408Y-103867000D01*
X147243078Y-103867000D01*
X147092191Y-103897013D01*
X146950058Y-103955887D01*
X146822141Y-104041358D01*
X146713358Y-104150141D01*
X146627887Y-104278058D01*
X146569013Y-104420191D01*
X146539000Y-104571078D01*
X146539000Y-104724922D01*
X146569013Y-104875809D01*
X146627887Y-105017942D01*
X146713358Y-105145859D01*
X146822141Y-105254642D01*
X146950058Y-105340113D01*
X147092191Y-105398987D01*
X147243078Y-105429000D01*
X147385409Y-105429000D01*
X148243001Y-106286593D01*
X148243001Y-106916501D01*
X148157097Y-106859102D01*
X147933069Y-106766307D01*
X147695243Y-106719000D01*
X147452757Y-106719000D01*
X147214931Y-106766307D01*
X146990903Y-106859102D01*
X146789283Y-106993820D01*
X146710000Y-107073103D01*
X146710000Y-106699941D01*
X146711964Y-106680000D01*
X146704125Y-106600410D01*
X146680910Y-106523879D01*
X146643210Y-106453347D01*
X146592474Y-106391526D01*
X146530653Y-106340790D01*
X146460121Y-106303090D01*
X146383590Y-106279875D01*
X146323941Y-106274000D01*
X146323940Y-106274000D01*
X146304000Y-106272036D01*
X146284059Y-106274000D01*
X137328171Y-106274000D01*
X136296000Y-105241831D01*
X136296000Y-103250000D01*
X138555157Y-103250000D01*
X138555157Y-105030000D01*
X138562513Y-105104689D01*
X138584299Y-105176508D01*
X138619678Y-105242696D01*
X138667289Y-105300711D01*
X138725304Y-105348322D01*
X138791492Y-105383701D01*
X138863311Y-105405487D01*
X138938000Y-105412843D01*
X144018000Y-105412843D01*
X144092689Y-105405487D01*
X144164508Y-105383701D01*
X144230696Y-105348322D01*
X144288711Y-105300711D01*
X144336322Y-105242696D01*
X144371701Y-105176508D01*
X144393487Y-105104689D01*
X144400843Y-105030000D01*
X144400843Y-103250000D01*
X144393487Y-103175311D01*
X144371701Y-103103492D01*
X144336322Y-103037304D01*
X144288711Y-102979289D01*
X144230696Y-102931678D01*
X144164508Y-102896299D01*
X144092689Y-102874513D01*
X144018000Y-102867157D01*
X138938000Y-102867157D01*
X138863311Y-102874513D01*
X138791492Y-102896299D01*
X138725304Y-102931678D01*
X138667289Y-102979289D01*
X138619678Y-103037304D01*
X138584299Y-103103492D01*
X138562513Y-103175311D01*
X138555157Y-103250000D01*
X136296000Y-103250000D01*
X136296000Y-67478169D01*
X137328171Y-66446000D01*
X157565831Y-66446000D01*
X158598000Y-67478171D01*
G37*
X158598000Y-67478171D02*
X158598001Y-92915862D01*
X158553032Y-92878957D01*
X158460910Y-92829717D01*
X158360953Y-92799395D01*
X158257000Y-92789157D01*
X156507000Y-92789157D01*
X156403047Y-92799395D01*
X156303090Y-92829717D01*
X156210968Y-92878957D01*
X156130223Y-92945223D01*
X156063957Y-93025968D01*
X156014717Y-93118090D01*
X155984395Y-93218047D01*
X155974157Y-93322000D01*
X155974157Y-93622000D01*
X155976513Y-93645921D01*
X154684000Y-92353409D01*
X154684000Y-89940854D01*
X154686448Y-89916000D01*
X154676678Y-89816807D01*
X154647745Y-89721425D01*
X154640592Y-89708043D01*
X154600759Y-89633521D01*
X154537527Y-89556473D01*
X154518220Y-89540628D01*
X153791376Y-88813785D01*
X153775527Y-88794473D01*
X153698479Y-88731241D01*
X153610575Y-88684255D01*
X153515193Y-88655322D01*
X153440854Y-88648000D01*
X153440846Y-88648000D01*
X153416000Y-88645553D01*
X153391154Y-88648000D01*
X153169139Y-88648000D01*
X153123243Y-88562134D01*
X153045318Y-88467182D01*
X152950366Y-88389257D01*
X152842037Y-88331354D01*
X152724492Y-88295697D01*
X152602250Y-88283657D01*
X151689750Y-88283657D01*
X151567508Y-88295697D01*
X151449963Y-88331354D01*
X151341634Y-88389257D01*
X151246682Y-88467182D01*
X151168757Y-88562134D01*
X151122861Y-88648000D01*
X148851139Y-88648000D01*
X148805243Y-88562134D01*
X148727318Y-88467182D01*
X148632366Y-88389257D01*
X148524037Y-88331354D01*
X148406492Y-88295697D01*
X148284250Y-88283657D01*
X147371750Y-88283657D01*
X147249508Y-88295697D01*
X147131963Y-88331354D01*
X147023634Y-88389257D01*
X146928682Y-88467182D01*
X146850757Y-88562134D01*
X146804861Y-88648000D01*
X144787139Y-88648000D01*
X144741243Y-88562134D01*
X144663318Y-88467182D01*
X144568366Y-88389257D01*
X144460037Y-88331354D01*
X144342492Y-88295697D01*
X144220250Y-88283657D01*
X143609249Y-88283657D01*
X141608670Y-86283078D01*
X143745000Y-86283078D01*
X143745000Y-86436922D01*
X143775013Y-86587809D01*
X143833887Y-86729942D01*
X143919358Y-86857859D01*
X144028141Y-86966642D01*
X144156058Y-87052113D01*
X144298191Y-87110987D01*
X144449078Y-87141000D01*
X144602922Y-87141000D01*
X144753809Y-87110987D01*
X144895942Y-87052113D01*
X145023859Y-86966642D01*
X145132642Y-86857859D01*
X145218113Y-86729942D01*
X145276987Y-86587809D01*
X145307000Y-86436922D01*
X145307000Y-86294591D01*
X145318513Y-86283078D01*
X146285000Y-86283078D01*
X146285000Y-86436922D01*
X146315013Y-86587809D01*
X146373887Y-86729942D01*
X146459358Y-86857859D01*
X146568141Y-86966642D01*
X146696058Y-87052113D01*
X146838191Y-87110987D01*
X146989078Y-87141000D01*
X147142922Y-87141000D01*
X147293809Y-87110987D01*
X147435942Y-87052113D01*
X147563859Y-86966642D01*
X147672642Y-86857859D01*
X147758113Y-86729942D01*
X147816987Y-86587809D01*
X147847000Y-86436922D01*
X147847000Y-86294591D01*
X147858513Y-86283078D01*
X148825000Y-86283078D01*
X148825000Y-86436922D01*
X148855013Y-86587809D01*
X148913887Y-86729942D01*
X148999358Y-86857859D01*
X149108141Y-86966642D01*
X149236058Y-87052113D01*
X149378191Y-87110987D01*
X149529078Y-87141000D01*
X149682922Y-87141000D01*
X149833809Y-87110987D01*
X149975942Y-87052113D01*
X150103859Y-86966642D01*
X150212642Y-86857859D01*
X150298113Y-86729942D01*
X150356987Y-86587809D01*
X150387000Y-86436922D01*
X150387000Y-86294591D01*
X150398513Y-86283078D01*
X151365000Y-86283078D01*
X151365000Y-86436922D01*
X151395013Y-86587809D01*
X151453887Y-86729942D01*
X151539358Y-86857859D01*
X151648141Y-86966642D01*
X151776058Y-87052113D01*
X151918191Y-87110987D01*
X152069078Y-87141000D01*
X152222922Y-87141000D01*
X152373809Y-87110987D01*
X152515942Y-87052113D01*
X152643859Y-86966642D01*
X152752642Y-86857859D01*
X152838113Y-86729942D01*
X152896987Y-86587809D01*
X152927000Y-86436922D01*
X152927000Y-86294591D01*
X152938513Y-86283078D01*
X153905000Y-86283078D01*
X153905000Y-86436922D01*
X153935013Y-86587809D01*
X153993887Y-86729942D01*
X154079358Y-86857859D01*
X154188141Y-86966642D01*
X154316058Y-87052113D01*
X154458191Y-87110987D01*
X154609078Y-87141000D01*
X154762922Y-87141000D01*
X154913809Y-87110987D01*
X155055942Y-87052113D01*
X155183859Y-86966642D01*
X155292642Y-86857859D01*
X155378113Y-86729942D01*
X155436987Y-86587809D01*
X155467000Y-86436922D01*
X155467000Y-86294591D01*
X157566220Y-84195372D01*
X157585527Y-84179527D01*
X157648759Y-84102479D01*
X157695745Y-84014575D01*
X157724678Y-83919193D01*
X157732000Y-83844854D01*
X157732000Y-83844847D01*
X157734447Y-83820001D01*
X157732000Y-83795155D01*
X157732000Y-82087252D01*
X157800689Y-82080487D01*
X157872508Y-82058701D01*
X157938696Y-82023322D01*
X157996711Y-81975711D01*
X158044322Y-81917696D01*
X158079701Y-81851508D01*
X158101487Y-81779689D01*
X158108843Y-81705000D01*
X158108843Y-79205000D01*
X158101487Y-79130311D01*
X158079701Y-79058492D01*
X158044322Y-78992304D01*
X157996711Y-78934289D01*
X157938696Y-78886678D01*
X157872508Y-78851299D01*
X157800689Y-78829513D01*
X157726000Y-78822157D01*
X156726000Y-78822157D01*
X156651311Y-78829513D01*
X156579492Y-78851299D01*
X156513304Y-78886678D01*
X156455289Y-78934289D01*
X156407678Y-78992304D01*
X156372299Y-79058492D01*
X156350513Y-79130311D01*
X156343157Y-79205000D01*
X156343157Y-81705000D01*
X156350513Y-81779689D01*
X156372299Y-81851508D01*
X156407678Y-81917696D01*
X156455289Y-81975711D01*
X156513304Y-82023322D01*
X156579492Y-82058701D01*
X156651311Y-82080487D01*
X156720000Y-82087252D01*
X156720001Y-83610407D01*
X154751409Y-85579000D01*
X154609078Y-85579000D01*
X154458191Y-85609013D01*
X154316058Y-85667887D01*
X154188141Y-85753358D01*
X154079358Y-85862141D01*
X153993887Y-85990058D01*
X153935013Y-86132191D01*
X153905000Y-86283078D01*
X152938513Y-86283078D01*
X155026220Y-84195372D01*
X155045527Y-84179527D01*
X155108759Y-84102479D01*
X155155745Y-84014575D01*
X155184678Y-83919193D01*
X155192000Y-83844854D01*
X155192000Y-83844847D01*
X155194447Y-83820001D01*
X155192000Y-83795155D01*
X155192000Y-82087252D01*
X155260689Y-82080487D01*
X155332508Y-82058701D01*
X155398696Y-82023322D01*
X155456711Y-81975711D01*
X155504322Y-81917696D01*
X155539701Y-81851508D01*
X155561487Y-81779689D01*
X155568843Y-81705000D01*
X155568843Y-79205000D01*
X155561487Y-79130311D01*
X155539701Y-79058492D01*
X155504322Y-78992304D01*
X155456711Y-78934289D01*
X155398696Y-78886678D01*
X155332508Y-78851299D01*
X155260689Y-78829513D01*
X155186000Y-78822157D01*
X154186000Y-78822157D01*
X154111311Y-78829513D01*
X154039492Y-78851299D01*
X153973304Y-78886678D01*
X153915289Y-78934289D01*
X153867678Y-78992304D01*
X153832299Y-79058492D01*
X153810513Y-79130311D01*
X153803157Y-79205000D01*
X153803157Y-81705000D01*
X153810513Y-81779689D01*
X153832299Y-81851508D01*
X153867678Y-81917696D01*
X153915289Y-81975711D01*
X153973304Y-82023322D01*
X154039492Y-82058701D01*
X154111311Y-82080487D01*
X154180000Y-82087252D01*
X154180001Y-83610407D01*
X152211409Y-85579000D01*
X152069078Y-85579000D01*
X151918191Y-85609013D01*
X151776058Y-85667887D01*
X151648141Y-85753358D01*
X151539358Y-85862141D01*
X151453887Y-85990058D01*
X151395013Y-86132191D01*
X151365000Y-86283078D01*
X150398513Y-86283078D01*
X152486220Y-84195372D01*
X152505527Y-84179527D01*
X152568759Y-84102479D01*
X152615745Y-84014575D01*
X152644678Y-83919193D01*
X152652000Y-83844854D01*
X152652000Y-83844847D01*
X152654447Y-83820001D01*
X152652000Y-83795155D01*
X152652000Y-82087252D01*
X152720689Y-82080487D01*
X152792508Y-82058701D01*
X152858696Y-82023322D01*
X152916711Y-81975711D01*
X152964322Y-81917696D01*
X152999701Y-81851508D01*
X153021487Y-81779689D01*
X153028843Y-81705000D01*
X153028843Y-79205000D01*
X153021487Y-79130311D01*
X152999701Y-79058492D01*
X152964322Y-78992304D01*
X152916711Y-78934289D01*
X152858696Y-78886678D01*
X152792508Y-78851299D01*
X152720689Y-78829513D01*
X152646000Y-78822157D01*
X151646000Y-78822157D01*
X151571311Y-78829513D01*
X151499492Y-78851299D01*
X151433304Y-78886678D01*
X151375289Y-78934289D01*
X151327678Y-78992304D01*
X151292299Y-79058492D01*
X151270513Y-79130311D01*
X151263157Y-79205000D01*
X151263157Y-81705000D01*
X151270513Y-81779689D01*
X151292299Y-81851508D01*
X151327678Y-81917696D01*
X151375289Y-81975711D01*
X151433304Y-82023322D01*
X151499492Y-82058701D01*
X151571311Y-82080487D01*
X151640000Y-82087252D01*
X151640001Y-83610407D01*
X149671409Y-85579000D01*
X149529078Y-85579000D01*
X149378191Y-85609013D01*
X149236058Y-85667887D01*
X149108141Y-85753358D01*
X148999358Y-85862141D01*
X148913887Y-85990058D01*
X148855013Y-86132191D01*
X148825000Y-86283078D01*
X147858513Y-86283078D01*
X149946220Y-84195372D01*
X149965527Y-84179527D01*
X150028759Y-84102479D01*
X150075745Y-84014575D01*
X150104678Y-83919193D01*
X150112000Y-83844854D01*
X150112000Y-83844847D01*
X150114447Y-83820001D01*
X150112000Y-83795155D01*
X150112000Y-82087252D01*
X150180689Y-82080487D01*
X150252508Y-82058701D01*
X150318696Y-82023322D01*
X150376711Y-81975711D01*
X150424322Y-81917696D01*
X150459701Y-81851508D01*
X150481487Y-81779689D01*
X150488843Y-81705000D01*
X150488843Y-79205000D01*
X150481487Y-79130311D01*
X150459701Y-79058492D01*
X150424322Y-78992304D01*
X150376711Y-78934289D01*
X150318696Y-78886678D01*
X150252508Y-78851299D01*
X150180689Y-78829513D01*
X150106000Y-78822157D01*
X149106000Y-78822157D01*
X149031311Y-78829513D01*
X148959492Y-78851299D01*
X148893304Y-78886678D01*
X148835289Y-78934289D01*
X148787678Y-78992304D01*
X148752299Y-79058492D01*
X148730513Y-79130311D01*
X148723157Y-79205000D01*
X148723157Y-81705000D01*
X148730513Y-81779689D01*
X148752299Y-81851508D01*
X148787678Y-81917696D01*
X148835289Y-81975711D01*
X148893304Y-82023322D01*
X148959492Y-82058701D01*
X149031311Y-82080487D01*
X149100000Y-82087252D01*
X149100001Y-83610407D01*
X147131409Y-85579000D01*
X146989078Y-85579000D01*
X146838191Y-85609013D01*
X146696058Y-85667887D01*
X146568141Y-85753358D01*
X146459358Y-85862141D01*
X146373887Y-85990058D01*
X146315013Y-86132191D01*
X146285000Y-86283078D01*
X145318513Y-86283078D01*
X147406220Y-84195372D01*
X147425527Y-84179527D01*
X147488759Y-84102479D01*
X147535745Y-84014575D01*
X147564678Y-83919193D01*
X147572000Y-83844854D01*
X147572000Y-83844847D01*
X147574447Y-83820001D01*
X147572000Y-83795155D01*
X147572000Y-82087252D01*
X147640689Y-82080487D01*
X147712508Y-82058701D01*
X147778696Y-82023322D01*
X147836711Y-81975711D01*
X147884322Y-81917696D01*
X147919701Y-81851508D01*
X147941487Y-81779689D01*
X147948843Y-81705000D01*
X147948843Y-79205000D01*
X147941487Y-79130311D01*
X147919701Y-79058492D01*
X147884322Y-78992304D01*
X147836711Y-78934289D01*
X147778696Y-78886678D01*
X147712508Y-78851299D01*
X147640689Y-78829513D01*
X147566000Y-78822157D01*
X146566000Y-78822157D01*
X146491311Y-78829513D01*
X146419492Y-78851299D01*
X146353304Y-78886678D01*
X146295289Y-78934289D01*
X146247678Y-78992304D01*
X146212299Y-79058492D01*
X146190513Y-79130311D01*
X146183157Y-79205000D01*
X146183157Y-81705000D01*
X146190513Y-81779689D01*
X146212299Y-81851508D01*
X146247678Y-81917696D01*
X146295289Y-81975711D01*
X146353304Y-82023322D01*
X146419492Y-82058701D01*
X146491311Y-82080487D01*
X146560000Y-82087252D01*
X146560001Y-83610407D01*
X144591409Y-85579000D01*
X144449078Y-85579000D01*
X144298191Y-85609013D01*
X144156058Y-85667887D01*
X144028141Y-85753358D01*
X143919358Y-85862141D01*
X143833887Y-85990058D01*
X143775013Y-86132191D01*
X143745000Y-86283078D01*
X141608670Y-86283078D01*
X140991046Y-85665455D01*
X141060501Y-85596000D01*
X142469154Y-85596000D01*
X142494000Y-85598447D01*
X142518846Y-85596000D01*
X142518854Y-85596000D01*
X142593193Y-85588678D01*
X142688575Y-85559745D01*
X142776479Y-85512759D01*
X142853527Y-85449527D01*
X142869376Y-85430215D01*
X144866220Y-83433372D01*
X144885527Y-83417527D01*
X144948759Y-83340479D01*
X144995745Y-83252575D01*
X145024678Y-83157193D01*
X145032000Y-83082854D01*
X145032000Y-83082846D01*
X145034447Y-83058000D01*
X145032000Y-83033154D01*
X145032000Y-82087252D01*
X145100689Y-82080487D01*
X145172508Y-82058701D01*
X145238696Y-82023322D01*
X145296711Y-81975711D01*
X145344322Y-81917696D01*
X145379701Y-81851508D01*
X145401487Y-81779689D01*
X145408843Y-81705000D01*
X145408843Y-79205000D01*
X145401487Y-79130311D01*
X145379701Y-79058492D01*
X145344322Y-78992304D01*
X145296711Y-78934289D01*
X145238696Y-78886678D01*
X145172508Y-78851299D01*
X145100689Y-78829513D01*
X145026000Y-78822157D01*
X144026000Y-78822157D01*
X143951311Y-78829513D01*
X143879492Y-78851299D01*
X143813304Y-78886678D01*
X143755289Y-78934289D01*
X143707678Y-78992304D01*
X143672299Y-79058492D01*
X143650513Y-79130311D01*
X143643157Y-79205000D01*
X143643157Y-81705000D01*
X143650513Y-81779689D01*
X143672299Y-81851508D01*
X143707678Y-81917696D01*
X143755289Y-81975711D01*
X143813304Y-82023322D01*
X143879492Y-82058701D01*
X143951311Y-82080487D01*
X144020001Y-82087252D01*
X144020001Y-82848407D01*
X142284409Y-84584000D01*
X141060501Y-84584000D01*
X140959859Y-84483358D01*
X140831942Y-84397887D01*
X140689809Y-84339013D01*
X140538922Y-84309000D01*
X140385078Y-84309000D01*
X140234191Y-84339013D01*
X140092058Y-84397887D01*
X139964141Y-84483358D01*
X139855358Y-84592141D01*
X139769887Y-84720058D01*
X139711013Y-84862191D01*
X139681000Y-85013078D01*
X139681000Y-85166922D01*
X139711013Y-85317809D01*
X139769887Y-85459942D01*
X139855358Y-85587859D01*
X139956001Y-85688502D01*
X139956001Y-85827144D01*
X139953553Y-85852000D01*
X139963322Y-85951192D01*
X139992255Y-86046574D01*
X139992256Y-86046575D01*
X140039242Y-86134479D01*
X140102474Y-86211527D01*
X140121781Y-86227372D01*
X142692230Y-88797822D01*
X142681157Y-88910250D01*
X142681157Y-89397750D01*
X142693197Y-89519992D01*
X142728854Y-89637537D01*
X142786757Y-89745866D01*
X142864682Y-89840818D01*
X142959634Y-89918743D01*
X143067963Y-89976646D01*
X143185508Y-90012303D01*
X143307750Y-90024343D01*
X144053065Y-90024343D01*
X143918751Y-90158657D01*
X143307750Y-90158657D01*
X143185508Y-90170697D01*
X143067963Y-90206354D01*
X142959634Y-90264257D01*
X142864682Y-90342182D01*
X142786757Y-90437134D01*
X142728854Y-90545463D01*
X142693197Y-90663008D01*
X142681157Y-90785250D01*
X142681157Y-91272750D01*
X142693197Y-91394992D01*
X142728854Y-91512537D01*
X142786757Y-91620866D01*
X142864682Y-91715818D01*
X142959634Y-91793743D01*
X143067963Y-91851646D01*
X143185508Y-91887303D01*
X143258001Y-91894443D01*
X143258001Y-91923144D01*
X143255553Y-91948000D01*
X143265322Y-92047192D01*
X143294255Y-92142574D01*
X143316127Y-92183492D01*
X143341242Y-92230479D01*
X143404474Y-92307527D01*
X143423781Y-92323372D01*
X146182628Y-95082220D01*
X146198473Y-95101527D01*
X146275521Y-95164759D01*
X146363423Y-95211744D01*
X146363425Y-95211745D01*
X146458807Y-95240678D01*
X146558000Y-95250448D01*
X146582854Y-95248000D01*
X146813172Y-95248000D01*
X146830223Y-95268777D01*
X146910968Y-95335043D01*
X146989464Y-95377000D01*
X146910968Y-95418957D01*
X146830223Y-95485223D01*
X146813172Y-95506000D01*
X146513592Y-95506000D01*
X145409376Y-94401785D01*
X145393527Y-94382473D01*
X145316479Y-94319241D01*
X145228575Y-94272255D01*
X145133193Y-94243322D01*
X145058854Y-94236000D01*
X145058846Y-94236000D01*
X145034000Y-94233553D01*
X145009154Y-94236000D01*
X144400843Y-94236000D01*
X144400843Y-93850000D01*
X144393487Y-93775311D01*
X144371701Y-93703492D01*
X144336322Y-93637304D01*
X144288711Y-93579289D01*
X144230696Y-93531678D01*
X144164508Y-93496299D01*
X144092689Y-93474513D01*
X144018000Y-93467157D01*
X138938000Y-93467157D01*
X138863311Y-93474513D01*
X138791492Y-93496299D01*
X138725304Y-93531678D01*
X138682000Y-93567216D01*
X138682000Y-85045591D01*
X140396592Y-83331000D01*
X140538922Y-83331000D01*
X140689809Y-83300987D01*
X140831942Y-83242113D01*
X140959859Y-83156642D01*
X141068642Y-83047859D01*
X141154113Y-82919942D01*
X141212987Y-82777809D01*
X141243000Y-82626922D01*
X141243000Y-82473078D01*
X141212987Y-82322191D01*
X141154113Y-82180058D01*
X141068642Y-82052141D01*
X140991046Y-81974545D01*
X141128059Y-81837532D01*
X141132299Y-81851508D01*
X141167678Y-81917696D01*
X141215289Y-81975711D01*
X141273304Y-82023322D01*
X141339492Y-82058701D01*
X141411311Y-82080487D01*
X141486000Y-82087843D01*
X142486000Y-82087843D01*
X142560689Y-82080487D01*
X142632508Y-82058701D01*
X142698696Y-82023322D01*
X142756711Y-81975711D01*
X142804322Y-81917696D01*
X142839701Y-81851508D01*
X142861487Y-81779689D01*
X142868843Y-81705000D01*
X142868843Y-79205000D01*
X142861487Y-79130311D01*
X142839701Y-79058492D01*
X142804322Y-78992304D01*
X142756711Y-78934289D01*
X142698696Y-78886678D01*
X142632508Y-78851299D01*
X142560689Y-78829513D01*
X142486000Y-78822157D01*
X141486000Y-78822157D01*
X141411311Y-78829513D01*
X141339492Y-78851299D01*
X141273304Y-78886678D01*
X141215289Y-78934289D01*
X141167678Y-78992304D01*
X141132299Y-79058492D01*
X141110513Y-79130311D01*
X141103157Y-79205000D01*
X141103157Y-80431251D01*
X140121785Y-81412624D01*
X140102473Y-81428473D01*
X140039241Y-81505521D01*
X139992255Y-81593426D01*
X139963322Y-81688808D01*
X139956000Y-81763147D01*
X139956000Y-81763154D01*
X139953553Y-81788000D01*
X139956000Y-81812847D01*
X139956000Y-81951499D01*
X139855358Y-82052141D01*
X139769887Y-82180058D01*
X139711013Y-82322191D01*
X139681000Y-82473078D01*
X139681000Y-82615408D01*
X137835785Y-84460624D01*
X137816473Y-84476473D01*
X137753241Y-84553521D01*
X137706255Y-84641426D01*
X137677322Y-84736808D01*
X137670000Y-84811147D01*
X137670000Y-84811154D01*
X137667553Y-84836000D01*
X137670000Y-84860846D01*
X137670001Y-96115144D01*
X137667553Y-96140000D01*
X137677322Y-96239192D01*
X137706255Y-96334574D01*
X137715808Y-96352446D01*
X137753242Y-96422479D01*
X137816474Y-96499527D01*
X137835781Y-96515372D01*
X139115157Y-97794748D01*
X139115157Y-101420000D01*
X139122513Y-101494689D01*
X139144299Y-101566508D01*
X139179678Y-101632696D01*
X139227289Y-101690711D01*
X139285304Y-101738322D01*
X139351492Y-101773701D01*
X139423311Y-101795487D01*
X139498000Y-101802843D01*
X143458000Y-101802843D01*
X143532689Y-101795487D01*
X143604508Y-101773701D01*
X143670696Y-101738322D01*
X143728711Y-101690711D01*
X143776322Y-101632696D01*
X143811701Y-101566508D01*
X143833487Y-101494689D01*
X143840843Y-101420000D01*
X143840843Y-99948000D01*
X144119154Y-99948000D01*
X144144000Y-99950447D01*
X144168846Y-99948000D01*
X144168854Y-99948000D01*
X144243193Y-99940678D01*
X144338575Y-99911745D01*
X144426479Y-99864759D01*
X144503527Y-99801527D01*
X144519376Y-99782215D01*
X146513592Y-97788000D01*
X146813172Y-97788000D01*
X146830223Y-97808777D01*
X146910968Y-97875043D01*
X146989464Y-97917000D01*
X146910968Y-97958957D01*
X146830223Y-98025223D01*
X146763957Y-98105968D01*
X146714717Y-98198090D01*
X146684395Y-98298047D01*
X146674157Y-98402000D01*
X146674157Y-98702000D01*
X146684395Y-98805953D01*
X146714717Y-98905910D01*
X146763957Y-98998032D01*
X146830223Y-99078777D01*
X146910968Y-99145043D01*
X146989464Y-99187000D01*
X146910968Y-99228957D01*
X146830223Y-99295223D01*
X146763957Y-99375968D01*
X146714717Y-99468090D01*
X146684395Y-99568047D01*
X146674157Y-99672000D01*
X146674157Y-99972000D01*
X146684395Y-100075953D01*
X146714717Y-100175910D01*
X146763957Y-100268032D01*
X146830223Y-100348777D01*
X146910968Y-100415043D01*
X146989464Y-100457000D01*
X146910968Y-100498957D01*
X146830223Y-100565223D01*
X146763957Y-100645968D01*
X146714717Y-100738090D01*
X146684395Y-100838047D01*
X146674157Y-100942000D01*
X146674157Y-101242000D01*
X146684395Y-101345953D01*
X146714717Y-101445910D01*
X146763957Y-101538032D01*
X146830223Y-101618777D01*
X146910968Y-101685043D01*
X146989464Y-101727000D01*
X146910968Y-101768957D01*
X146830223Y-101835223D01*
X146763957Y-101915968D01*
X146714717Y-102008090D01*
X146684395Y-102108047D01*
X146674157Y-102212000D01*
X146674157Y-102512000D01*
X146684395Y-102615953D01*
X146714717Y-102715910D01*
X146763957Y-102808032D01*
X146830223Y-102888777D01*
X146910968Y-102955043D01*
X147003090Y-103004283D01*
X147103047Y-103034605D01*
X147207000Y-103044843D01*
X147576000Y-103044843D01*
X147576001Y-103676407D01*
X147385408Y-103867000D01*
X147243078Y-103867000D01*
X147092191Y-103897013D01*
X146950058Y-103955887D01*
X146822141Y-104041358D01*
X146713358Y-104150141D01*
X146627887Y-104278058D01*
X146569013Y-104420191D01*
X146539000Y-104571078D01*
X146539000Y-104724922D01*
X146569013Y-104875809D01*
X146627887Y-105017942D01*
X146713358Y-105145859D01*
X146822141Y-105254642D01*
X146950058Y-105340113D01*
X147092191Y-105398987D01*
X147243078Y-105429000D01*
X147385409Y-105429000D01*
X148243001Y-106286593D01*
X148243001Y-106916501D01*
X148157097Y-106859102D01*
X147933069Y-106766307D01*
X147695243Y-106719000D01*
X147452757Y-106719000D01*
X147214931Y-106766307D01*
X146990903Y-106859102D01*
X146789283Y-106993820D01*
X146710000Y-107073103D01*
X146710000Y-106699941D01*
X146711964Y-106680000D01*
X146704125Y-106600410D01*
X146680910Y-106523879D01*
X146643210Y-106453347D01*
X146592474Y-106391526D01*
X146530653Y-106340790D01*
X146460121Y-106303090D01*
X146383590Y-106279875D01*
X146323941Y-106274000D01*
X146323940Y-106274000D01*
X146304000Y-106272036D01*
X146284059Y-106274000D01*
X137328171Y-106274000D01*
X136296000Y-105241831D01*
X136296000Y-103250000D01*
X138555157Y-103250000D01*
X138555157Y-105030000D01*
X138562513Y-105104689D01*
X138584299Y-105176508D01*
X138619678Y-105242696D01*
X138667289Y-105300711D01*
X138725304Y-105348322D01*
X138791492Y-105383701D01*
X138863311Y-105405487D01*
X138938000Y-105412843D01*
X144018000Y-105412843D01*
X144092689Y-105405487D01*
X144164508Y-105383701D01*
X144230696Y-105348322D01*
X144288711Y-105300711D01*
X144336322Y-105242696D01*
X144371701Y-105176508D01*
X144393487Y-105104689D01*
X144400843Y-105030000D01*
X144400843Y-103250000D01*
X144393487Y-103175311D01*
X144371701Y-103103492D01*
X144336322Y-103037304D01*
X144288711Y-102979289D01*
X144230696Y-102931678D01*
X144164508Y-102896299D01*
X144092689Y-102874513D01*
X144018000Y-102867157D01*
X138938000Y-102867157D01*
X138863311Y-102874513D01*
X138791492Y-102896299D01*
X138725304Y-102931678D01*
X138667289Y-102979289D01*
X138619678Y-103037304D01*
X138584299Y-103103492D01*
X138562513Y-103175311D01*
X138555157Y-103250000D01*
X136296000Y-103250000D01*
X136296000Y-67478169D01*
X137328171Y-66446000D01*
X157565831Y-66446000D01*
X158598000Y-67478171D01*
G36*
X150972999Y-96053591D02*
G01*
X150973000Y-107068103D01*
X150898717Y-106993820D01*
X150697097Y-106859102D01*
X150473069Y-106766307D01*
X150235243Y-106719000D01*
X149992757Y-106719000D01*
X149754931Y-106766307D01*
X149530903Y-106859102D01*
X149329283Y-106993820D01*
X149255001Y-107068102D01*
X149255001Y-106101855D01*
X149257449Y-106077001D01*
X149247679Y-105977808D01*
X149218746Y-105882426D01*
X149217313Y-105879745D01*
X149171760Y-105794522D01*
X149108528Y-105717474D01*
X149089221Y-105701629D01*
X148101000Y-104713409D01*
X148101000Y-104582592D01*
X148422220Y-104261372D01*
X148441527Y-104245527D01*
X148504759Y-104168479D01*
X148551745Y-104080575D01*
X148580678Y-103985193D01*
X148588000Y-103910854D01*
X148590448Y-103886000D01*
X148588000Y-103861146D01*
X148588000Y-103044843D01*
X148957000Y-103044843D01*
X149060953Y-103034605D01*
X149160910Y-103004283D01*
X149253032Y-102955043D01*
X149333777Y-102888777D01*
X149400043Y-102808032D01*
X149449283Y-102715910D01*
X149479605Y-102615953D01*
X149489843Y-102512000D01*
X149489843Y-102212000D01*
X149479605Y-102108047D01*
X149449283Y-102008090D01*
X149400043Y-101915968D01*
X149333777Y-101835223D01*
X149253032Y-101768957D01*
X149174536Y-101727000D01*
X149253032Y-101685043D01*
X149333777Y-101618777D01*
X149400043Y-101538032D01*
X149449283Y-101445910D01*
X149479605Y-101345953D01*
X149489843Y-101242000D01*
X149489843Y-100942000D01*
X149479605Y-100838047D01*
X149449283Y-100738090D01*
X149400043Y-100645968D01*
X149333777Y-100565223D01*
X149253032Y-100498957D01*
X149174536Y-100457000D01*
X149253032Y-100415043D01*
X149333777Y-100348777D01*
X149400043Y-100268032D01*
X149449283Y-100175910D01*
X149479605Y-100075953D01*
X149489843Y-99972000D01*
X149489843Y-99672000D01*
X149479605Y-99568047D01*
X149449283Y-99468090D01*
X149400043Y-99375968D01*
X149333777Y-99295223D01*
X149253032Y-99228957D01*
X149174536Y-99187000D01*
X149253032Y-99145043D01*
X149333777Y-99078777D01*
X149400043Y-98998032D01*
X149449283Y-98905910D01*
X149479605Y-98805953D01*
X149489843Y-98702000D01*
X149489843Y-98402000D01*
X149479605Y-98298047D01*
X149449283Y-98198090D01*
X149400043Y-98105968D01*
X149333777Y-98025223D01*
X149253032Y-97958957D01*
X149174536Y-97917000D01*
X149253032Y-97875043D01*
X149333777Y-97808777D01*
X149400043Y-97728032D01*
X149449283Y-97635910D01*
X149479605Y-97535953D01*
X149489843Y-97432000D01*
X149489843Y-97132000D01*
X149479605Y-97028047D01*
X149449283Y-96928090D01*
X149400043Y-96835968D01*
X149333777Y-96755223D01*
X149253032Y-96688957D01*
X149174536Y-96647000D01*
X149253032Y-96605043D01*
X149333777Y-96538777D01*
X149400043Y-96458032D01*
X149430459Y-96401127D01*
X149466527Y-96371527D01*
X149529759Y-96294479D01*
X149576745Y-96206575D01*
X149605678Y-96111193D01*
X149615448Y-96012000D01*
X149605678Y-95912807D01*
X149576745Y-95817425D01*
X149529759Y-95729521D01*
X149466527Y-95652473D01*
X149430459Y-95622873D01*
X149400043Y-95565968D01*
X149333777Y-95485223D01*
X149253032Y-95418957D01*
X149174536Y-95377000D01*
X149253032Y-95335043D01*
X149333777Y-95268777D01*
X149400043Y-95188032D01*
X149449283Y-95095910D01*
X149479605Y-94995953D01*
X149489843Y-94892000D01*
X149489843Y-94592000D01*
X149487487Y-94568078D01*
X150972999Y-96053591D01*
G37*
X150972999Y-96053591D02*
X150973000Y-107068103D01*
X150898717Y-106993820D01*
X150697097Y-106859102D01*
X150473069Y-106766307D01*
X150235243Y-106719000D01*
X149992757Y-106719000D01*
X149754931Y-106766307D01*
X149530903Y-106859102D01*
X149329283Y-106993820D01*
X149255001Y-107068102D01*
X149255001Y-106101855D01*
X149257449Y-106077001D01*
X149247679Y-105977808D01*
X149218746Y-105882426D01*
X149217313Y-105879745D01*
X149171760Y-105794522D01*
X149108528Y-105717474D01*
X149089221Y-105701629D01*
X148101000Y-104713409D01*
X148101000Y-104582592D01*
X148422220Y-104261372D01*
X148441527Y-104245527D01*
X148504759Y-104168479D01*
X148551745Y-104080575D01*
X148580678Y-103985193D01*
X148588000Y-103910854D01*
X148590448Y-103886000D01*
X148588000Y-103861146D01*
X148588000Y-103044843D01*
X148957000Y-103044843D01*
X149060953Y-103034605D01*
X149160910Y-103004283D01*
X149253032Y-102955043D01*
X149333777Y-102888777D01*
X149400043Y-102808032D01*
X149449283Y-102715910D01*
X149479605Y-102615953D01*
X149489843Y-102512000D01*
X149489843Y-102212000D01*
X149479605Y-102108047D01*
X149449283Y-102008090D01*
X149400043Y-101915968D01*
X149333777Y-101835223D01*
X149253032Y-101768957D01*
X149174536Y-101727000D01*
X149253032Y-101685043D01*
X149333777Y-101618777D01*
X149400043Y-101538032D01*
X149449283Y-101445910D01*
X149479605Y-101345953D01*
X149489843Y-101242000D01*
X149489843Y-100942000D01*
X149479605Y-100838047D01*
X149449283Y-100738090D01*
X149400043Y-100645968D01*
X149333777Y-100565223D01*
X149253032Y-100498957D01*
X149174536Y-100457000D01*
X149253032Y-100415043D01*
X149333777Y-100348777D01*
X149400043Y-100268032D01*
X149449283Y-100175910D01*
X149479605Y-100075953D01*
X149489843Y-99972000D01*
X149489843Y-99672000D01*
X149479605Y-99568047D01*
X149449283Y-99468090D01*
X149400043Y-99375968D01*
X149333777Y-99295223D01*
X149253032Y-99228957D01*
X149174536Y-99187000D01*
X149253032Y-99145043D01*
X149333777Y-99078777D01*
X149400043Y-98998032D01*
X149449283Y-98905910D01*
X149479605Y-98805953D01*
X149489843Y-98702000D01*
X149489843Y-98402000D01*
X149479605Y-98298047D01*
X149449283Y-98198090D01*
X149400043Y-98105968D01*
X149333777Y-98025223D01*
X149253032Y-97958957D01*
X149174536Y-97917000D01*
X149253032Y-97875043D01*
X149333777Y-97808777D01*
X149400043Y-97728032D01*
X149449283Y-97635910D01*
X149479605Y-97535953D01*
X149489843Y-97432000D01*
X149489843Y-97132000D01*
X149479605Y-97028047D01*
X149449283Y-96928090D01*
X149400043Y-96835968D01*
X149333777Y-96755223D01*
X149253032Y-96688957D01*
X149174536Y-96647000D01*
X149253032Y-96605043D01*
X149333777Y-96538777D01*
X149400043Y-96458032D01*
X149430459Y-96401127D01*
X149466527Y-96371527D01*
X149529759Y-96294479D01*
X149576745Y-96206575D01*
X149605678Y-96111193D01*
X149615448Y-96012000D01*
X149605678Y-95912807D01*
X149576745Y-95817425D01*
X149529759Y-95729521D01*
X149466527Y-95652473D01*
X149430459Y-95622873D01*
X149400043Y-95565968D01*
X149333777Y-95485223D01*
X149253032Y-95418957D01*
X149174536Y-95377000D01*
X149253032Y-95335043D01*
X149333777Y-95268777D01*
X149400043Y-95188032D01*
X149449283Y-95095910D01*
X149479605Y-94995953D01*
X149489843Y-94892000D01*
X149489843Y-94592000D01*
X149487487Y-94568078D01*
X150972999Y-96053591D01*
G36*
X157207000Y-105852591D02*
G01*
X157207000Y-105994922D01*
X157237013Y-106145809D01*
X157295887Y-106287942D01*
X157381358Y-106415859D01*
X157490141Y-106524642D01*
X157618058Y-106610113D01*
X157760191Y-106668987D01*
X157911078Y-106699000D01*
X158064922Y-106699000D01*
X158215809Y-106668987D01*
X158357942Y-106610113D01*
X158485859Y-106524642D01*
X158594642Y-106415859D01*
X158598001Y-106410832D01*
X158598001Y-106718536D01*
X158584000Y-106717157D01*
X157064999Y-106717157D01*
X157064999Y-105710590D01*
X157207000Y-105852591D01*
G37*
X157207000Y-105852591D02*
X157207000Y-105994922D01*
X157237013Y-106145809D01*
X157295887Y-106287942D01*
X157381358Y-106415859D01*
X157490141Y-106524642D01*
X157618058Y-106610113D01*
X157760191Y-106668987D01*
X157911078Y-106699000D01*
X158064922Y-106699000D01*
X158215809Y-106668987D01*
X158357942Y-106610113D01*
X158485859Y-106524642D01*
X158594642Y-106415859D01*
X158598001Y-106410832D01*
X158598001Y-106718536D01*
X158584000Y-106717157D01*
X157064999Y-106717157D01*
X157064999Y-105710590D01*
X157207000Y-105852591D01*
G36*
X158598001Y-105425168D02*
G01*
X158594642Y-105420141D01*
X158485859Y-105311358D01*
X158357942Y-105225887D01*
X158215809Y-105167013D01*
X158064922Y-105137000D01*
X157922591Y-105137000D01*
X157888000Y-105102409D01*
X157888000Y-103044843D01*
X158257000Y-103044843D01*
X158360953Y-103034605D01*
X158460910Y-103004283D01*
X158553032Y-102955043D01*
X158598001Y-102918138D01*
X158598001Y-105425168D01*
G37*
X158598001Y-105425168D02*
X158594642Y-105420141D01*
X158485859Y-105311358D01*
X158357942Y-105225887D01*
X158215809Y-105167013D01*
X158064922Y-105137000D01*
X157922591Y-105137000D01*
X157888000Y-105102409D01*
X157888000Y-103044843D01*
X158257000Y-103044843D01*
X158360953Y-103034605D01*
X158460910Y-103004283D01*
X158553032Y-102955043D01*
X158598001Y-102918138D01*
X158598001Y-105425168D01*
G36*
X156303090Y-103004283D02*
G01*
X156403047Y-103034605D01*
X156507000Y-103044843D01*
X156876000Y-103044843D01*
X156876001Y-104090409D01*
X156269500Y-103483909D01*
X156269500Y-102986329D01*
X156303090Y-103004283D01*
G37*
X156303090Y-103004283D02*
X156403047Y-103034605D01*
X156507000Y-103044843D01*
X156876000Y-103044843D01*
X156876001Y-104090409D01*
X156269500Y-103483909D01*
X156269500Y-102986329D01*
X156303090Y-103004283D01*
G36*
X158598001Y-101805862D02*
G01*
X158553032Y-101768957D01*
X158474536Y-101727000D01*
X158553032Y-101685043D01*
X158598001Y-101648138D01*
X158598001Y-101805862D01*
G37*
X158598001Y-101805862D02*
X158553032Y-101768957D01*
X158474536Y-101727000D01*
X158553032Y-101685043D01*
X158598001Y-101648138D01*
X158598001Y-101805862D01*
G36*
X156289464Y-101727000D02*
G01*
X156269500Y-101737671D01*
X156269500Y-101716329D01*
X156289464Y-101727000D01*
G37*
X156289464Y-101727000D02*
X156269500Y-101737671D01*
X156269500Y-101716329D01*
X156289464Y-101727000D01*
G36*
X158598001Y-100535862D02*
G01*
X158553032Y-100498957D01*
X158474536Y-100457000D01*
X158553032Y-100415043D01*
X158598001Y-100378138D01*
X158598001Y-100535862D01*
G37*
X158598001Y-100535862D02*
X158553032Y-100498957D01*
X158474536Y-100457000D01*
X158553032Y-100415043D01*
X158598001Y-100378138D01*
X158598001Y-100535862D01*
G36*
X156289464Y-100457000D02*
G01*
X156269500Y-100467671D01*
X156269500Y-100446329D01*
X156289464Y-100457000D01*
G37*
X156289464Y-100457000D02*
X156269500Y-100467671D01*
X156269500Y-100446329D01*
X156289464Y-100457000D01*
G36*
X158598001Y-99265862D02*
G01*
X158553032Y-99228957D01*
X158474536Y-99187000D01*
X158553032Y-99145043D01*
X158598001Y-99108138D01*
X158598001Y-99265862D01*
G37*
X158598001Y-99265862D02*
X158553032Y-99228957D01*
X158474536Y-99187000D01*
X158553032Y-99145043D01*
X158598001Y-99108138D01*
X158598001Y-99265862D01*
G36*
X156289464Y-99187000D02*
G01*
X156269500Y-99197671D01*
X156269500Y-99176329D01*
X156289464Y-99187000D01*
G37*
X156289464Y-99187000D02*
X156269500Y-99197671D01*
X156269500Y-99176329D01*
X156289464Y-99187000D01*
G36*
X145928628Y-96352220D02*
G01*
X145944473Y-96371527D01*
X146021521Y-96434759D01*
X146106574Y-96480221D01*
X146109425Y-96481745D01*
X146204806Y-96510678D01*
X146214694Y-96511652D01*
X146279146Y-96518000D01*
X146279153Y-96518000D01*
X146303999Y-96520447D01*
X146328845Y-96518000D01*
X146813172Y-96518000D01*
X146830223Y-96538777D01*
X146910968Y-96605043D01*
X146989464Y-96647000D01*
X146910968Y-96688957D01*
X146830223Y-96755223D01*
X146813172Y-96776000D01*
X146328845Y-96776000D01*
X146303999Y-96773553D01*
X146279153Y-96776000D01*
X146279146Y-96776000D01*
X146214694Y-96782348D01*
X146204806Y-96783322D01*
X146182607Y-96790056D01*
X146109425Y-96812255D01*
X146021521Y-96859241D01*
X145944473Y-96922473D01*
X145928628Y-96941780D01*
X143934409Y-98936000D01*
X143840843Y-98936000D01*
X143840843Y-97460000D01*
X143833487Y-97385311D01*
X143811701Y-97313492D01*
X143776322Y-97247304D01*
X143728711Y-97189289D01*
X143670696Y-97141678D01*
X143604508Y-97106299D01*
X143532689Y-97084513D01*
X143458000Y-97077157D01*
X139828748Y-97077157D01*
X138682000Y-95930409D01*
X138682000Y-95912784D01*
X138725304Y-95948322D01*
X138791492Y-95983701D01*
X138863311Y-96005487D01*
X138938000Y-96012843D01*
X144018000Y-96012843D01*
X144092689Y-96005487D01*
X144164508Y-95983701D01*
X144230696Y-95948322D01*
X144288711Y-95900711D01*
X144336322Y-95842696D01*
X144371701Y-95776508D01*
X144393487Y-95704689D01*
X144400843Y-95630000D01*
X144400843Y-95248000D01*
X144824409Y-95248000D01*
X145928628Y-96352220D01*
G37*
X145928628Y-96352220D02*
X145944473Y-96371527D01*
X146021521Y-96434759D01*
X146106574Y-96480221D01*
X146109425Y-96481745D01*
X146204806Y-96510678D01*
X146214694Y-96511652D01*
X146279146Y-96518000D01*
X146279153Y-96518000D01*
X146303999Y-96520447D01*
X146328845Y-96518000D01*
X146813172Y-96518000D01*
X146830223Y-96538777D01*
X146910968Y-96605043D01*
X146989464Y-96647000D01*
X146910968Y-96688957D01*
X146830223Y-96755223D01*
X146813172Y-96776000D01*
X146328845Y-96776000D01*
X146303999Y-96773553D01*
X146279153Y-96776000D01*
X146279146Y-96776000D01*
X146214694Y-96782348D01*
X146204806Y-96783322D01*
X146182607Y-96790056D01*
X146109425Y-96812255D01*
X146021521Y-96859241D01*
X145944473Y-96922473D01*
X145928628Y-96941780D01*
X143934409Y-98936000D01*
X143840843Y-98936000D01*
X143840843Y-97460000D01*
X143833487Y-97385311D01*
X143811701Y-97313492D01*
X143776322Y-97247304D01*
X143728711Y-97189289D01*
X143670696Y-97141678D01*
X143604508Y-97106299D01*
X143532689Y-97084513D01*
X143458000Y-97077157D01*
X139828748Y-97077157D01*
X138682000Y-95930409D01*
X138682000Y-95912784D01*
X138725304Y-95948322D01*
X138791492Y-95983701D01*
X138863311Y-96005487D01*
X138938000Y-96012843D01*
X144018000Y-96012843D01*
X144092689Y-96005487D01*
X144164508Y-95983701D01*
X144230696Y-95948322D01*
X144288711Y-95900711D01*
X144336322Y-95842696D01*
X144371701Y-95776508D01*
X144393487Y-95704689D01*
X144400843Y-95630000D01*
X144400843Y-95248000D01*
X144824409Y-95248000D01*
X145928628Y-96352220D01*
G36*
X154772269Y-95994859D02*
G01*
X154762922Y-95993000D01*
X154609078Y-95993000D01*
X154458191Y-96023013D01*
X154316058Y-96081887D01*
X154188141Y-96167358D01*
X154079358Y-96276141D01*
X153993887Y-96404058D01*
X153935013Y-96546191D01*
X153905000Y-96697078D01*
X153905000Y-96839408D01*
X152059781Y-98684628D01*
X152040474Y-98700473D01*
X151984999Y-98768069D01*
X151984999Y-95868844D01*
X151987446Y-95843998D01*
X151984999Y-95819152D01*
X151984999Y-95819145D01*
X151977677Y-95744806D01*
X151973041Y-95729521D01*
X151948744Y-95649424D01*
X151944413Y-95641322D01*
X151901758Y-95561520D01*
X151838526Y-95484472D01*
X151819219Y-95468627D01*
X149482376Y-93131785D01*
X149466527Y-93112473D01*
X149430459Y-93082873D01*
X149400043Y-93025968D01*
X149333777Y-92945223D01*
X149253032Y-92878957D01*
X149160910Y-92829717D01*
X149060953Y-92799395D01*
X148957000Y-92789157D01*
X148588000Y-92789157D01*
X148588000Y-91817457D01*
X148632366Y-91793743D01*
X148727318Y-91715818D01*
X148805243Y-91620866D01*
X148863146Y-91512537D01*
X148898803Y-91394992D01*
X148910843Y-91272750D01*
X148910843Y-90785250D01*
X148904662Y-90722490D01*
X149499901Y-90722490D01*
X154772269Y-95994859D01*
G37*
X154772269Y-95994859D02*
X154762922Y-95993000D01*
X154609078Y-95993000D01*
X154458191Y-96023013D01*
X154316058Y-96081887D01*
X154188141Y-96167358D01*
X154079358Y-96276141D01*
X153993887Y-96404058D01*
X153935013Y-96546191D01*
X153905000Y-96697078D01*
X153905000Y-96839408D01*
X152059781Y-98684628D01*
X152040474Y-98700473D01*
X151984999Y-98768069D01*
X151984999Y-95868844D01*
X151987446Y-95843998D01*
X151984999Y-95819152D01*
X151984999Y-95819145D01*
X151977677Y-95744806D01*
X151973041Y-95729521D01*
X151948744Y-95649424D01*
X151944413Y-95641322D01*
X151901758Y-95561520D01*
X151838526Y-95484472D01*
X151819219Y-95468627D01*
X149482376Y-93131785D01*
X149466527Y-93112473D01*
X149430459Y-93082873D01*
X149400043Y-93025968D01*
X149333777Y-92945223D01*
X149253032Y-92878957D01*
X149160910Y-92829717D01*
X149060953Y-92799395D01*
X148957000Y-92789157D01*
X148588000Y-92789157D01*
X148588000Y-91817457D01*
X148632366Y-91793743D01*
X148727318Y-91715818D01*
X148805243Y-91620866D01*
X148863146Y-91512537D01*
X148898803Y-91394992D01*
X148910843Y-91272750D01*
X148910843Y-90785250D01*
X148904662Y-90722490D01*
X149499901Y-90722490D01*
X154772269Y-95994859D01*
G36*
X158598001Y-97995862D02*
G01*
X158553032Y-97958957D01*
X158474536Y-97917000D01*
X158553032Y-97875043D01*
X158598001Y-97838138D01*
X158598001Y-97995862D01*
G37*
X158598001Y-97995862D02*
X158553032Y-97958957D01*
X158474536Y-97917000D01*
X158553032Y-97875043D01*
X158598001Y-97838138D01*
X158598001Y-97995862D01*
G36*
X156289464Y-97917000D02*
G01*
X156269500Y-97927671D01*
X156269500Y-97906329D01*
X156289464Y-97917000D01*
G37*
X156289464Y-97917000D02*
X156269500Y-97927671D01*
X156269500Y-97906329D01*
X156289464Y-97917000D01*
G36*
X155257501Y-97765000D02*
G01*
X155183859Y-97691358D01*
X155055942Y-97605887D01*
X154913809Y-97547013D01*
X154858442Y-97536000D01*
X154913809Y-97524987D01*
X155055942Y-97466113D01*
X155183859Y-97380642D01*
X155257501Y-97307000D01*
X155257501Y-97765000D01*
G37*
X155257501Y-97765000D02*
X155183859Y-97691358D01*
X155055942Y-97605887D01*
X154913809Y-97547013D01*
X154858442Y-97536000D01*
X154913809Y-97524987D01*
X155055942Y-97466113D01*
X155183859Y-97380642D01*
X155257501Y-97307000D01*
X155257501Y-97765000D01*
G36*
X158598001Y-96725862D02*
G01*
X158553032Y-96688957D01*
X158474536Y-96647000D01*
X158553032Y-96605043D01*
X158598001Y-96568138D01*
X158598001Y-96725862D01*
G37*
X158598001Y-96725862D02*
X158553032Y-96688957D01*
X158474536Y-96647000D01*
X158553032Y-96605043D01*
X158598001Y-96568138D01*
X158598001Y-96725862D01*
G36*
X156289464Y-96647000D02*
G01*
X156269500Y-96657671D01*
X156269500Y-96636329D01*
X156289464Y-96647000D01*
G37*
X156289464Y-96647000D02*
X156269500Y-96657671D01*
X156269500Y-96636329D01*
X156289464Y-96647000D01*
G36*
X158598001Y-95455862D02*
G01*
X158553032Y-95418957D01*
X158474536Y-95377000D01*
X158553032Y-95335043D01*
X158598001Y-95298138D01*
X158598001Y-95455862D01*
G37*
X158598001Y-95455862D02*
X158553032Y-95418957D01*
X158474536Y-95377000D01*
X158553032Y-95335043D01*
X158598001Y-95298138D01*
X158598001Y-95455862D01*
G36*
X146745157Y-90785250D02*
G01*
X146745157Y-91272750D01*
X146757197Y-91394992D01*
X146792854Y-91512537D01*
X146850757Y-91620866D01*
X146928682Y-91715818D01*
X147023634Y-91793743D01*
X147131963Y-91851646D01*
X147249508Y-91887303D01*
X147371750Y-91899343D01*
X147576001Y-91899343D01*
X147576000Y-92789157D01*
X147207000Y-92789157D01*
X147103047Y-92799395D01*
X147003090Y-92829717D01*
X146910968Y-92878957D01*
X146830223Y-92945223D01*
X146763957Y-93025968D01*
X146714717Y-93118090D01*
X146684395Y-93218047D01*
X146674157Y-93322000D01*
X146674157Y-93622000D01*
X146684395Y-93725953D01*
X146714717Y-93825910D01*
X146763957Y-93918032D01*
X146830223Y-93998777D01*
X146910968Y-94065043D01*
X146989464Y-94107000D01*
X146910968Y-94148957D01*
X146830223Y-94215223D01*
X146813172Y-94236000D01*
X146767592Y-94236000D01*
X144401112Y-91869521D01*
X144460037Y-91851646D01*
X144568366Y-91793743D01*
X144663318Y-91715818D01*
X144741243Y-91620866D01*
X144799146Y-91512537D01*
X144834803Y-91394992D01*
X144846843Y-91272750D01*
X144846843Y-90785250D01*
X144840662Y-90722490D01*
X146751338Y-90722490D01*
X146745157Y-90785250D01*
G37*
X146745157Y-90785250D02*
X146745157Y-91272750D01*
X146757197Y-91394992D01*
X146792854Y-91512537D01*
X146850757Y-91620866D01*
X146928682Y-91715818D01*
X147023634Y-91793743D01*
X147131963Y-91851646D01*
X147249508Y-91887303D01*
X147371750Y-91899343D01*
X147576001Y-91899343D01*
X147576000Y-92789157D01*
X147207000Y-92789157D01*
X147103047Y-92799395D01*
X147003090Y-92829717D01*
X146910968Y-92878957D01*
X146830223Y-92945223D01*
X146763957Y-93025968D01*
X146714717Y-93118090D01*
X146684395Y-93218047D01*
X146674157Y-93322000D01*
X146674157Y-93622000D01*
X146684395Y-93725953D01*
X146714717Y-93825910D01*
X146763957Y-93918032D01*
X146830223Y-93998777D01*
X146910968Y-94065043D01*
X146989464Y-94107000D01*
X146910968Y-94148957D01*
X146830223Y-94215223D01*
X146813172Y-94236000D01*
X146767592Y-94236000D01*
X144401112Y-91869521D01*
X144460037Y-91851646D01*
X144568366Y-91793743D01*
X144663318Y-91715818D01*
X144741243Y-91620866D01*
X144799146Y-91512537D01*
X144834803Y-91394992D01*
X144846843Y-91272750D01*
X144846843Y-90785250D01*
X144840662Y-90722490D01*
X146751338Y-90722490D01*
X146745157Y-90785250D01*
G36*
X158598001Y-94185862D02*
G01*
X158553032Y-94148957D01*
X158474536Y-94107000D01*
X158553032Y-94065043D01*
X158598001Y-94028138D01*
X158598001Y-94185862D01*
G37*
X158598001Y-94185862D02*
X158553032Y-94148957D01*
X158474536Y-94107000D01*
X158553032Y-94065043D01*
X158598001Y-94028138D01*
X158598001Y-94185862D01*
G36*
X151168757Y-89745866D02*
G01*
X151246682Y-89840818D01*
X151341634Y-89918743D01*
X151449963Y-89976646D01*
X151567508Y-90012303D01*
X151689750Y-90024343D01*
X152602250Y-90024343D01*
X152724492Y-90012303D01*
X152842037Y-89976646D01*
X152950366Y-89918743D01*
X153045318Y-89840818D01*
X153123243Y-89745866D01*
X153169139Y-89660000D01*
X153206409Y-89660000D01*
X153672001Y-90125593D01*
X153672000Y-92538154D01*
X153669553Y-92563000D01*
X153672000Y-92587846D01*
X153672000Y-92587853D01*
X153674574Y-92613982D01*
X152887785Y-91827193D01*
X152950366Y-91793743D01*
X153045318Y-91715818D01*
X153123243Y-91620866D01*
X153181146Y-91512537D01*
X153216803Y-91394992D01*
X153228843Y-91272750D01*
X153228843Y-90785250D01*
X153216803Y-90663008D01*
X153181146Y-90545463D01*
X153123243Y-90437134D01*
X153045318Y-90342182D01*
X152950366Y-90264257D01*
X152842037Y-90206354D01*
X152724492Y-90170697D01*
X152602250Y-90158657D01*
X151689750Y-90158657D01*
X151567508Y-90170697D01*
X151449963Y-90206354D01*
X151341634Y-90264257D01*
X151246682Y-90342182D01*
X151168757Y-90437134D01*
X151110854Y-90545463D01*
X151075197Y-90663008D01*
X151063157Y-90785250D01*
X151063157Y-90854564D01*
X150084868Y-89876275D01*
X150069019Y-89856963D01*
X149991971Y-89793731D01*
X149904067Y-89746745D01*
X149808685Y-89717812D01*
X149734346Y-89710490D01*
X149734338Y-89710490D01*
X149709492Y-89708043D01*
X149684646Y-89710490D01*
X148824152Y-89710490D01*
X148851139Y-89660000D01*
X151122861Y-89660000D01*
X151168757Y-89745866D01*
G37*
X151168757Y-89745866D02*
X151246682Y-89840818D01*
X151341634Y-89918743D01*
X151449963Y-89976646D01*
X151567508Y-90012303D01*
X151689750Y-90024343D01*
X152602250Y-90024343D01*
X152724492Y-90012303D01*
X152842037Y-89976646D01*
X152950366Y-89918743D01*
X153045318Y-89840818D01*
X153123243Y-89745866D01*
X153169139Y-89660000D01*
X153206409Y-89660000D01*
X153672001Y-90125593D01*
X153672000Y-92538154D01*
X153669553Y-92563000D01*
X153672000Y-92587846D01*
X153672000Y-92587853D01*
X153674574Y-92613982D01*
X152887785Y-91827193D01*
X152950366Y-91793743D01*
X153045318Y-91715818D01*
X153123243Y-91620866D01*
X153181146Y-91512537D01*
X153216803Y-91394992D01*
X153228843Y-91272750D01*
X153228843Y-90785250D01*
X153216803Y-90663008D01*
X153181146Y-90545463D01*
X153123243Y-90437134D01*
X153045318Y-90342182D01*
X152950366Y-90264257D01*
X152842037Y-90206354D01*
X152724492Y-90170697D01*
X152602250Y-90158657D01*
X151689750Y-90158657D01*
X151567508Y-90170697D01*
X151449963Y-90206354D01*
X151341634Y-90264257D01*
X151246682Y-90342182D01*
X151168757Y-90437134D01*
X151110854Y-90545463D01*
X151075197Y-90663008D01*
X151063157Y-90785250D01*
X151063157Y-90854564D01*
X150084868Y-89876275D01*
X150069019Y-89856963D01*
X149991971Y-89793731D01*
X149904067Y-89746745D01*
X149808685Y-89717812D01*
X149734346Y-89710490D01*
X149734338Y-89710490D01*
X149709492Y-89708043D01*
X149684646Y-89710490D01*
X148824152Y-89710490D01*
X148851139Y-89660000D01*
X151122861Y-89660000D01*
X151168757Y-89745866D01*
G36*
X146831848Y-89710490D02*
G01*
X144760152Y-89710490D01*
X144787139Y-89660000D01*
X146804861Y-89660000D01*
X146831848Y-89710490D01*
G37*
X146831848Y-89710490D02*
X144760152Y-89710490D01*
X144787139Y-89660000D01*
X146804861Y-89660000D01*
X146831848Y-89710490D01*
M02*
