%TF.GenerationSoftware,KiCad,Pcbnew,(5.1.6)-1*%
%TF.CreationDate,2020-11-02T21:17:58+02:00*%
%TF.ProjectId,zigbee-raspberry-module,7a696762-6565-42d7-9261-737062657272,rev?*%
%TF.SameCoordinates,Original*%
%TF.FileFunction,Paste,Bot*%
%TF.FilePolarity,Positive*%
%FSLAX46Y46*%
G04 Gerber Fmt 4.6, Leading zero omitted, Abs format (unit mm)*
G04 Created by KiCad (PCBNEW (5.1.6)-1) date 2020-11-02 21:17:58*
%MOMM*%
%LPD*%
G01*
G04 APERTURE LIST*
%ADD10R,3.960000X3.960000*%
%ADD11R,5.080000X1.780000*%
%ADD12R,1.000000X2.500000*%
G04 APERTURE END LIST*
D10*
%TO.C,BT1*%
X141478000Y-99440000D03*
D11*
X141478000Y-104140000D03*
X141478000Y-94740000D03*
%TD*%
%TO.C,U2*%
G36*
G01*
X149107000Y-93322000D02*
X149107000Y-93622000D01*
G75*
G02*
X148957000Y-93772000I-150000J0D01*
G01*
X147207000Y-93772000D01*
G75*
G02*
X147057000Y-93622000I0J150000D01*
G01*
X147057000Y-93322000D01*
G75*
G02*
X147207000Y-93172000I150000J0D01*
G01*
X148957000Y-93172000D01*
G75*
G02*
X149107000Y-93322000I0J-150000D01*
G01*
G37*
G36*
G01*
X149107000Y-94592000D02*
X149107000Y-94892000D01*
G75*
G02*
X148957000Y-95042000I-150000J0D01*
G01*
X147207000Y-95042000D01*
G75*
G02*
X147057000Y-94892000I0J150000D01*
G01*
X147057000Y-94592000D01*
G75*
G02*
X147207000Y-94442000I150000J0D01*
G01*
X148957000Y-94442000D01*
G75*
G02*
X149107000Y-94592000I0J-150000D01*
G01*
G37*
G36*
G01*
X149107000Y-95862000D02*
X149107000Y-96162000D01*
G75*
G02*
X148957000Y-96312000I-150000J0D01*
G01*
X147207000Y-96312000D01*
G75*
G02*
X147057000Y-96162000I0J150000D01*
G01*
X147057000Y-95862000D01*
G75*
G02*
X147207000Y-95712000I150000J0D01*
G01*
X148957000Y-95712000D01*
G75*
G02*
X149107000Y-95862000I0J-150000D01*
G01*
G37*
G36*
G01*
X149107000Y-97132000D02*
X149107000Y-97432000D01*
G75*
G02*
X148957000Y-97582000I-150000J0D01*
G01*
X147207000Y-97582000D01*
G75*
G02*
X147057000Y-97432000I0J150000D01*
G01*
X147057000Y-97132000D01*
G75*
G02*
X147207000Y-96982000I150000J0D01*
G01*
X148957000Y-96982000D01*
G75*
G02*
X149107000Y-97132000I0J-150000D01*
G01*
G37*
G36*
G01*
X149107000Y-98402000D02*
X149107000Y-98702000D01*
G75*
G02*
X148957000Y-98852000I-150000J0D01*
G01*
X147207000Y-98852000D01*
G75*
G02*
X147057000Y-98702000I0J150000D01*
G01*
X147057000Y-98402000D01*
G75*
G02*
X147207000Y-98252000I150000J0D01*
G01*
X148957000Y-98252000D01*
G75*
G02*
X149107000Y-98402000I0J-150000D01*
G01*
G37*
G36*
G01*
X149107000Y-99672000D02*
X149107000Y-99972000D01*
G75*
G02*
X148957000Y-100122000I-150000J0D01*
G01*
X147207000Y-100122000D01*
G75*
G02*
X147057000Y-99972000I0J150000D01*
G01*
X147057000Y-99672000D01*
G75*
G02*
X147207000Y-99522000I150000J0D01*
G01*
X148957000Y-99522000D01*
G75*
G02*
X149107000Y-99672000I0J-150000D01*
G01*
G37*
G36*
G01*
X149107000Y-100942000D02*
X149107000Y-101242000D01*
G75*
G02*
X148957000Y-101392000I-150000J0D01*
G01*
X147207000Y-101392000D01*
G75*
G02*
X147057000Y-101242000I0J150000D01*
G01*
X147057000Y-100942000D01*
G75*
G02*
X147207000Y-100792000I150000J0D01*
G01*
X148957000Y-100792000D01*
G75*
G02*
X149107000Y-100942000I0J-150000D01*
G01*
G37*
G36*
G01*
X149107000Y-102212000D02*
X149107000Y-102512000D01*
G75*
G02*
X148957000Y-102662000I-150000J0D01*
G01*
X147207000Y-102662000D01*
G75*
G02*
X147057000Y-102512000I0J150000D01*
G01*
X147057000Y-102212000D01*
G75*
G02*
X147207000Y-102062000I150000J0D01*
G01*
X148957000Y-102062000D01*
G75*
G02*
X149107000Y-102212000I0J-150000D01*
G01*
G37*
G36*
G01*
X158407000Y-102212000D02*
X158407000Y-102512000D01*
G75*
G02*
X158257000Y-102662000I-150000J0D01*
G01*
X156507000Y-102662000D01*
G75*
G02*
X156357000Y-102512000I0J150000D01*
G01*
X156357000Y-102212000D01*
G75*
G02*
X156507000Y-102062000I150000J0D01*
G01*
X158257000Y-102062000D01*
G75*
G02*
X158407000Y-102212000I0J-150000D01*
G01*
G37*
G36*
G01*
X158407000Y-100942000D02*
X158407000Y-101242000D01*
G75*
G02*
X158257000Y-101392000I-150000J0D01*
G01*
X156507000Y-101392000D01*
G75*
G02*
X156357000Y-101242000I0J150000D01*
G01*
X156357000Y-100942000D01*
G75*
G02*
X156507000Y-100792000I150000J0D01*
G01*
X158257000Y-100792000D01*
G75*
G02*
X158407000Y-100942000I0J-150000D01*
G01*
G37*
G36*
G01*
X158407000Y-99672000D02*
X158407000Y-99972000D01*
G75*
G02*
X158257000Y-100122000I-150000J0D01*
G01*
X156507000Y-100122000D01*
G75*
G02*
X156357000Y-99972000I0J150000D01*
G01*
X156357000Y-99672000D01*
G75*
G02*
X156507000Y-99522000I150000J0D01*
G01*
X158257000Y-99522000D01*
G75*
G02*
X158407000Y-99672000I0J-150000D01*
G01*
G37*
G36*
G01*
X158407000Y-98402000D02*
X158407000Y-98702000D01*
G75*
G02*
X158257000Y-98852000I-150000J0D01*
G01*
X156507000Y-98852000D01*
G75*
G02*
X156357000Y-98702000I0J150000D01*
G01*
X156357000Y-98402000D01*
G75*
G02*
X156507000Y-98252000I150000J0D01*
G01*
X158257000Y-98252000D01*
G75*
G02*
X158407000Y-98402000I0J-150000D01*
G01*
G37*
G36*
G01*
X158407000Y-97132000D02*
X158407000Y-97432000D01*
G75*
G02*
X158257000Y-97582000I-150000J0D01*
G01*
X156507000Y-97582000D01*
G75*
G02*
X156357000Y-97432000I0J150000D01*
G01*
X156357000Y-97132000D01*
G75*
G02*
X156507000Y-96982000I150000J0D01*
G01*
X158257000Y-96982000D01*
G75*
G02*
X158407000Y-97132000I0J-150000D01*
G01*
G37*
G36*
G01*
X158407000Y-95862000D02*
X158407000Y-96162000D01*
G75*
G02*
X158257000Y-96312000I-150000J0D01*
G01*
X156507000Y-96312000D01*
G75*
G02*
X156357000Y-96162000I0J150000D01*
G01*
X156357000Y-95862000D01*
G75*
G02*
X156507000Y-95712000I150000J0D01*
G01*
X158257000Y-95712000D01*
G75*
G02*
X158407000Y-95862000I0J-150000D01*
G01*
G37*
G36*
G01*
X158407000Y-94592000D02*
X158407000Y-94892000D01*
G75*
G02*
X158257000Y-95042000I-150000J0D01*
G01*
X156507000Y-95042000D01*
G75*
G02*
X156357000Y-94892000I0J150000D01*
G01*
X156357000Y-94592000D01*
G75*
G02*
X156507000Y-94442000I150000J0D01*
G01*
X158257000Y-94442000D01*
G75*
G02*
X158407000Y-94592000I0J-150000D01*
G01*
G37*
G36*
G01*
X158407000Y-93322000D02*
X158407000Y-93622000D01*
G75*
G02*
X158257000Y-93772000I-150000J0D01*
G01*
X156507000Y-93772000D01*
G75*
G02*
X156357000Y-93622000I0J150000D01*
G01*
X156357000Y-93322000D01*
G75*
G02*
X156507000Y-93172000I150000J0D01*
G01*
X158257000Y-93172000D01*
G75*
G02*
X158407000Y-93322000I0J-150000D01*
G01*
G37*
%TD*%
%TO.C,R4*%
G36*
G01*
X151689750Y-90541500D02*
X152602250Y-90541500D01*
G75*
G02*
X152846000Y-90785250I0J-243750D01*
G01*
X152846000Y-91272750D01*
G75*
G02*
X152602250Y-91516500I-243750J0D01*
G01*
X151689750Y-91516500D01*
G75*
G02*
X151446000Y-91272750I0J243750D01*
G01*
X151446000Y-90785250D01*
G75*
G02*
X151689750Y-90541500I243750J0D01*
G01*
G37*
G36*
G01*
X151689750Y-88666500D02*
X152602250Y-88666500D01*
G75*
G02*
X152846000Y-88910250I0J-243750D01*
G01*
X152846000Y-89397750D01*
G75*
G02*
X152602250Y-89641500I-243750J0D01*
G01*
X151689750Y-89641500D01*
G75*
G02*
X151446000Y-89397750I0J243750D01*
G01*
X151446000Y-88910250D01*
G75*
G02*
X151689750Y-88666500I243750J0D01*
G01*
G37*
%TD*%
%TO.C,R3*%
G36*
G01*
X147371750Y-90541500D02*
X148284250Y-90541500D01*
G75*
G02*
X148528000Y-90785250I0J-243750D01*
G01*
X148528000Y-91272750D01*
G75*
G02*
X148284250Y-91516500I-243750J0D01*
G01*
X147371750Y-91516500D01*
G75*
G02*
X147128000Y-91272750I0J243750D01*
G01*
X147128000Y-90785250D01*
G75*
G02*
X147371750Y-90541500I243750J0D01*
G01*
G37*
G36*
G01*
X147371750Y-88666500D02*
X148284250Y-88666500D01*
G75*
G02*
X148528000Y-88910250I0J-243750D01*
G01*
X148528000Y-89397750D01*
G75*
G02*
X148284250Y-89641500I-243750J0D01*
G01*
X147371750Y-89641500D01*
G75*
G02*
X147128000Y-89397750I0J243750D01*
G01*
X147128000Y-88910250D01*
G75*
G02*
X147371750Y-88666500I243750J0D01*
G01*
G37*
%TD*%
%TO.C,R2*%
G36*
G01*
X143307750Y-90541500D02*
X144220250Y-90541500D01*
G75*
G02*
X144464000Y-90785250I0J-243750D01*
G01*
X144464000Y-91272750D01*
G75*
G02*
X144220250Y-91516500I-243750J0D01*
G01*
X143307750Y-91516500D01*
G75*
G02*
X143064000Y-91272750I0J243750D01*
G01*
X143064000Y-90785250D01*
G75*
G02*
X143307750Y-90541500I243750J0D01*
G01*
G37*
G36*
G01*
X143307750Y-88666500D02*
X144220250Y-88666500D01*
G75*
G02*
X144464000Y-88910250I0J-243750D01*
G01*
X144464000Y-89397750D01*
G75*
G02*
X144220250Y-89641500I-243750J0D01*
G01*
X143307750Y-89641500D01*
G75*
G02*
X143064000Y-89397750I0J243750D01*
G01*
X143064000Y-88910250D01*
G75*
G02*
X143307750Y-88666500I243750J0D01*
G01*
G37*
%TD*%
D12*
%TO.C,JTAG1*%
X141986000Y-80455000D03*
X144526000Y-80455000D03*
X147066000Y-80455000D03*
X149606000Y-80455000D03*
X152146000Y-80455000D03*
X154686000Y-80455000D03*
X157226000Y-80455000D03*
%TD*%
M02*
