%TF.GenerationSoftware,KiCad,Pcbnew,(5.1.6)-1*%
%TF.CreationDate,2020-10-31T14:58:00+02:00*%
%TF.ProjectId,zigbee-raspberry-module,7a696762-6565-42d7-9261-737062657272,rev?*%
%TF.SameCoordinates,Original*%
%TF.FileFunction,Legend,Bot*%
%TF.FilePolarity,Positive*%
%FSLAX46Y46*%
G04 Gerber Fmt 4.6, Leading zero omitted, Abs format (unit mm)*
G04 Created by KiCad (PCBNEW (5.1.6)-1) date 2020-10-31 14:58:00*
%MOMM*%
%LPD*%
G01*
G04 APERTURE LIST*
%ADD10C,0.150000*%
%ADD11C,0.120000*%
G04 APERTURE END LIST*
D10*
X139644380Y-67477714D02*
X138977714Y-67477714D01*
X139072952Y-67477714D02*
X139025333Y-67525333D01*
X138977714Y-67620571D01*
X138977714Y-67763428D01*
X139025333Y-67858666D01*
X139120571Y-67906285D01*
X139644380Y-67906285D01*
X139120571Y-67906285D02*
X139025333Y-67953904D01*
X138977714Y-68049142D01*
X138977714Y-68192000D01*
X139025333Y-68287238D01*
X139120571Y-68334857D01*
X139644380Y-68334857D01*
X139644380Y-69239619D02*
X139120571Y-69239619D01*
X139025333Y-69192000D01*
X138977714Y-69096761D01*
X138977714Y-68906285D01*
X139025333Y-68811047D01*
X139596761Y-69239619D02*
X139644380Y-69144380D01*
X139644380Y-68906285D01*
X139596761Y-68811047D01*
X139501523Y-68763428D01*
X139406285Y-68763428D01*
X139311047Y-68811047D01*
X139263428Y-68906285D01*
X139263428Y-69144380D01*
X139215809Y-69239619D01*
X139644380Y-69715809D02*
X138977714Y-69715809D01*
X138644380Y-69715809D02*
X138692000Y-69668190D01*
X138739619Y-69715809D01*
X138692000Y-69763428D01*
X138644380Y-69715809D01*
X138739619Y-69715809D01*
X139644380Y-70334857D02*
X139596761Y-70239619D01*
X139501523Y-70192000D01*
X138644380Y-70192000D01*
X139168190Y-71334857D02*
X139120571Y-71287238D01*
X139072952Y-71192000D01*
X139072952Y-71096761D01*
X139120571Y-71001523D01*
X139168190Y-70953904D01*
X139263428Y-70906285D01*
X139358666Y-70906285D01*
X139453904Y-70953904D01*
X139501523Y-71001523D01*
X139549142Y-71096761D01*
X139549142Y-71192000D01*
X139501523Y-71287238D01*
X139453904Y-71334857D01*
X139072952Y-71334857D02*
X139453904Y-71334857D01*
X139501523Y-71382476D01*
X139501523Y-71430095D01*
X139453904Y-71525333D01*
X139358666Y-71572952D01*
X139120571Y-71572952D01*
X138977714Y-71477714D01*
X138882476Y-71334857D01*
X138834857Y-71144380D01*
X138882476Y-70953904D01*
X138977714Y-70811047D01*
X139120571Y-70715809D01*
X139311047Y-70668190D01*
X139501523Y-70715809D01*
X139644380Y-70811047D01*
X139739619Y-70953904D01*
X139787238Y-71144380D01*
X139739619Y-71334857D01*
X139644380Y-71477714D01*
X138977714Y-71858666D02*
X138977714Y-72239619D01*
X139644380Y-72001523D02*
X138787238Y-72001523D01*
X138692000Y-72049142D01*
X138644380Y-72144380D01*
X138644380Y-72239619D01*
X139644380Y-72572952D02*
X138977714Y-72572952D01*
X139168190Y-72572952D02*
X139072952Y-72620571D01*
X139025333Y-72668190D01*
X138977714Y-72763428D01*
X138977714Y-72858666D01*
X139596761Y-73572952D02*
X139644380Y-73477714D01*
X139644380Y-73287238D01*
X139596761Y-73192000D01*
X139501523Y-73144380D01*
X139120571Y-73144380D01*
X139025333Y-73192000D01*
X138977714Y-73287238D01*
X138977714Y-73477714D01*
X139025333Y-73572952D01*
X139120571Y-73620571D01*
X139215809Y-73620571D01*
X139311047Y-73144380D01*
X139596761Y-74430095D02*
X139644380Y-74334857D01*
X139644380Y-74144380D01*
X139596761Y-74049142D01*
X139501523Y-74001523D01*
X139120571Y-74001523D01*
X139025333Y-74049142D01*
X138977714Y-74144380D01*
X138977714Y-74334857D01*
X139025333Y-74430095D01*
X139120571Y-74477714D01*
X139215809Y-74477714D01*
X139311047Y-74001523D01*
X139644380Y-74906285D02*
X138644380Y-74906285D01*
X139644380Y-75334857D02*
X139120571Y-75334857D01*
X139025333Y-75287238D01*
X138977714Y-75192000D01*
X138977714Y-75049142D01*
X139025333Y-74953904D01*
X139072952Y-74906285D01*
X139644380Y-76239619D02*
X139120571Y-76239619D01*
X139025333Y-76192000D01*
X138977714Y-76096761D01*
X138977714Y-75906285D01*
X139025333Y-75811047D01*
X139596761Y-76239619D02*
X139644380Y-76144380D01*
X139644380Y-75906285D01*
X139596761Y-75811047D01*
X139501523Y-75763428D01*
X139406285Y-75763428D01*
X139311047Y-75811047D01*
X139263428Y-75906285D01*
X139263428Y-76144380D01*
X139215809Y-76239619D01*
X138977714Y-76715809D02*
X139644380Y-76715809D01*
X139072952Y-76715809D02*
X139025333Y-76763428D01*
X138977714Y-76858666D01*
X138977714Y-77001523D01*
X139025333Y-77096761D01*
X139120571Y-77144380D01*
X139644380Y-77144380D01*
X139644380Y-78049142D02*
X138644380Y-78049142D01*
X139596761Y-78049142D02*
X139644380Y-77953904D01*
X139644380Y-77763428D01*
X139596761Y-77668190D01*
X139549142Y-77620571D01*
X139453904Y-77572952D01*
X139168190Y-77572952D01*
X139072952Y-77620571D01*
X139025333Y-77668190D01*
X138977714Y-77763428D01*
X138977714Y-77953904D01*
X139025333Y-78049142D01*
X139549142Y-78525333D02*
X139596761Y-78572952D01*
X139644380Y-78525333D01*
X139596761Y-78477714D01*
X139549142Y-78525333D01*
X139644380Y-78525333D01*
X139596761Y-79430095D02*
X139644380Y-79334857D01*
X139644380Y-79144380D01*
X139596761Y-79049142D01*
X139549142Y-79001523D01*
X139453904Y-78953904D01*
X139168190Y-78953904D01*
X139072952Y-79001523D01*
X139025333Y-79049142D01*
X138977714Y-79144380D01*
X138977714Y-79334857D01*
X139025333Y-79430095D01*
X139644380Y-80001523D02*
X139596761Y-79906285D01*
X139549142Y-79858666D01*
X139453904Y-79811047D01*
X139168190Y-79811047D01*
X139072952Y-79858666D01*
X139025333Y-79906285D01*
X138977714Y-80001523D01*
X138977714Y-80144380D01*
X139025333Y-80239619D01*
X139072952Y-80287238D01*
X139168190Y-80334857D01*
X139453904Y-80334857D01*
X139549142Y-80287238D01*
X139596761Y-80239619D01*
X139644380Y-80144380D01*
X139644380Y-80001523D01*
X139644380Y-80763428D02*
X138977714Y-80763428D01*
X139072952Y-80763428D02*
X139025333Y-80811047D01*
X138977714Y-80906285D01*
X138977714Y-81049142D01*
X139025333Y-81144380D01*
X139120571Y-81192000D01*
X139644380Y-81192000D01*
X139120571Y-81192000D02*
X139025333Y-81239619D01*
X138977714Y-81334857D01*
X138977714Y-81477714D01*
X139025333Y-81572952D01*
X139120571Y-81620571D01*
X139644380Y-81620571D01*
X139549142Y-82096761D02*
X139596761Y-82144380D01*
X139644380Y-82096761D01*
X139596761Y-82049142D01*
X139549142Y-82096761D01*
X139644380Y-82096761D01*
X138977714Y-83001523D02*
X139644380Y-83001523D01*
X138977714Y-82572952D02*
X139501523Y-82572952D01*
X139596761Y-82620571D01*
X139644380Y-82715809D01*
X139644380Y-82858666D01*
X139596761Y-82953904D01*
X139549142Y-83001523D01*
X139644380Y-83906285D02*
X139120571Y-83906285D01*
X139025333Y-83858666D01*
X138977714Y-83763428D01*
X138977714Y-83572952D01*
X139025333Y-83477714D01*
X139596761Y-83906285D02*
X139644380Y-83811047D01*
X139644380Y-83572952D01*
X139596761Y-83477714D01*
X139501523Y-83430095D01*
X139406285Y-83430095D01*
X139311047Y-83477714D01*
X139263428Y-83572952D01*
X139263428Y-83811047D01*
X139215809Y-83906285D01*
X136502857Y-67524000D02*
X136502857Y-68324000D01*
X137702857Y-67524000D01*
X137702857Y-68324000D01*
X137702857Y-68781142D02*
X136902857Y-68781142D01*
X136502857Y-68781142D02*
X136560000Y-68724000D01*
X136617142Y-68781142D01*
X136560000Y-68838285D01*
X136502857Y-68781142D01*
X136617142Y-68781142D01*
X136902857Y-69866857D02*
X137874285Y-69866857D01*
X137988571Y-69809714D01*
X138045714Y-69752571D01*
X138102857Y-69638285D01*
X138102857Y-69466857D01*
X138045714Y-69352571D01*
X137645714Y-69866857D02*
X137702857Y-69752571D01*
X137702857Y-69524000D01*
X137645714Y-69409714D01*
X137588571Y-69352571D01*
X137474285Y-69295428D01*
X137131428Y-69295428D01*
X137017142Y-69352571D01*
X136960000Y-69409714D01*
X136902857Y-69524000D01*
X136902857Y-69752571D01*
X136960000Y-69866857D01*
X137074285Y-70838285D02*
X137131428Y-71009714D01*
X137188571Y-71066857D01*
X137302857Y-71124000D01*
X137474285Y-71124000D01*
X137588571Y-71066857D01*
X137645714Y-71009714D01*
X137702857Y-70895428D01*
X137702857Y-70438285D01*
X136502857Y-70438285D01*
X136502857Y-70838285D01*
X136560000Y-70952571D01*
X136617142Y-71009714D01*
X136731428Y-71066857D01*
X136845714Y-71066857D01*
X136960000Y-71009714D01*
X137017142Y-70952571D01*
X137074285Y-70838285D01*
X137074285Y-70438285D01*
X137645714Y-72095428D02*
X137702857Y-71981142D01*
X137702857Y-71752571D01*
X137645714Y-71638285D01*
X137531428Y-71581142D01*
X137074285Y-71581142D01*
X136960000Y-71638285D01*
X136902857Y-71752571D01*
X136902857Y-71981142D01*
X136960000Y-72095428D01*
X137074285Y-72152571D01*
X137188571Y-72152571D01*
X137302857Y-71581142D01*
X137645714Y-73124000D02*
X137702857Y-73009714D01*
X137702857Y-72781142D01*
X137645714Y-72666857D01*
X137531428Y-72609714D01*
X137074285Y-72609714D01*
X136960000Y-72666857D01*
X136902857Y-72781142D01*
X136902857Y-73009714D01*
X136960000Y-73124000D01*
X137074285Y-73181142D01*
X137188571Y-73181142D01*
X137302857Y-72609714D01*
X137702857Y-74609714D02*
X136502857Y-74609714D01*
X137360000Y-75009714D01*
X136502857Y-75409714D01*
X137702857Y-75409714D01*
X137702857Y-76152571D02*
X137645714Y-76038285D01*
X137588571Y-75981142D01*
X137474285Y-75924000D01*
X137131428Y-75924000D01*
X137017142Y-75981142D01*
X136960000Y-76038285D01*
X136902857Y-76152571D01*
X136902857Y-76324000D01*
X136960000Y-76438285D01*
X137017142Y-76495428D01*
X137131428Y-76552571D01*
X137474285Y-76552571D01*
X137588571Y-76495428D01*
X137645714Y-76438285D01*
X137702857Y-76324000D01*
X137702857Y-76152571D01*
X137702857Y-77581142D02*
X136502857Y-77581142D01*
X137645714Y-77581142D02*
X137702857Y-77466857D01*
X137702857Y-77238285D01*
X137645714Y-77124000D01*
X137588571Y-77066857D01*
X137474285Y-77009714D01*
X137131428Y-77009714D01*
X137017142Y-77066857D01*
X136960000Y-77124000D01*
X136902857Y-77238285D01*
X136902857Y-77466857D01*
X136960000Y-77581142D01*
X136902857Y-78666857D02*
X137702857Y-78666857D01*
X136902857Y-78152571D02*
X137531428Y-78152571D01*
X137645714Y-78209714D01*
X137702857Y-78324000D01*
X137702857Y-78495428D01*
X137645714Y-78609714D01*
X137588571Y-78666857D01*
X137702857Y-79409714D02*
X137645714Y-79295428D01*
X137531428Y-79238285D01*
X136502857Y-79238285D01*
X137645714Y-80324000D02*
X137702857Y-80209714D01*
X137702857Y-79981142D01*
X137645714Y-79866857D01*
X137531428Y-79809714D01*
X137074285Y-79809714D01*
X136960000Y-79866857D01*
X136902857Y-79981142D01*
X136902857Y-80209714D01*
X136960000Y-80324000D01*
X137074285Y-80381142D01*
X137188571Y-80381142D01*
X137302857Y-79809714D01*
X137702857Y-82495428D02*
X137131428Y-82095428D01*
X137702857Y-81809714D02*
X136502857Y-81809714D01*
X136502857Y-82266857D01*
X136560000Y-82381142D01*
X136617142Y-82438285D01*
X136731428Y-82495428D01*
X136902857Y-82495428D01*
X137017142Y-82438285D01*
X137074285Y-82381142D01*
X137131428Y-82266857D01*
X137131428Y-81809714D01*
X137645714Y-83466857D02*
X137702857Y-83352571D01*
X137702857Y-83124000D01*
X137645714Y-83009714D01*
X137531428Y-82952571D01*
X137074285Y-82952571D01*
X136960000Y-83009714D01*
X136902857Y-83124000D01*
X136902857Y-83352571D01*
X136960000Y-83466857D01*
X137074285Y-83524000D01*
X137188571Y-83524000D01*
X137302857Y-82952571D01*
X136902857Y-83924000D02*
X137702857Y-84209714D01*
X136902857Y-84495428D01*
X137588571Y-84952571D02*
X137645714Y-85009714D01*
X137702857Y-84952571D01*
X137645714Y-84895428D01*
X137588571Y-84952571D01*
X137702857Y-84952571D01*
X137702857Y-86152571D02*
X137702857Y-85466857D01*
X137702857Y-85809714D02*
X136502857Y-85809714D01*
X136674285Y-85695428D01*
X136788571Y-85581142D01*
X136845714Y-85466857D01*
X137588571Y-86666857D02*
X137645714Y-86724000D01*
X137702857Y-86666857D01*
X137645714Y-86609714D01*
X137588571Y-86666857D01*
X137702857Y-86666857D01*
X137702857Y-87866857D02*
X137702857Y-87181142D01*
X137702857Y-87524000D02*
X136502857Y-87524000D01*
X136674285Y-87409714D01*
X136788571Y-87295428D01*
X136845714Y-87181142D01*
X141486000Y-83058095D02*
X141438380Y-82962857D01*
X141438380Y-82820000D01*
X141486000Y-82677142D01*
X141581238Y-82581904D01*
X141676476Y-82534285D01*
X141866952Y-82486666D01*
X142009809Y-82486666D01*
X142200285Y-82534285D01*
X142295523Y-82581904D01*
X142390761Y-82677142D01*
X142438380Y-82820000D01*
X142438380Y-82915238D01*
X142390761Y-83058095D01*
X142343142Y-83105714D01*
X142009809Y-83105714D01*
X142009809Y-82915238D01*
X142438380Y-83534285D02*
X141438380Y-83534285D01*
X142438380Y-84105714D01*
X141438380Y-84105714D01*
X142438380Y-84581904D02*
X141438380Y-84581904D01*
X141438380Y-84820000D01*
X141486000Y-84962857D01*
X141581238Y-85058095D01*
X141676476Y-85105714D01*
X141866952Y-85153333D01*
X142009809Y-85153333D01*
X142200285Y-85105714D01*
X142295523Y-85058095D01*
X142390761Y-84962857D01*
X142438380Y-84820000D01*
X142438380Y-84581904D01*
X143978380Y-82486666D02*
X144978380Y-82820000D01*
X143978380Y-83153333D01*
X144883142Y-84058095D02*
X144930761Y-84010476D01*
X144978380Y-83867619D01*
X144978380Y-83772380D01*
X144930761Y-83629523D01*
X144835523Y-83534285D01*
X144740285Y-83486666D01*
X144549809Y-83439047D01*
X144406952Y-83439047D01*
X144216476Y-83486666D01*
X144121238Y-83534285D01*
X144026000Y-83629523D01*
X143978380Y-83772380D01*
X143978380Y-83867619D01*
X144026000Y-84010476D01*
X144073619Y-84058095D01*
X144883142Y-85058095D02*
X144930761Y-85010476D01*
X144978380Y-84867619D01*
X144978380Y-84772380D01*
X144930761Y-84629523D01*
X144835523Y-84534285D01*
X144740285Y-84486666D01*
X144549809Y-84439047D01*
X144406952Y-84439047D01*
X144216476Y-84486666D01*
X144121238Y-84534285D01*
X144026000Y-84629523D01*
X143978380Y-84772380D01*
X143978380Y-84867619D01*
X144026000Y-85010476D01*
X144073619Y-85058095D01*
X146518380Y-82486666D02*
X146518380Y-83058095D01*
X147518380Y-82772380D02*
X146518380Y-82772380D01*
X147518380Y-83391428D02*
X146518380Y-83391428D01*
X147232666Y-83724761D01*
X146518380Y-84058095D01*
X147518380Y-84058095D01*
X147470761Y-84486666D02*
X147518380Y-84629523D01*
X147518380Y-84867619D01*
X147470761Y-84962857D01*
X147423142Y-85010476D01*
X147327904Y-85058095D01*
X147232666Y-85058095D01*
X147137428Y-85010476D01*
X147089809Y-84962857D01*
X147042190Y-84867619D01*
X146994571Y-84677142D01*
X146946952Y-84581904D01*
X146899333Y-84534285D01*
X146804095Y-84486666D01*
X146708857Y-84486666D01*
X146613619Y-84534285D01*
X146566000Y-84581904D01*
X146518380Y-84677142D01*
X146518380Y-84915238D01*
X146566000Y-85058095D01*
X157678380Y-83272380D02*
X157202190Y-82939047D01*
X157678380Y-82700952D02*
X156678380Y-82700952D01*
X156678380Y-83081904D01*
X156726000Y-83177142D01*
X156773619Y-83224761D01*
X156868857Y-83272380D01*
X157011714Y-83272380D01*
X157106952Y-83224761D01*
X157154571Y-83177142D01*
X157202190Y-83081904D01*
X157202190Y-82700952D01*
X157630761Y-83653333D02*
X157678380Y-83796190D01*
X157678380Y-84034285D01*
X157630761Y-84129523D01*
X157583142Y-84177142D01*
X157487904Y-84224761D01*
X157392666Y-84224761D01*
X157297428Y-84177142D01*
X157249809Y-84129523D01*
X157202190Y-84034285D01*
X157154571Y-83843809D01*
X157106952Y-83748571D01*
X157059333Y-83700952D01*
X156964095Y-83653333D01*
X156868857Y-83653333D01*
X156773619Y-83700952D01*
X156726000Y-83748571D01*
X156678380Y-83843809D01*
X156678380Y-84081904D01*
X156726000Y-84224761D01*
X156678380Y-84510476D02*
X156678380Y-85081904D01*
X157678380Y-84796190D02*
X156678380Y-84796190D01*
X155138380Y-82581904D02*
X154138380Y-82581904D01*
X154138380Y-82962857D01*
X154186000Y-83058095D01*
X154233619Y-83105714D01*
X154328857Y-83153333D01*
X154471714Y-83153333D01*
X154566952Y-83105714D01*
X154614571Y-83058095D01*
X154662190Y-82962857D01*
X154662190Y-82581904D01*
X154614571Y-83915238D02*
X154662190Y-84058095D01*
X154709809Y-84105714D01*
X154805047Y-84153333D01*
X154947904Y-84153333D01*
X155043142Y-84105714D01*
X155090761Y-84058095D01*
X155138380Y-83962857D01*
X155138380Y-83581904D01*
X154138380Y-83581904D01*
X154138380Y-83915238D01*
X154186000Y-84010476D01*
X154233619Y-84058095D01*
X154328857Y-84105714D01*
X154424095Y-84105714D01*
X154519333Y-84058095D01*
X154566952Y-84010476D01*
X154614571Y-83915238D01*
X154614571Y-83581904D01*
X154138380Y-85010476D02*
X154138380Y-84820000D01*
X154186000Y-84724761D01*
X154233619Y-84677142D01*
X154376476Y-84581904D01*
X154566952Y-84534285D01*
X154947904Y-84534285D01*
X155043142Y-84581904D01*
X155090761Y-84629523D01*
X155138380Y-84724761D01*
X155138380Y-84915238D01*
X155090761Y-85010476D01*
X155043142Y-85058095D01*
X154947904Y-85105714D01*
X154709809Y-85105714D01*
X154614571Y-85058095D01*
X154566952Y-85010476D01*
X154519333Y-84915238D01*
X154519333Y-84724761D01*
X154566952Y-84629523D01*
X154614571Y-84581904D01*
X154709809Y-84534285D01*
X152598380Y-82581904D02*
X151598380Y-82581904D01*
X151598380Y-82962857D01*
X151646000Y-83058095D01*
X151693619Y-83105714D01*
X151788857Y-83153333D01*
X151931714Y-83153333D01*
X152026952Y-83105714D01*
X152074571Y-83058095D01*
X152122190Y-82962857D01*
X152122190Y-82581904D01*
X152074571Y-83915238D02*
X152122190Y-84058095D01*
X152169809Y-84105714D01*
X152265047Y-84153333D01*
X152407904Y-84153333D01*
X152503142Y-84105714D01*
X152550761Y-84058095D01*
X152598380Y-83962857D01*
X152598380Y-83581904D01*
X151598380Y-83581904D01*
X151598380Y-83915238D01*
X151646000Y-84010476D01*
X151693619Y-84058095D01*
X151788857Y-84105714D01*
X151884095Y-84105714D01*
X151979333Y-84058095D01*
X152026952Y-84010476D01*
X152074571Y-83915238D01*
X152074571Y-83581904D01*
X151598380Y-84486666D02*
X151598380Y-85153333D01*
X152598380Y-84724761D01*
X149058380Y-82534285D02*
X149058380Y-83105714D01*
X150058380Y-82820000D02*
X149058380Y-82820000D01*
X149963142Y-84010476D02*
X150010761Y-83962857D01*
X150058380Y-83820000D01*
X150058380Y-83724761D01*
X150010761Y-83581904D01*
X149915523Y-83486666D01*
X149820285Y-83439047D01*
X149629809Y-83391428D01*
X149486952Y-83391428D01*
X149296476Y-83439047D01*
X149201238Y-83486666D01*
X149106000Y-83581904D01*
X149058380Y-83724761D01*
X149058380Y-83820000D01*
X149106000Y-83962857D01*
X149153619Y-84010476D01*
X150058380Y-84439047D02*
X149058380Y-84439047D01*
X150058380Y-85010476D02*
X149486952Y-84581904D01*
X149058380Y-85010476D02*
X149629809Y-84439047D01*
D11*
%TO.C,J1*%
X159064000Y-107950000D02*
X159064000Y-106620000D01*
X159064000Y-106620000D02*
X157734000Y-106620000D01*
X159064000Y-109220000D02*
X156464000Y-109220000D01*
X156464000Y-109220000D02*
X156464000Y-106620000D01*
X156464000Y-106620000D02*
X146244000Y-106620000D01*
X146244000Y-111820000D02*
X146244000Y-106620000D01*
X159064000Y-111820000D02*
X146244000Y-111820000D01*
X159064000Y-111820000D02*
X159064000Y-109220000D01*
%TO.C,BT1*%
X137978000Y-95740000D02*
X143978000Y-95740000D01*
X137978000Y-103140000D02*
X143978000Y-103140000D01*
X145978000Y-97440000D02*
X145978000Y-101440000D01*
X145978000Y-101440000D02*
X143978000Y-103140000D01*
X145978000Y-97440000D02*
X143978000Y-95740000D01*
X137982585Y-101831383D02*
G75*
G03*
X137978000Y-97040000I-4504585J2391383D01*
G01*
X137984028Y-101832627D02*
G75*
G03*
X137978000Y-103143723I393972J-657373D01*
G01*
X137987327Y-95734352D02*
G75*
G03*
X137978000Y-97040000I390673J-655648D01*
G01*
%TO.C,U2*%
X156592000Y-92912000D02*
X158407000Y-92912000D01*
X156592000Y-92657000D02*
X156592000Y-92912000D01*
X152732000Y-92657000D02*
X156592000Y-92657000D01*
X148872000Y-92657000D02*
X148872000Y-92912000D01*
X152732000Y-92657000D02*
X148872000Y-92657000D01*
X156592000Y-103177000D02*
X156592000Y-102922000D01*
X152732000Y-103177000D02*
X156592000Y-103177000D01*
X148872000Y-103177000D02*
X148872000Y-102922000D01*
X152732000Y-103177000D02*
X148872000Y-103177000D01*
%TO.C,R4*%
X152856000Y-89832922D02*
X152856000Y-90350078D01*
X151436000Y-89832922D02*
X151436000Y-90350078D01*
%TO.C,R3*%
X148538000Y-89832922D02*
X148538000Y-90350078D01*
X147118000Y-89832922D02*
X147118000Y-90350078D01*
%TO.C,R2*%
X144474000Y-89832922D02*
X144474000Y-90350078D01*
X143054000Y-89832922D02*
X143054000Y-90350078D01*
%TO.C,JTAG1*%
X158046000Y-82025000D02*
X158046000Y-80455000D01*
X157226000Y-82025000D02*
X158046000Y-82025000D01*
X141546000Y-68035000D02*
X141546000Y-74035000D01*
X142426000Y-68035000D02*
X141546000Y-68035000D01*
X142426000Y-74035000D02*
X142426000Y-68035000D01*
X141546000Y-78885000D02*
X141546000Y-76775000D01*
X142426000Y-78885000D02*
X142426000Y-76775000D01*
X144086000Y-68035000D02*
X144086000Y-74035000D01*
X144966000Y-68035000D02*
X144086000Y-68035000D01*
X144966000Y-74035000D02*
X144966000Y-68035000D01*
X144086000Y-78885000D02*
X144086000Y-76775000D01*
X144966000Y-78885000D02*
X144966000Y-76775000D01*
X146626000Y-68035000D02*
X146626000Y-74035000D01*
X147506000Y-68035000D02*
X146626000Y-68035000D01*
X147506000Y-74035000D02*
X147506000Y-68035000D01*
X146626000Y-78885000D02*
X146626000Y-76775000D01*
X147506000Y-78885000D02*
X147506000Y-76775000D01*
X149166000Y-68035000D02*
X149166000Y-74035000D01*
X150046000Y-68035000D02*
X149166000Y-68035000D01*
X150046000Y-74035000D02*
X150046000Y-68035000D01*
X149166000Y-78885000D02*
X149166000Y-76775000D01*
X150046000Y-78885000D02*
X150046000Y-76775000D01*
X151706000Y-68035000D02*
X151706000Y-74035000D01*
X152586000Y-68035000D02*
X151706000Y-68035000D01*
X152586000Y-74035000D02*
X152586000Y-68035000D01*
X151706000Y-78885000D02*
X151706000Y-76775000D01*
X152586000Y-78885000D02*
X152586000Y-76775000D01*
X154246000Y-68035000D02*
X154246000Y-74035000D01*
X155126000Y-68035000D02*
X154246000Y-68035000D01*
X155126000Y-74035000D02*
X155126000Y-68035000D01*
X154246000Y-78885000D02*
X154246000Y-76775000D01*
X155126000Y-78885000D02*
X155126000Y-76775000D01*
X156786000Y-68035000D02*
X156786000Y-74035000D01*
X157666000Y-68035000D02*
X156786000Y-68035000D01*
X157666000Y-74035000D02*
X157666000Y-68035000D01*
X156786000Y-78885000D02*
X156786000Y-76775000D01*
X157666000Y-78885000D02*
X157666000Y-76775000D01*
X140596000Y-76775000D02*
X158616000Y-76775000D01*
X140596000Y-74035000D02*
X140596000Y-76775000D01*
X158616000Y-74035000D02*
X140596000Y-74035000D01*
X158616000Y-76775000D02*
X158616000Y-74035000D01*
%TO.C,J1*%
D10*
X147399333Y-105116380D02*
X147399333Y-105830666D01*
X147446952Y-105973523D01*
X147542190Y-106068761D01*
X147685047Y-106116380D01*
X147780285Y-106116380D01*
X146399333Y-106116380D02*
X146970761Y-106116380D01*
X146685047Y-106116380D02*
X146685047Y-105116380D01*
X146780285Y-105259238D01*
X146875523Y-105354476D01*
X146970761Y-105402095D01*
%TO.C,BT1*%
X137206571Y-98654285D02*
X137254190Y-98797142D01*
X137301809Y-98844761D01*
X137397047Y-98892380D01*
X137539904Y-98892380D01*
X137635142Y-98844761D01*
X137682761Y-98797142D01*
X137730380Y-98701904D01*
X137730380Y-98320952D01*
X136730380Y-98320952D01*
X136730380Y-98654285D01*
X136778000Y-98749523D01*
X136825619Y-98797142D01*
X136920857Y-98844761D01*
X137016095Y-98844761D01*
X137111333Y-98797142D01*
X137158952Y-98749523D01*
X137206571Y-98654285D01*
X137206571Y-98320952D01*
X136730380Y-99178095D02*
X136730380Y-99749523D01*
X137730380Y-99463809D02*
X136730380Y-99463809D01*
X137730380Y-100606666D02*
X137730380Y-100035238D01*
X137730380Y-100320952D02*
X136730380Y-100320952D01*
X136873238Y-100225714D01*
X136968476Y-100130476D01*
X137016095Y-100035238D01*
%TO.C,U2*%
X156209904Y-91146380D02*
X156209904Y-91955904D01*
X156162285Y-92051142D01*
X156114666Y-92098761D01*
X156019428Y-92146380D01*
X155828952Y-92146380D01*
X155733714Y-92098761D01*
X155686095Y-92051142D01*
X155638476Y-91955904D01*
X155638476Y-91146380D01*
X155209904Y-91241619D02*
X155162285Y-91194000D01*
X155067047Y-91146380D01*
X154828952Y-91146380D01*
X154733714Y-91194000D01*
X154686095Y-91241619D01*
X154638476Y-91336857D01*
X154638476Y-91432095D01*
X154686095Y-91574952D01*
X155257523Y-92146380D01*
X154638476Y-92146380D01*
%TO.C,R4*%
X150566380Y-90257333D02*
X150090190Y-89924000D01*
X150566380Y-89685904D02*
X149566380Y-89685904D01*
X149566380Y-90066857D01*
X149614000Y-90162095D01*
X149661619Y-90209714D01*
X149756857Y-90257333D01*
X149899714Y-90257333D01*
X149994952Y-90209714D01*
X150042571Y-90162095D01*
X150090190Y-90066857D01*
X150090190Y-89685904D01*
X149899714Y-91114476D02*
X150566380Y-91114476D01*
X149518761Y-90876380D02*
X150233047Y-90638285D01*
X150233047Y-91257333D01*
%TO.C,R3*%
X146630380Y-89924833D02*
X146154190Y-89591500D01*
X146630380Y-89353404D02*
X145630380Y-89353404D01*
X145630380Y-89734357D01*
X145678000Y-89829595D01*
X145725619Y-89877214D01*
X145820857Y-89924833D01*
X145963714Y-89924833D01*
X146058952Y-89877214D01*
X146106571Y-89829595D01*
X146154190Y-89734357D01*
X146154190Y-89353404D01*
X145630380Y-90258166D02*
X145630380Y-90877214D01*
X146011333Y-90543880D01*
X146011333Y-90686738D01*
X146058952Y-90781976D01*
X146106571Y-90829595D01*
X146201809Y-90877214D01*
X146439904Y-90877214D01*
X146535142Y-90829595D01*
X146582761Y-90781976D01*
X146630380Y-90686738D01*
X146630380Y-90401023D01*
X146582761Y-90305785D01*
X146535142Y-90258166D01*
%TO.C,R2*%
X142566380Y-89924833D02*
X142090190Y-89591500D01*
X142566380Y-89353404D02*
X141566380Y-89353404D01*
X141566380Y-89734357D01*
X141614000Y-89829595D01*
X141661619Y-89877214D01*
X141756857Y-89924833D01*
X141899714Y-89924833D01*
X141994952Y-89877214D01*
X142042571Y-89829595D01*
X142090190Y-89734357D01*
X142090190Y-89353404D01*
X141661619Y-90305785D02*
X141614000Y-90353404D01*
X141566380Y-90448642D01*
X141566380Y-90686738D01*
X141614000Y-90781976D01*
X141661619Y-90829595D01*
X141756857Y-90877214D01*
X141852095Y-90877214D01*
X141994952Y-90829595D01*
X142566380Y-90258166D01*
X142566380Y-90877214D01*
%TO.C,JTAG1*%
X151502857Y-74890380D02*
X151502857Y-75604666D01*
X151550476Y-75747523D01*
X151645714Y-75842761D01*
X151788571Y-75890380D01*
X151883809Y-75890380D01*
X151169523Y-74890380D02*
X150598095Y-74890380D01*
X150883809Y-75890380D02*
X150883809Y-74890380D01*
X150312380Y-75604666D02*
X149836190Y-75604666D01*
X150407619Y-75890380D02*
X150074285Y-74890380D01*
X149740952Y-75890380D01*
X148883809Y-74938000D02*
X148979047Y-74890380D01*
X149121904Y-74890380D01*
X149264761Y-74938000D01*
X149360000Y-75033238D01*
X149407619Y-75128476D01*
X149455238Y-75318952D01*
X149455238Y-75461809D01*
X149407619Y-75652285D01*
X149360000Y-75747523D01*
X149264761Y-75842761D01*
X149121904Y-75890380D01*
X149026666Y-75890380D01*
X148883809Y-75842761D01*
X148836190Y-75795142D01*
X148836190Y-75461809D01*
X149026666Y-75461809D01*
X147883809Y-75890380D02*
X148455238Y-75890380D01*
X148169523Y-75890380D02*
X148169523Y-74890380D01*
X148264761Y-75033238D01*
X148360000Y-75128476D01*
X148455238Y-75176095D01*
%TD*%
M02*
