%TF.GenerationSoftware,KiCad,Pcbnew,(5.1.6)-1*%
%TF.CreationDate,2020-11-21T19:48:35+02:00*%
%TF.ProjectId,zigbee-raspberry-module,7a696762-6565-42d7-9261-737062657272,rev?*%
%TF.SameCoordinates,Original*%
%TF.FileFunction,Soldermask,Bot*%
%TF.FilePolarity,Negative*%
%FSLAX46Y46*%
G04 Gerber Fmt 4.6, Leading zero omitted, Abs format (unit mm)*
G04 Created by KiCad (PCBNEW (5.1.6)-1) date 2020-11-21 19:48:35*
%MOMM*%
%LPD*%
G01*
G04 APERTURE LIST*
%ADD10C,8.230000*%
%ADD11R,3.300000X3.300000*%
%ADD12O,1.800000X1.800000*%
%ADD13R,1.800000X1.800000*%
%ADD14R,1.100000X2.600000*%
G04 APERTURE END LIST*
D10*
%TO.C,J2*%
X141224000Y-96012000D03*
D11*
X141224000Y-103707000D03*
X141224000Y-88317000D03*
%TD*%
D12*
%TO.C,J1*%
X147574000Y-110490000D03*
X147574000Y-107950000D03*
X150114000Y-110490000D03*
X150114000Y-107950000D03*
X152654000Y-110490000D03*
X152654000Y-107950000D03*
X155194000Y-110490000D03*
X155194000Y-107950000D03*
X157734000Y-110490000D03*
D13*
X157734000Y-107950000D03*
%TD*%
%TO.C,R2*%
G36*
G01*
X149124750Y-89808000D02*
X150087250Y-89808000D01*
G75*
G02*
X150356000Y-90076750I0J-268750D01*
G01*
X150356000Y-90614250D01*
G75*
G02*
X150087250Y-90883000I-268750J0D01*
G01*
X149124750Y-90883000D01*
G75*
G02*
X148856000Y-90614250I0J268750D01*
G01*
X148856000Y-90076750D01*
G75*
G02*
X149124750Y-89808000I268750J0D01*
G01*
G37*
G36*
G01*
X149124750Y-87933000D02*
X150087250Y-87933000D01*
G75*
G02*
X150356000Y-88201750I0J-268750D01*
G01*
X150356000Y-88739250D01*
G75*
G02*
X150087250Y-89008000I-268750J0D01*
G01*
X149124750Y-89008000D01*
G75*
G02*
X148856000Y-88739250I0J268750D01*
G01*
X148856000Y-88201750D01*
G75*
G02*
X149124750Y-87933000I268750J0D01*
G01*
G37*
%TD*%
%TO.C,R3*%
G36*
G01*
X152934750Y-89808000D02*
X153897250Y-89808000D01*
G75*
G02*
X154166000Y-90076750I0J-268750D01*
G01*
X154166000Y-90614250D01*
G75*
G02*
X153897250Y-90883000I-268750J0D01*
G01*
X152934750Y-90883000D01*
G75*
G02*
X152666000Y-90614250I0J268750D01*
G01*
X152666000Y-90076750D01*
G75*
G02*
X152934750Y-89808000I268750J0D01*
G01*
G37*
G36*
G01*
X152934750Y-87933000D02*
X153897250Y-87933000D01*
G75*
G02*
X154166000Y-88201750I0J-268750D01*
G01*
X154166000Y-88739250D01*
G75*
G02*
X153897250Y-89008000I-268750J0D01*
G01*
X152934750Y-89008000D01*
G75*
G02*
X152666000Y-88739250I0J268750D01*
G01*
X152666000Y-88201750D01*
G75*
G02*
X152934750Y-87933000I268750J0D01*
G01*
G37*
%TD*%
%TO.C,R4*%
G36*
G01*
X156998750Y-89808000D02*
X157961250Y-89808000D01*
G75*
G02*
X158230000Y-90076750I0J-268750D01*
G01*
X158230000Y-90614250D01*
G75*
G02*
X157961250Y-90883000I-268750J0D01*
G01*
X156998750Y-90883000D01*
G75*
G02*
X156730000Y-90614250I0J268750D01*
G01*
X156730000Y-90076750D01*
G75*
G02*
X156998750Y-89808000I268750J0D01*
G01*
G37*
G36*
G01*
X156998750Y-87933000D02*
X157961250Y-87933000D01*
G75*
G02*
X158230000Y-88201750I0J-268750D01*
G01*
X158230000Y-88739250D01*
G75*
G02*
X157961250Y-89008000I-268750J0D01*
G01*
X156998750Y-89008000D01*
G75*
G02*
X156730000Y-88739250I0J268750D01*
G01*
X156730000Y-88201750D01*
G75*
G02*
X156998750Y-87933000I268750J0D01*
G01*
G37*
%TD*%
%TO.C,U2*%
G36*
G01*
X149587000Y-93297000D02*
X149587000Y-93647000D01*
G75*
G02*
X149412000Y-93822000I-175000J0D01*
G01*
X147612000Y-93822000D01*
G75*
G02*
X147437000Y-93647000I0J175000D01*
G01*
X147437000Y-93297000D01*
G75*
G02*
X147612000Y-93122000I175000J0D01*
G01*
X149412000Y-93122000D01*
G75*
G02*
X149587000Y-93297000I0J-175000D01*
G01*
G37*
G36*
G01*
X149587000Y-94567000D02*
X149587000Y-94917000D01*
G75*
G02*
X149412000Y-95092000I-175000J0D01*
G01*
X147612000Y-95092000D01*
G75*
G02*
X147437000Y-94917000I0J175000D01*
G01*
X147437000Y-94567000D01*
G75*
G02*
X147612000Y-94392000I175000J0D01*
G01*
X149412000Y-94392000D01*
G75*
G02*
X149587000Y-94567000I0J-175000D01*
G01*
G37*
G36*
G01*
X149587000Y-95837000D02*
X149587000Y-96187000D01*
G75*
G02*
X149412000Y-96362000I-175000J0D01*
G01*
X147612000Y-96362000D01*
G75*
G02*
X147437000Y-96187000I0J175000D01*
G01*
X147437000Y-95837000D01*
G75*
G02*
X147612000Y-95662000I175000J0D01*
G01*
X149412000Y-95662000D01*
G75*
G02*
X149587000Y-95837000I0J-175000D01*
G01*
G37*
G36*
G01*
X149587000Y-97107000D02*
X149587000Y-97457000D01*
G75*
G02*
X149412000Y-97632000I-175000J0D01*
G01*
X147612000Y-97632000D01*
G75*
G02*
X147437000Y-97457000I0J175000D01*
G01*
X147437000Y-97107000D01*
G75*
G02*
X147612000Y-96932000I175000J0D01*
G01*
X149412000Y-96932000D01*
G75*
G02*
X149587000Y-97107000I0J-175000D01*
G01*
G37*
G36*
G01*
X149587000Y-98377000D02*
X149587000Y-98727000D01*
G75*
G02*
X149412000Y-98902000I-175000J0D01*
G01*
X147612000Y-98902000D01*
G75*
G02*
X147437000Y-98727000I0J175000D01*
G01*
X147437000Y-98377000D01*
G75*
G02*
X147612000Y-98202000I175000J0D01*
G01*
X149412000Y-98202000D01*
G75*
G02*
X149587000Y-98377000I0J-175000D01*
G01*
G37*
G36*
G01*
X149587000Y-99647000D02*
X149587000Y-99997000D01*
G75*
G02*
X149412000Y-100172000I-175000J0D01*
G01*
X147612000Y-100172000D01*
G75*
G02*
X147437000Y-99997000I0J175000D01*
G01*
X147437000Y-99647000D01*
G75*
G02*
X147612000Y-99472000I175000J0D01*
G01*
X149412000Y-99472000D01*
G75*
G02*
X149587000Y-99647000I0J-175000D01*
G01*
G37*
G36*
G01*
X149587000Y-100917000D02*
X149587000Y-101267000D01*
G75*
G02*
X149412000Y-101442000I-175000J0D01*
G01*
X147612000Y-101442000D01*
G75*
G02*
X147437000Y-101267000I0J175000D01*
G01*
X147437000Y-100917000D01*
G75*
G02*
X147612000Y-100742000I175000J0D01*
G01*
X149412000Y-100742000D01*
G75*
G02*
X149587000Y-100917000I0J-175000D01*
G01*
G37*
G36*
G01*
X149587000Y-102187000D02*
X149587000Y-102537000D01*
G75*
G02*
X149412000Y-102712000I-175000J0D01*
G01*
X147612000Y-102712000D01*
G75*
G02*
X147437000Y-102537000I0J175000D01*
G01*
X147437000Y-102187000D01*
G75*
G02*
X147612000Y-102012000I175000J0D01*
G01*
X149412000Y-102012000D01*
G75*
G02*
X149587000Y-102187000I0J-175000D01*
G01*
G37*
G36*
G01*
X158887000Y-102187000D02*
X158887000Y-102537000D01*
G75*
G02*
X158712000Y-102712000I-175000J0D01*
G01*
X156912000Y-102712000D01*
G75*
G02*
X156737000Y-102537000I0J175000D01*
G01*
X156737000Y-102187000D01*
G75*
G02*
X156912000Y-102012000I175000J0D01*
G01*
X158712000Y-102012000D01*
G75*
G02*
X158887000Y-102187000I0J-175000D01*
G01*
G37*
G36*
G01*
X158887000Y-100917000D02*
X158887000Y-101267000D01*
G75*
G02*
X158712000Y-101442000I-175000J0D01*
G01*
X156912000Y-101442000D01*
G75*
G02*
X156737000Y-101267000I0J175000D01*
G01*
X156737000Y-100917000D01*
G75*
G02*
X156912000Y-100742000I175000J0D01*
G01*
X158712000Y-100742000D01*
G75*
G02*
X158887000Y-100917000I0J-175000D01*
G01*
G37*
G36*
G01*
X158887000Y-99647000D02*
X158887000Y-99997000D01*
G75*
G02*
X158712000Y-100172000I-175000J0D01*
G01*
X156912000Y-100172000D01*
G75*
G02*
X156737000Y-99997000I0J175000D01*
G01*
X156737000Y-99647000D01*
G75*
G02*
X156912000Y-99472000I175000J0D01*
G01*
X158712000Y-99472000D01*
G75*
G02*
X158887000Y-99647000I0J-175000D01*
G01*
G37*
G36*
G01*
X158887000Y-98377000D02*
X158887000Y-98727000D01*
G75*
G02*
X158712000Y-98902000I-175000J0D01*
G01*
X156912000Y-98902000D01*
G75*
G02*
X156737000Y-98727000I0J175000D01*
G01*
X156737000Y-98377000D01*
G75*
G02*
X156912000Y-98202000I175000J0D01*
G01*
X158712000Y-98202000D01*
G75*
G02*
X158887000Y-98377000I0J-175000D01*
G01*
G37*
G36*
G01*
X158887000Y-97107000D02*
X158887000Y-97457000D01*
G75*
G02*
X158712000Y-97632000I-175000J0D01*
G01*
X156912000Y-97632000D01*
G75*
G02*
X156737000Y-97457000I0J175000D01*
G01*
X156737000Y-97107000D01*
G75*
G02*
X156912000Y-96932000I175000J0D01*
G01*
X158712000Y-96932000D01*
G75*
G02*
X158887000Y-97107000I0J-175000D01*
G01*
G37*
G36*
G01*
X158887000Y-95837000D02*
X158887000Y-96187000D01*
G75*
G02*
X158712000Y-96362000I-175000J0D01*
G01*
X156912000Y-96362000D01*
G75*
G02*
X156737000Y-96187000I0J175000D01*
G01*
X156737000Y-95837000D01*
G75*
G02*
X156912000Y-95662000I175000J0D01*
G01*
X158712000Y-95662000D01*
G75*
G02*
X158887000Y-95837000I0J-175000D01*
G01*
G37*
G36*
G01*
X158887000Y-94567000D02*
X158887000Y-94917000D01*
G75*
G02*
X158712000Y-95092000I-175000J0D01*
G01*
X156912000Y-95092000D01*
G75*
G02*
X156737000Y-94917000I0J175000D01*
G01*
X156737000Y-94567000D01*
G75*
G02*
X156912000Y-94392000I175000J0D01*
G01*
X158712000Y-94392000D01*
G75*
G02*
X158887000Y-94567000I0J-175000D01*
G01*
G37*
G36*
G01*
X158887000Y-93297000D02*
X158887000Y-93647000D01*
G75*
G02*
X158712000Y-93822000I-175000J0D01*
G01*
X156912000Y-93822000D01*
G75*
G02*
X156737000Y-93647000I0J175000D01*
G01*
X156737000Y-93297000D01*
G75*
G02*
X156912000Y-93122000I175000J0D01*
G01*
X158712000Y-93122000D01*
G75*
G02*
X158887000Y-93297000I0J-175000D01*
G01*
G37*
%TD*%
D14*
%TO.C,JTAG1*%
X141986000Y-80455000D03*
X144526000Y-80455000D03*
X147066000Y-80455000D03*
X149606000Y-80455000D03*
X152146000Y-80455000D03*
X154686000Y-80455000D03*
X157226000Y-80455000D03*
%TD*%
M02*
