%TF.GenerationSoftware,KiCad,Pcbnew,(5.1.6)-1*%
%TF.CreationDate,2020-11-21T19:48:35+02:00*%
%TF.ProjectId,zigbee-raspberry-module,7a696762-6565-42d7-9261-737062657272,rev?*%
%TF.SameCoordinates,Original*%
%TF.FileFunction,Legend,Top*%
%TF.FilePolarity,Positive*%
%FSLAX46Y46*%
G04 Gerber Fmt 4.6, Leading zero omitted, Abs format (unit mm)*
G04 Created by KiCad (PCBNEW (5.1.6)-1) date 2020-11-21 19:48:35*
%MOMM*%
%LPD*%
G01*
G04 APERTURE LIST*
%ADD10C,0.120000*%
%ADD11C,0.150000*%
G04 APERTURE END LIST*
D10*
%TO.C,C1*%
X141200000Y-103678000D02*
X145110000Y-103678000D01*
X141200000Y-101808000D02*
X141200000Y-103678000D01*
X145110000Y-101808000D02*
X141200000Y-101808000D01*
%TO.C,FLASH*%
X156844000Y-101216000D02*
X156844000Y-101516000D01*
X153544000Y-101216000D02*
X156844000Y-101216000D01*
X153544000Y-101516000D02*
X153544000Y-101216000D01*
X156844000Y-104016000D02*
X156844000Y-103716000D01*
X153544000Y-104016000D02*
X156844000Y-104016000D01*
X153544000Y-103716000D02*
X153544000Y-104016000D01*
%TO.C,RESET*%
X151002000Y-101516000D02*
X151002000Y-101216000D01*
X151002000Y-101216000D02*
X147702000Y-101216000D01*
X147702000Y-101216000D02*
X147702000Y-101516000D01*
X151002000Y-103716000D02*
X151002000Y-104016000D01*
X151002000Y-104016000D02*
X147702000Y-104016000D01*
X147702000Y-104016000D02*
X147702000Y-103716000D01*
%TO.C,U1*%
X137190000Y-66100001D02*
X157690000Y-66100001D01*
X137190000Y-66100001D02*
X137190000Y-81713701D01*
X137190000Y-99100001D02*
X141382100Y-99100001D01*
X157690000Y-66100001D02*
X157690000Y-81713701D01*
X137190000Y-99100001D02*
X137190000Y-97474401D01*
X157690000Y-99100001D02*
X157690000Y-97474401D01*
X153497900Y-99100001D02*
X157690000Y-99100001D01*
%TO.C,R1*%
X138425422Y-102033000D02*
X138942578Y-102033000D01*
X138425422Y-103453000D02*
X138942578Y-103453000D01*
%TO.C,C1*%
D11*
X143343333Y-105513142D02*
X143295714Y-105560761D01*
X143152857Y-105608380D01*
X143057619Y-105608380D01*
X142914761Y-105560761D01*
X142819523Y-105465523D01*
X142771904Y-105370285D01*
X142724285Y-105179809D01*
X142724285Y-105036952D01*
X142771904Y-104846476D01*
X142819523Y-104751238D01*
X142914761Y-104656000D01*
X143057619Y-104608380D01*
X143152857Y-104608380D01*
X143295714Y-104656000D01*
X143343333Y-104703619D01*
X144295714Y-105608380D02*
X143724285Y-105608380D01*
X144010000Y-105608380D02*
X144010000Y-104608380D01*
X143914761Y-104751238D01*
X143819523Y-104846476D01*
X143724285Y-104894095D01*
%TO.C,FLASH*%
X153503523Y-105084571D02*
X153170190Y-105084571D01*
X153170190Y-105608380D02*
X153170190Y-104608380D01*
X153646380Y-104608380D01*
X154503523Y-105608380D02*
X154027333Y-105608380D01*
X154027333Y-104608380D01*
X154789238Y-105322666D02*
X155265428Y-105322666D01*
X154694000Y-105608380D02*
X155027333Y-104608380D01*
X155360666Y-105608380D01*
X155646380Y-105560761D02*
X155789238Y-105608380D01*
X156027333Y-105608380D01*
X156122571Y-105560761D01*
X156170190Y-105513142D01*
X156217809Y-105417904D01*
X156217809Y-105322666D01*
X156170190Y-105227428D01*
X156122571Y-105179809D01*
X156027333Y-105132190D01*
X155836857Y-105084571D01*
X155741619Y-105036952D01*
X155694000Y-104989333D01*
X155646380Y-104894095D01*
X155646380Y-104798857D01*
X155694000Y-104703619D01*
X155741619Y-104656000D01*
X155836857Y-104608380D01*
X156074952Y-104608380D01*
X156217809Y-104656000D01*
X156646380Y-105608380D02*
X156646380Y-104608380D01*
X156646380Y-105084571D02*
X157217809Y-105084571D01*
X157217809Y-105608380D02*
X157217809Y-104608380D01*
%TO.C,RESET*%
X147645619Y-105608380D02*
X147312285Y-105132190D01*
X147074190Y-105608380D02*
X147074190Y-104608380D01*
X147455142Y-104608380D01*
X147550380Y-104656000D01*
X147598000Y-104703619D01*
X147645619Y-104798857D01*
X147645619Y-104941714D01*
X147598000Y-105036952D01*
X147550380Y-105084571D01*
X147455142Y-105132190D01*
X147074190Y-105132190D01*
X148074190Y-105084571D02*
X148407523Y-105084571D01*
X148550380Y-105608380D02*
X148074190Y-105608380D01*
X148074190Y-104608380D01*
X148550380Y-104608380D01*
X148931333Y-105560761D02*
X149074190Y-105608380D01*
X149312285Y-105608380D01*
X149407523Y-105560761D01*
X149455142Y-105513142D01*
X149502761Y-105417904D01*
X149502761Y-105322666D01*
X149455142Y-105227428D01*
X149407523Y-105179809D01*
X149312285Y-105132190D01*
X149121809Y-105084571D01*
X149026571Y-105036952D01*
X148978952Y-104989333D01*
X148931333Y-104894095D01*
X148931333Y-104798857D01*
X148978952Y-104703619D01*
X149026571Y-104656000D01*
X149121809Y-104608380D01*
X149359904Y-104608380D01*
X149502761Y-104656000D01*
X149931333Y-105084571D02*
X150264666Y-105084571D01*
X150407523Y-105608380D02*
X149931333Y-105608380D01*
X149931333Y-104608380D01*
X150407523Y-104608380D01*
X150693238Y-104608380D02*
X151264666Y-104608380D01*
X150978952Y-105608380D02*
X150978952Y-104608380D01*
%TO.C,U1*%
X136398095Y-99528380D02*
X136398095Y-100337904D01*
X136445714Y-100433142D01*
X136493333Y-100480761D01*
X136588571Y-100528380D01*
X136779047Y-100528380D01*
X136874285Y-100480761D01*
X136921904Y-100433142D01*
X136969523Y-100337904D01*
X136969523Y-99528380D01*
X137969523Y-100528380D02*
X137398095Y-100528380D01*
X137683809Y-100528380D02*
X137683809Y-99528380D01*
X137588571Y-99671238D01*
X137493333Y-99766476D01*
X137398095Y-99814095D01*
%TO.C,R1*%
X138390333Y-105608380D02*
X138057000Y-105132190D01*
X137818904Y-105608380D02*
X137818904Y-104608380D01*
X138199857Y-104608380D01*
X138295095Y-104656000D01*
X138342714Y-104703619D01*
X138390333Y-104798857D01*
X138390333Y-104941714D01*
X138342714Y-105036952D01*
X138295095Y-105084571D01*
X138199857Y-105132190D01*
X137818904Y-105132190D01*
X139342714Y-105608380D02*
X138771285Y-105608380D01*
X139057000Y-105608380D02*
X139057000Y-104608380D01*
X138961761Y-104751238D01*
X138866523Y-104846476D01*
X138771285Y-104894095D01*
%TD*%
M02*
