%TF.GenerationSoftware,KiCad,Pcbnew,(5.1.6)-1*%
%TF.CreationDate,2020-11-21T19:48:35+02:00*%
%TF.ProjectId,zigbee-raspberry-module,7a696762-6565-42d7-9261-737062657272,rev?*%
%TF.SameCoordinates,Original*%
%TF.FileFunction,Paste,Bot*%
%TF.FilePolarity,Positive*%
%FSLAX46Y46*%
G04 Gerber Fmt 4.6, Leading zero omitted, Abs format (unit mm)*
G04 Created by KiCad (PCBNEW (5.1.6)-1) date 2020-11-21 19:48:35*
%MOMM*%
%LPD*%
G01*
G04 APERTURE LIST*
%ADD10C,8.130000*%
%ADD11R,3.200000X3.200000*%
%ADD12R,1.000000X2.500000*%
G04 APERTURE END LIST*
D10*
%TO.C,J2*%
X141224000Y-96012000D03*
D11*
X141224000Y-103707000D03*
X141224000Y-88317000D03*
%TD*%
%TO.C,R2*%
G36*
G01*
X149149750Y-89858000D02*
X150062250Y-89858000D01*
G75*
G02*
X150306000Y-90101750I0J-243750D01*
G01*
X150306000Y-90589250D01*
G75*
G02*
X150062250Y-90833000I-243750J0D01*
G01*
X149149750Y-90833000D01*
G75*
G02*
X148906000Y-90589250I0J243750D01*
G01*
X148906000Y-90101750D01*
G75*
G02*
X149149750Y-89858000I243750J0D01*
G01*
G37*
G36*
G01*
X149149750Y-87983000D02*
X150062250Y-87983000D01*
G75*
G02*
X150306000Y-88226750I0J-243750D01*
G01*
X150306000Y-88714250D01*
G75*
G02*
X150062250Y-88958000I-243750J0D01*
G01*
X149149750Y-88958000D01*
G75*
G02*
X148906000Y-88714250I0J243750D01*
G01*
X148906000Y-88226750D01*
G75*
G02*
X149149750Y-87983000I243750J0D01*
G01*
G37*
%TD*%
%TO.C,R3*%
G36*
G01*
X152959750Y-89858000D02*
X153872250Y-89858000D01*
G75*
G02*
X154116000Y-90101750I0J-243750D01*
G01*
X154116000Y-90589250D01*
G75*
G02*
X153872250Y-90833000I-243750J0D01*
G01*
X152959750Y-90833000D01*
G75*
G02*
X152716000Y-90589250I0J243750D01*
G01*
X152716000Y-90101750D01*
G75*
G02*
X152959750Y-89858000I243750J0D01*
G01*
G37*
G36*
G01*
X152959750Y-87983000D02*
X153872250Y-87983000D01*
G75*
G02*
X154116000Y-88226750I0J-243750D01*
G01*
X154116000Y-88714250D01*
G75*
G02*
X153872250Y-88958000I-243750J0D01*
G01*
X152959750Y-88958000D01*
G75*
G02*
X152716000Y-88714250I0J243750D01*
G01*
X152716000Y-88226750D01*
G75*
G02*
X152959750Y-87983000I243750J0D01*
G01*
G37*
%TD*%
%TO.C,R4*%
G36*
G01*
X157023750Y-89858000D02*
X157936250Y-89858000D01*
G75*
G02*
X158180000Y-90101750I0J-243750D01*
G01*
X158180000Y-90589250D01*
G75*
G02*
X157936250Y-90833000I-243750J0D01*
G01*
X157023750Y-90833000D01*
G75*
G02*
X156780000Y-90589250I0J243750D01*
G01*
X156780000Y-90101750D01*
G75*
G02*
X157023750Y-89858000I243750J0D01*
G01*
G37*
G36*
G01*
X157023750Y-87983000D02*
X157936250Y-87983000D01*
G75*
G02*
X158180000Y-88226750I0J-243750D01*
G01*
X158180000Y-88714250D01*
G75*
G02*
X157936250Y-88958000I-243750J0D01*
G01*
X157023750Y-88958000D01*
G75*
G02*
X156780000Y-88714250I0J243750D01*
G01*
X156780000Y-88226750D01*
G75*
G02*
X157023750Y-87983000I243750J0D01*
G01*
G37*
%TD*%
%TO.C,U2*%
G36*
G01*
X149537000Y-93322000D02*
X149537000Y-93622000D01*
G75*
G02*
X149387000Y-93772000I-150000J0D01*
G01*
X147637000Y-93772000D01*
G75*
G02*
X147487000Y-93622000I0J150000D01*
G01*
X147487000Y-93322000D01*
G75*
G02*
X147637000Y-93172000I150000J0D01*
G01*
X149387000Y-93172000D01*
G75*
G02*
X149537000Y-93322000I0J-150000D01*
G01*
G37*
G36*
G01*
X149537000Y-94592000D02*
X149537000Y-94892000D01*
G75*
G02*
X149387000Y-95042000I-150000J0D01*
G01*
X147637000Y-95042000D01*
G75*
G02*
X147487000Y-94892000I0J150000D01*
G01*
X147487000Y-94592000D01*
G75*
G02*
X147637000Y-94442000I150000J0D01*
G01*
X149387000Y-94442000D01*
G75*
G02*
X149537000Y-94592000I0J-150000D01*
G01*
G37*
G36*
G01*
X149537000Y-95862000D02*
X149537000Y-96162000D01*
G75*
G02*
X149387000Y-96312000I-150000J0D01*
G01*
X147637000Y-96312000D01*
G75*
G02*
X147487000Y-96162000I0J150000D01*
G01*
X147487000Y-95862000D01*
G75*
G02*
X147637000Y-95712000I150000J0D01*
G01*
X149387000Y-95712000D01*
G75*
G02*
X149537000Y-95862000I0J-150000D01*
G01*
G37*
G36*
G01*
X149537000Y-97132000D02*
X149537000Y-97432000D01*
G75*
G02*
X149387000Y-97582000I-150000J0D01*
G01*
X147637000Y-97582000D01*
G75*
G02*
X147487000Y-97432000I0J150000D01*
G01*
X147487000Y-97132000D01*
G75*
G02*
X147637000Y-96982000I150000J0D01*
G01*
X149387000Y-96982000D01*
G75*
G02*
X149537000Y-97132000I0J-150000D01*
G01*
G37*
G36*
G01*
X149537000Y-98402000D02*
X149537000Y-98702000D01*
G75*
G02*
X149387000Y-98852000I-150000J0D01*
G01*
X147637000Y-98852000D01*
G75*
G02*
X147487000Y-98702000I0J150000D01*
G01*
X147487000Y-98402000D01*
G75*
G02*
X147637000Y-98252000I150000J0D01*
G01*
X149387000Y-98252000D01*
G75*
G02*
X149537000Y-98402000I0J-150000D01*
G01*
G37*
G36*
G01*
X149537000Y-99672000D02*
X149537000Y-99972000D01*
G75*
G02*
X149387000Y-100122000I-150000J0D01*
G01*
X147637000Y-100122000D01*
G75*
G02*
X147487000Y-99972000I0J150000D01*
G01*
X147487000Y-99672000D01*
G75*
G02*
X147637000Y-99522000I150000J0D01*
G01*
X149387000Y-99522000D01*
G75*
G02*
X149537000Y-99672000I0J-150000D01*
G01*
G37*
G36*
G01*
X149537000Y-100942000D02*
X149537000Y-101242000D01*
G75*
G02*
X149387000Y-101392000I-150000J0D01*
G01*
X147637000Y-101392000D01*
G75*
G02*
X147487000Y-101242000I0J150000D01*
G01*
X147487000Y-100942000D01*
G75*
G02*
X147637000Y-100792000I150000J0D01*
G01*
X149387000Y-100792000D01*
G75*
G02*
X149537000Y-100942000I0J-150000D01*
G01*
G37*
G36*
G01*
X149537000Y-102212000D02*
X149537000Y-102512000D01*
G75*
G02*
X149387000Y-102662000I-150000J0D01*
G01*
X147637000Y-102662000D01*
G75*
G02*
X147487000Y-102512000I0J150000D01*
G01*
X147487000Y-102212000D01*
G75*
G02*
X147637000Y-102062000I150000J0D01*
G01*
X149387000Y-102062000D01*
G75*
G02*
X149537000Y-102212000I0J-150000D01*
G01*
G37*
G36*
G01*
X158837000Y-102212000D02*
X158837000Y-102512000D01*
G75*
G02*
X158687000Y-102662000I-150000J0D01*
G01*
X156937000Y-102662000D01*
G75*
G02*
X156787000Y-102512000I0J150000D01*
G01*
X156787000Y-102212000D01*
G75*
G02*
X156937000Y-102062000I150000J0D01*
G01*
X158687000Y-102062000D01*
G75*
G02*
X158837000Y-102212000I0J-150000D01*
G01*
G37*
G36*
G01*
X158837000Y-100942000D02*
X158837000Y-101242000D01*
G75*
G02*
X158687000Y-101392000I-150000J0D01*
G01*
X156937000Y-101392000D01*
G75*
G02*
X156787000Y-101242000I0J150000D01*
G01*
X156787000Y-100942000D01*
G75*
G02*
X156937000Y-100792000I150000J0D01*
G01*
X158687000Y-100792000D01*
G75*
G02*
X158837000Y-100942000I0J-150000D01*
G01*
G37*
G36*
G01*
X158837000Y-99672000D02*
X158837000Y-99972000D01*
G75*
G02*
X158687000Y-100122000I-150000J0D01*
G01*
X156937000Y-100122000D01*
G75*
G02*
X156787000Y-99972000I0J150000D01*
G01*
X156787000Y-99672000D01*
G75*
G02*
X156937000Y-99522000I150000J0D01*
G01*
X158687000Y-99522000D01*
G75*
G02*
X158837000Y-99672000I0J-150000D01*
G01*
G37*
G36*
G01*
X158837000Y-98402000D02*
X158837000Y-98702000D01*
G75*
G02*
X158687000Y-98852000I-150000J0D01*
G01*
X156937000Y-98852000D01*
G75*
G02*
X156787000Y-98702000I0J150000D01*
G01*
X156787000Y-98402000D01*
G75*
G02*
X156937000Y-98252000I150000J0D01*
G01*
X158687000Y-98252000D01*
G75*
G02*
X158837000Y-98402000I0J-150000D01*
G01*
G37*
G36*
G01*
X158837000Y-97132000D02*
X158837000Y-97432000D01*
G75*
G02*
X158687000Y-97582000I-150000J0D01*
G01*
X156937000Y-97582000D01*
G75*
G02*
X156787000Y-97432000I0J150000D01*
G01*
X156787000Y-97132000D01*
G75*
G02*
X156937000Y-96982000I150000J0D01*
G01*
X158687000Y-96982000D01*
G75*
G02*
X158837000Y-97132000I0J-150000D01*
G01*
G37*
G36*
G01*
X158837000Y-95862000D02*
X158837000Y-96162000D01*
G75*
G02*
X158687000Y-96312000I-150000J0D01*
G01*
X156937000Y-96312000D01*
G75*
G02*
X156787000Y-96162000I0J150000D01*
G01*
X156787000Y-95862000D01*
G75*
G02*
X156937000Y-95712000I150000J0D01*
G01*
X158687000Y-95712000D01*
G75*
G02*
X158837000Y-95862000I0J-150000D01*
G01*
G37*
G36*
G01*
X158837000Y-94592000D02*
X158837000Y-94892000D01*
G75*
G02*
X158687000Y-95042000I-150000J0D01*
G01*
X156937000Y-95042000D01*
G75*
G02*
X156787000Y-94892000I0J150000D01*
G01*
X156787000Y-94592000D01*
G75*
G02*
X156937000Y-94442000I150000J0D01*
G01*
X158687000Y-94442000D01*
G75*
G02*
X158837000Y-94592000I0J-150000D01*
G01*
G37*
G36*
G01*
X158837000Y-93322000D02*
X158837000Y-93622000D01*
G75*
G02*
X158687000Y-93772000I-150000J0D01*
G01*
X156937000Y-93772000D01*
G75*
G02*
X156787000Y-93622000I0J150000D01*
G01*
X156787000Y-93322000D01*
G75*
G02*
X156937000Y-93172000I150000J0D01*
G01*
X158687000Y-93172000D01*
G75*
G02*
X158837000Y-93322000I0J-150000D01*
G01*
G37*
%TD*%
D12*
%TO.C,JTAG1*%
X141986000Y-80455000D03*
X144526000Y-80455000D03*
X147066000Y-80455000D03*
X149606000Y-80455000D03*
X152146000Y-80455000D03*
X154686000Y-80455000D03*
X157226000Y-80455000D03*
%TD*%
M02*
