M48
; DRILL file {KiCad (5.1.6)-1} date 11/21/20 19:48:46
; FORMAT={-:-/ absolute / metric / decimal}
; #@! TF.CreationDate,2020-11-21T19:48:46+02:00
; #@! TF.GenerationSoftware,Kicad,Pcbnew,(5.1.6)-1
; #@! TF.FileFunction,Plated,1,2,PTH
FMAT,2
METRIC
T1C0.400
T2C1.000
%
G90
G05
T1
X140.716Y-83.566
X143.256Y-83.566
X145.796Y-83.566
X146.431Y-102.743
X148.336Y-83.566
X150.876Y-83.566
X153.416Y-83.566
X153.416Y-86.106
X153.67Y-93.218
X153.67Y-95.504
X154.94Y-97.282
X155.369Y-88.471
X155.448Y-93.218
X155.448Y-102.362
X155.956Y-98.552
X156.972Y-106.172
X158.242Y-106.172
T2
X147.574Y-107.95
X147.574Y-110.49
X150.114Y-107.95
X150.114Y-110.49
X152.654Y-107.95
X152.654Y-110.49
X155.194Y-107.95
X155.194Y-110.49
X157.734Y-107.95
X157.734Y-110.49
T0
M30
