%TF.GenerationSoftware,KiCad,Pcbnew,(5.1.6)-1*%
%TF.CreationDate,2020-11-21T19:48:35+02:00*%
%TF.ProjectId,zigbee-raspberry-module,7a696762-6565-42d7-9261-737062657272,rev?*%
%TF.SameCoordinates,Original*%
%TF.FileFunction,Paste,Top*%
%TF.FilePolarity,Positive*%
%FSLAX46Y46*%
G04 Gerber Fmt 4.6, Leading zero omitted, Abs format (unit mm)*
G04 Created by KiCad (PCBNEW (5.1.6)-1) date 2020-11-21 19:48:35*
%MOMM*%
%LPD*%
G01*
G04 APERTURE LIST*
%ADD10R,0.900000X1.700000*%
%ADD11R,2.600000X0.700000*%
%ADD12R,0.700000X2.600000*%
G04 APERTURE END LIST*
%TO.C,C1*%
G36*
G01*
X144160000Y-103168001D02*
X144160000Y-102317999D01*
G75*
G02*
X144409999Y-102068000I249999J0D01*
G01*
X145310001Y-102068000D01*
G75*
G02*
X145560000Y-102317999I0J-249999D01*
G01*
X145560000Y-103168001D01*
G75*
G02*
X145310001Y-103418000I-249999J0D01*
G01*
X144409999Y-103418000D01*
G75*
G02*
X144160000Y-103168001I0J249999D01*
G01*
G37*
G36*
G01*
X141460000Y-103168001D02*
X141460000Y-102317999D01*
G75*
G02*
X141709999Y-102068000I249999J0D01*
G01*
X142610001Y-102068000D01*
G75*
G02*
X142860000Y-102317999I0J-249999D01*
G01*
X142860000Y-103168001D01*
G75*
G02*
X142610001Y-103418000I-249999J0D01*
G01*
X141709999Y-103418000D01*
G75*
G02*
X141460000Y-103168001I0J249999D01*
G01*
G37*
%TD*%
D10*
%TO.C,FLASH*%
X156894000Y-102616000D03*
X153494000Y-102616000D03*
%TD*%
%TO.C,RESET*%
X147652000Y-102616000D03*
X151052000Y-102616000D03*
%TD*%
D11*
%TO.C,U1*%
X137190000Y-96560001D03*
X157690000Y-96560001D03*
D12*
X147440000Y-99100001D03*
D11*
X137190000Y-95290001D03*
X137190000Y-94020001D03*
X137190000Y-92750001D03*
X137190000Y-91480001D03*
X137190000Y-90210001D03*
X137190000Y-88940001D03*
X137190000Y-87670001D03*
X137190000Y-86400001D03*
X137190000Y-85130001D03*
X137190000Y-83860001D03*
X137190000Y-82590001D03*
X157690000Y-95290001D03*
X157690000Y-94020001D03*
X157690000Y-92750001D03*
X157690000Y-91480001D03*
X157690000Y-90210001D03*
X157690000Y-88940001D03*
X157690000Y-87670001D03*
X157690000Y-86400001D03*
X157690000Y-85130001D03*
X157690000Y-83860001D03*
X157690000Y-82590001D03*
D12*
X148710000Y-99100001D03*
X149980000Y-99100001D03*
X151250000Y-99100001D03*
X152520000Y-99100001D03*
X146170000Y-99100001D03*
X144900000Y-99100001D03*
X143630000Y-99100001D03*
X142360000Y-99100001D03*
%TD*%
%TO.C,R1*%
G36*
G01*
X139134000Y-103199250D02*
X139134000Y-102286750D01*
G75*
G02*
X139377750Y-102043000I243750J0D01*
G01*
X139865250Y-102043000D01*
G75*
G02*
X140109000Y-102286750I0J-243750D01*
G01*
X140109000Y-103199250D01*
G75*
G02*
X139865250Y-103443000I-243750J0D01*
G01*
X139377750Y-103443000D01*
G75*
G02*
X139134000Y-103199250I0J243750D01*
G01*
G37*
G36*
G01*
X137259000Y-103199250D02*
X137259000Y-102286750D01*
G75*
G02*
X137502750Y-102043000I243750J0D01*
G01*
X137990250Y-102043000D01*
G75*
G02*
X138234000Y-102286750I0J-243750D01*
G01*
X138234000Y-103199250D01*
G75*
G02*
X137990250Y-103443000I-243750J0D01*
G01*
X137502750Y-103443000D01*
G75*
G02*
X137259000Y-103199250I0J243750D01*
G01*
G37*
%TD*%
M02*
