%TF.GenerationSoftware,KiCad,Pcbnew,(5.1.6)-1*%
%TF.CreationDate,2020-10-31T14:58:00+02:00*%
%TF.ProjectId,zigbee-raspberry-module,7a696762-6565-42d7-9261-737062657272,rev?*%
%TF.SameCoordinates,Original*%
%TF.FileFunction,Soldermask,Bot*%
%TF.FilePolarity,Negative*%
%FSLAX46Y46*%
G04 Gerber Fmt 4.6, Leading zero omitted, Abs format (unit mm)*
G04 Created by KiCad (PCBNEW (5.1.6)-1) date 2020-10-31 14:58:00*
%MOMM*%
%LPD*%
G01*
G04 APERTURE LIST*
%ADD10O,1.800000X1.800000*%
%ADD11R,1.800000X1.800000*%
%ADD12R,4.060000X4.060000*%
%ADD13R,5.180000X1.880000*%
%ADD14R,1.100000X2.600000*%
G04 APERTURE END LIST*
D10*
%TO.C,J1*%
X147574000Y-110490000D03*
X147574000Y-107950000D03*
X150114000Y-110490000D03*
X150114000Y-107950000D03*
X152654000Y-110490000D03*
X152654000Y-107950000D03*
X155194000Y-110490000D03*
X155194000Y-107950000D03*
X157734000Y-110490000D03*
D11*
X157734000Y-107950000D03*
%TD*%
D12*
%TO.C,BT1*%
X141478000Y-99440000D03*
D13*
X141478000Y-104140000D03*
X141478000Y-94740000D03*
%TD*%
%TO.C,U2*%
G36*
G01*
X149157000Y-93297000D02*
X149157000Y-93647000D01*
G75*
G02*
X148982000Y-93822000I-175000J0D01*
G01*
X147182000Y-93822000D01*
G75*
G02*
X147007000Y-93647000I0J175000D01*
G01*
X147007000Y-93297000D01*
G75*
G02*
X147182000Y-93122000I175000J0D01*
G01*
X148982000Y-93122000D01*
G75*
G02*
X149157000Y-93297000I0J-175000D01*
G01*
G37*
G36*
G01*
X149157000Y-94567000D02*
X149157000Y-94917000D01*
G75*
G02*
X148982000Y-95092000I-175000J0D01*
G01*
X147182000Y-95092000D01*
G75*
G02*
X147007000Y-94917000I0J175000D01*
G01*
X147007000Y-94567000D01*
G75*
G02*
X147182000Y-94392000I175000J0D01*
G01*
X148982000Y-94392000D01*
G75*
G02*
X149157000Y-94567000I0J-175000D01*
G01*
G37*
G36*
G01*
X149157000Y-95837000D02*
X149157000Y-96187000D01*
G75*
G02*
X148982000Y-96362000I-175000J0D01*
G01*
X147182000Y-96362000D01*
G75*
G02*
X147007000Y-96187000I0J175000D01*
G01*
X147007000Y-95837000D01*
G75*
G02*
X147182000Y-95662000I175000J0D01*
G01*
X148982000Y-95662000D01*
G75*
G02*
X149157000Y-95837000I0J-175000D01*
G01*
G37*
G36*
G01*
X149157000Y-97107000D02*
X149157000Y-97457000D01*
G75*
G02*
X148982000Y-97632000I-175000J0D01*
G01*
X147182000Y-97632000D01*
G75*
G02*
X147007000Y-97457000I0J175000D01*
G01*
X147007000Y-97107000D01*
G75*
G02*
X147182000Y-96932000I175000J0D01*
G01*
X148982000Y-96932000D01*
G75*
G02*
X149157000Y-97107000I0J-175000D01*
G01*
G37*
G36*
G01*
X149157000Y-98377000D02*
X149157000Y-98727000D01*
G75*
G02*
X148982000Y-98902000I-175000J0D01*
G01*
X147182000Y-98902000D01*
G75*
G02*
X147007000Y-98727000I0J175000D01*
G01*
X147007000Y-98377000D01*
G75*
G02*
X147182000Y-98202000I175000J0D01*
G01*
X148982000Y-98202000D01*
G75*
G02*
X149157000Y-98377000I0J-175000D01*
G01*
G37*
G36*
G01*
X149157000Y-99647000D02*
X149157000Y-99997000D01*
G75*
G02*
X148982000Y-100172000I-175000J0D01*
G01*
X147182000Y-100172000D01*
G75*
G02*
X147007000Y-99997000I0J175000D01*
G01*
X147007000Y-99647000D01*
G75*
G02*
X147182000Y-99472000I175000J0D01*
G01*
X148982000Y-99472000D01*
G75*
G02*
X149157000Y-99647000I0J-175000D01*
G01*
G37*
G36*
G01*
X149157000Y-100917000D02*
X149157000Y-101267000D01*
G75*
G02*
X148982000Y-101442000I-175000J0D01*
G01*
X147182000Y-101442000D01*
G75*
G02*
X147007000Y-101267000I0J175000D01*
G01*
X147007000Y-100917000D01*
G75*
G02*
X147182000Y-100742000I175000J0D01*
G01*
X148982000Y-100742000D01*
G75*
G02*
X149157000Y-100917000I0J-175000D01*
G01*
G37*
G36*
G01*
X149157000Y-102187000D02*
X149157000Y-102537000D01*
G75*
G02*
X148982000Y-102712000I-175000J0D01*
G01*
X147182000Y-102712000D01*
G75*
G02*
X147007000Y-102537000I0J175000D01*
G01*
X147007000Y-102187000D01*
G75*
G02*
X147182000Y-102012000I175000J0D01*
G01*
X148982000Y-102012000D01*
G75*
G02*
X149157000Y-102187000I0J-175000D01*
G01*
G37*
G36*
G01*
X158457000Y-102187000D02*
X158457000Y-102537000D01*
G75*
G02*
X158282000Y-102712000I-175000J0D01*
G01*
X156482000Y-102712000D01*
G75*
G02*
X156307000Y-102537000I0J175000D01*
G01*
X156307000Y-102187000D01*
G75*
G02*
X156482000Y-102012000I175000J0D01*
G01*
X158282000Y-102012000D01*
G75*
G02*
X158457000Y-102187000I0J-175000D01*
G01*
G37*
G36*
G01*
X158457000Y-100917000D02*
X158457000Y-101267000D01*
G75*
G02*
X158282000Y-101442000I-175000J0D01*
G01*
X156482000Y-101442000D01*
G75*
G02*
X156307000Y-101267000I0J175000D01*
G01*
X156307000Y-100917000D01*
G75*
G02*
X156482000Y-100742000I175000J0D01*
G01*
X158282000Y-100742000D01*
G75*
G02*
X158457000Y-100917000I0J-175000D01*
G01*
G37*
G36*
G01*
X158457000Y-99647000D02*
X158457000Y-99997000D01*
G75*
G02*
X158282000Y-100172000I-175000J0D01*
G01*
X156482000Y-100172000D01*
G75*
G02*
X156307000Y-99997000I0J175000D01*
G01*
X156307000Y-99647000D01*
G75*
G02*
X156482000Y-99472000I175000J0D01*
G01*
X158282000Y-99472000D01*
G75*
G02*
X158457000Y-99647000I0J-175000D01*
G01*
G37*
G36*
G01*
X158457000Y-98377000D02*
X158457000Y-98727000D01*
G75*
G02*
X158282000Y-98902000I-175000J0D01*
G01*
X156482000Y-98902000D01*
G75*
G02*
X156307000Y-98727000I0J175000D01*
G01*
X156307000Y-98377000D01*
G75*
G02*
X156482000Y-98202000I175000J0D01*
G01*
X158282000Y-98202000D01*
G75*
G02*
X158457000Y-98377000I0J-175000D01*
G01*
G37*
G36*
G01*
X158457000Y-97107000D02*
X158457000Y-97457000D01*
G75*
G02*
X158282000Y-97632000I-175000J0D01*
G01*
X156482000Y-97632000D01*
G75*
G02*
X156307000Y-97457000I0J175000D01*
G01*
X156307000Y-97107000D01*
G75*
G02*
X156482000Y-96932000I175000J0D01*
G01*
X158282000Y-96932000D01*
G75*
G02*
X158457000Y-97107000I0J-175000D01*
G01*
G37*
G36*
G01*
X158457000Y-95837000D02*
X158457000Y-96187000D01*
G75*
G02*
X158282000Y-96362000I-175000J0D01*
G01*
X156482000Y-96362000D01*
G75*
G02*
X156307000Y-96187000I0J175000D01*
G01*
X156307000Y-95837000D01*
G75*
G02*
X156482000Y-95662000I175000J0D01*
G01*
X158282000Y-95662000D01*
G75*
G02*
X158457000Y-95837000I0J-175000D01*
G01*
G37*
G36*
G01*
X158457000Y-94567000D02*
X158457000Y-94917000D01*
G75*
G02*
X158282000Y-95092000I-175000J0D01*
G01*
X156482000Y-95092000D01*
G75*
G02*
X156307000Y-94917000I0J175000D01*
G01*
X156307000Y-94567000D01*
G75*
G02*
X156482000Y-94392000I175000J0D01*
G01*
X158282000Y-94392000D01*
G75*
G02*
X158457000Y-94567000I0J-175000D01*
G01*
G37*
G36*
G01*
X158457000Y-93297000D02*
X158457000Y-93647000D01*
G75*
G02*
X158282000Y-93822000I-175000J0D01*
G01*
X156482000Y-93822000D01*
G75*
G02*
X156307000Y-93647000I0J175000D01*
G01*
X156307000Y-93297000D01*
G75*
G02*
X156482000Y-93122000I175000J0D01*
G01*
X158282000Y-93122000D01*
G75*
G02*
X158457000Y-93297000I0J-175000D01*
G01*
G37*
%TD*%
%TO.C,R4*%
G36*
G01*
X151664750Y-90491500D02*
X152627250Y-90491500D01*
G75*
G02*
X152896000Y-90760250I0J-268750D01*
G01*
X152896000Y-91297750D01*
G75*
G02*
X152627250Y-91566500I-268750J0D01*
G01*
X151664750Y-91566500D01*
G75*
G02*
X151396000Y-91297750I0J268750D01*
G01*
X151396000Y-90760250D01*
G75*
G02*
X151664750Y-90491500I268750J0D01*
G01*
G37*
G36*
G01*
X151664750Y-88616500D02*
X152627250Y-88616500D01*
G75*
G02*
X152896000Y-88885250I0J-268750D01*
G01*
X152896000Y-89422750D01*
G75*
G02*
X152627250Y-89691500I-268750J0D01*
G01*
X151664750Y-89691500D01*
G75*
G02*
X151396000Y-89422750I0J268750D01*
G01*
X151396000Y-88885250D01*
G75*
G02*
X151664750Y-88616500I268750J0D01*
G01*
G37*
%TD*%
%TO.C,R3*%
G36*
G01*
X147346750Y-90491500D02*
X148309250Y-90491500D01*
G75*
G02*
X148578000Y-90760250I0J-268750D01*
G01*
X148578000Y-91297750D01*
G75*
G02*
X148309250Y-91566500I-268750J0D01*
G01*
X147346750Y-91566500D01*
G75*
G02*
X147078000Y-91297750I0J268750D01*
G01*
X147078000Y-90760250D01*
G75*
G02*
X147346750Y-90491500I268750J0D01*
G01*
G37*
G36*
G01*
X147346750Y-88616500D02*
X148309250Y-88616500D01*
G75*
G02*
X148578000Y-88885250I0J-268750D01*
G01*
X148578000Y-89422750D01*
G75*
G02*
X148309250Y-89691500I-268750J0D01*
G01*
X147346750Y-89691500D01*
G75*
G02*
X147078000Y-89422750I0J268750D01*
G01*
X147078000Y-88885250D01*
G75*
G02*
X147346750Y-88616500I268750J0D01*
G01*
G37*
%TD*%
%TO.C,R2*%
G36*
G01*
X143282750Y-90491500D02*
X144245250Y-90491500D01*
G75*
G02*
X144514000Y-90760250I0J-268750D01*
G01*
X144514000Y-91297750D01*
G75*
G02*
X144245250Y-91566500I-268750J0D01*
G01*
X143282750Y-91566500D01*
G75*
G02*
X143014000Y-91297750I0J268750D01*
G01*
X143014000Y-90760250D01*
G75*
G02*
X143282750Y-90491500I268750J0D01*
G01*
G37*
G36*
G01*
X143282750Y-88616500D02*
X144245250Y-88616500D01*
G75*
G02*
X144514000Y-88885250I0J-268750D01*
G01*
X144514000Y-89422750D01*
G75*
G02*
X144245250Y-89691500I-268750J0D01*
G01*
X143282750Y-89691500D01*
G75*
G02*
X143014000Y-89422750I0J268750D01*
G01*
X143014000Y-88885250D01*
G75*
G02*
X143282750Y-88616500I268750J0D01*
G01*
G37*
%TD*%
D14*
%TO.C,JTAG1*%
X141986000Y-80455000D03*
X144526000Y-80455000D03*
X147066000Y-80455000D03*
X149606000Y-80455000D03*
X152146000Y-80455000D03*
X154686000Y-80455000D03*
X157226000Y-80455000D03*
%TD*%
M02*
