%TF.GenerationSoftware,KiCad,Pcbnew,(5.1.6)-1*%
%TF.CreationDate,2020-10-31T14:57:59+02:00*%
%TF.ProjectId,zigbee-raspberry-module,7a696762-6565-42d7-9261-737062657272,rev?*%
%TF.SameCoordinates,Original*%
%TF.FileFunction,Copper,L1,Top*%
%TF.FilePolarity,Positive*%
%FSLAX46Y46*%
G04 Gerber Fmt 4.6, Leading zero omitted, Abs format (unit mm)*
G04 Created by KiCad (PCBNEW (5.1.6)-1) date 2020-10-31 14:57:59*
%MOMM*%
%LPD*%
G01*
G04 APERTURE LIST*
%TA.AperFunction,ComponentPad*%
%ADD10O,1.700000X1.700000*%
%TD*%
%TA.AperFunction,ComponentPad*%
%ADD11R,1.700000X1.700000*%
%TD*%
%TA.AperFunction,SMDPad,CuDef*%
%ADD12R,2.600000X0.700000*%
%TD*%
%TA.AperFunction,SMDPad,CuDef*%
%ADD13R,0.700000X2.600000*%
%TD*%
%TA.AperFunction,SMDPad,CuDef*%
%ADD14R,0.900000X1.700000*%
%TD*%
%TA.AperFunction,ViaPad*%
%ADD15C,0.800000*%
%TD*%
%TA.AperFunction,Conductor*%
%ADD16C,0.250000*%
%TD*%
%TA.AperFunction,NonConductor*%
%ADD17C,0.254000*%
%TD*%
G04 APERTURE END LIST*
%TO.P,C1,2*%
%TO.N,VCC*%
%TA.AperFunction,SMDPad,CuDef*%
G36*
G01*
X150165750Y-103066000D02*
X151078250Y-103066000D01*
G75*
G02*
X151322000Y-103309750I0J-243750D01*
G01*
X151322000Y-103797250D01*
G75*
G02*
X151078250Y-104041000I-243750J0D01*
G01*
X150165750Y-104041000D01*
G75*
G02*
X149922000Y-103797250I0J243750D01*
G01*
X149922000Y-103309750D01*
G75*
G02*
X150165750Y-103066000I243750J0D01*
G01*
G37*
%TD.AperFunction*%
%TO.P,C1,1*%
%TO.N,GND*%
%TA.AperFunction,SMDPad,CuDef*%
G36*
G01*
X150165750Y-101191000D02*
X151078250Y-101191000D01*
G75*
G02*
X151322000Y-101434750I0J-243750D01*
G01*
X151322000Y-101922250D01*
G75*
G02*
X151078250Y-102166000I-243750J0D01*
G01*
X150165750Y-102166000D01*
G75*
G02*
X149922000Y-101922250I0J243750D01*
G01*
X149922000Y-101434750D01*
G75*
G02*
X150165750Y-101191000I243750J0D01*
G01*
G37*
%TD.AperFunction*%
%TD*%
D10*
%TO.P,J1,10*%
%TO.N,GND*%
X147574000Y-110490000D03*
%TO.P,J1,9*%
%TO.N,TXD*%
X147574000Y-107950000D03*
%TO.P,J1,8*%
%TO.N,Net-(J1-Pad8)*%
X150114000Y-110490000D03*
%TO.P,J1,7*%
%TO.N,RXD*%
X150114000Y-107950000D03*
%TO.P,J1,6*%
%TO.N,SCL*%
X152654000Y-110490000D03*
%TO.P,J1,5*%
%TO.N,GND*%
X152654000Y-107950000D03*
%TO.P,J1,4*%
%TO.N,SDA*%
X155194000Y-110490000D03*
%TO.P,J1,3*%
%TO.N,Net-(J1-Pad3)*%
X155194000Y-107950000D03*
%TO.P,J1,2*%
%TO.N,VCC*%
X157734000Y-110490000D03*
D11*
%TO.P,J1,1*%
%TO.N,Net-(J1-Pad1)*%
X157734000Y-107950000D03*
%TD*%
D12*
%TO.P,U1,12*%
%TO.N,Net-(U1-Pad12)*%
X137190000Y-96560001D03*
%TO.P,U1,22*%
%TO.N,RXD*%
X157690000Y-96560001D03*
D13*
%TO.P,U1,17*%
%TO.N,Net-(U1-Pad17)*%
X147440000Y-99100001D03*
D12*
%TO.P,U1,11*%
%TO.N,Net-(U1-Pad11)*%
X137190000Y-95290001D03*
%TO.P,U1,10*%
%TO.N,Net-(U1-Pad10)*%
X137190000Y-94020001D03*
%TO.P,U1,9*%
%TO.N,Net-(U1-Pad9)*%
X137190000Y-92750001D03*
%TO.P,U1,8*%
%TO.N,Net-(U1-Pad8)*%
X137190000Y-91480001D03*
%TO.P,U1,7*%
%TO.N,PB6*%
X137190000Y-90210001D03*
%TO.P,U1,6*%
%TO.N,PB7*%
X137190000Y-88940001D03*
%TO.P,U1,5*%
%TO.N,TCK*%
X137190000Y-87670001D03*
%TO.P,U1,4*%
%TO.N,TMS*%
X137190000Y-86400001D03*
%TO.P,U1,3*%
%TO.N,VCC*%
X137190000Y-85130001D03*
%TO.P,U1,2*%
%TO.N,GND*%
X137190000Y-83860001D03*
%TO.P,U1,1*%
X137190000Y-82590001D03*
%TO.P,U1,23*%
%TO.N,TXD*%
X157690000Y-95290001D03*
%TO.P,U1,24*%
%TO.N,Net-(U1-Pad24)*%
X157690000Y-94020001D03*
%TO.P,U1,25*%
%TO.N,Net-(U1-Pad25)*%
X157690000Y-92750001D03*
%TO.P,U1,26*%
%TO.N,Net-(U1-Pad26)*%
X157690000Y-91480001D03*
%TO.P,U1,27*%
%TO.N,Net-(U1-Pad27)*%
X157690000Y-90210001D03*
%TO.P,U1,28*%
%TO.N,Net-(U1-Pad28)*%
X157690000Y-88940001D03*
%TO.P,U1,29*%
%TO.N,Net-(SW1-Pad1)*%
X157690000Y-87670001D03*
%TO.P,U1,30*%
%TO.N,Net-(U1-Pad30)*%
X157690000Y-86400001D03*
%TO.P,U1,31*%
%TO.N,Net-(U1-Pad31)*%
X157690000Y-85130001D03*
%TO.P,U1,32*%
%TO.N,RST*%
X157690000Y-83860001D03*
%TO.P,U1,33*%
%TO.N,Net-(U1-Pad33)*%
X157690000Y-82590001D03*
D13*
%TO.P,U1,18*%
%TO.N,Net-(U1-Pad18)*%
X148710000Y-99100001D03*
%TO.P,U1,19*%
%TO.N,Net-(U1-Pad19)*%
X149980000Y-99100001D03*
%TO.P,U1,20*%
%TO.N,Net-(U1-Pad20)*%
X151250000Y-99100001D03*
%TO.P,U1,21*%
%TO.N,Net-(U1-Pad21)*%
X152520000Y-99100001D03*
%TO.P,U1,16*%
%TO.N,Net-(U1-Pad16)*%
X146170000Y-99100001D03*
%TO.P,U1,15*%
%TO.N,Net-(U1-Pad15)*%
X144900000Y-99100001D03*
%TO.P,U1,14*%
%TO.N,Net-(U1-Pad14)*%
X143630000Y-99100001D03*
%TO.P,U1,13*%
%TO.N,Net-(U1-Pad13)*%
X142360000Y-99100001D03*
%TD*%
D14*
%TO.P,RESET,2*%
%TO.N,GND*%
X145210000Y-102235000D03*
%TO.P,RESET,1*%
%TO.N,RST*%
X141810000Y-102235000D03*
%TD*%
%TO.P,FLASH,2*%
%TO.N,GND*%
X154002000Y-102235000D03*
%TO.P,FLASH,1*%
%TO.N,Net-(SW1-Pad1)*%
X157402000Y-102235000D03*
%TD*%
%TO.P,R1,2*%
%TO.N,VCC*%
%TA.AperFunction,SMDPad,CuDef*%
G36*
G01*
X138608750Y-102685000D02*
X139521250Y-102685000D01*
G75*
G02*
X139765000Y-102928750I0J-243750D01*
G01*
X139765000Y-103416250D01*
G75*
G02*
X139521250Y-103660000I-243750J0D01*
G01*
X138608750Y-103660000D01*
G75*
G02*
X138365000Y-103416250I0J243750D01*
G01*
X138365000Y-102928750D01*
G75*
G02*
X138608750Y-102685000I243750J0D01*
G01*
G37*
%TD.AperFunction*%
%TO.P,R1,1*%
%TO.N,RST*%
%TA.AperFunction,SMDPad,CuDef*%
G36*
G01*
X138608750Y-100810000D02*
X139521250Y-100810000D01*
G75*
G02*
X139765000Y-101053750I0J-243750D01*
G01*
X139765000Y-101541250D01*
G75*
G02*
X139521250Y-101785000I-243750J0D01*
G01*
X138608750Y-101785000D01*
G75*
G02*
X138365000Y-101541250I0J243750D01*
G01*
X138365000Y-101053750D01*
G75*
G02*
X138608750Y-100810000I243750J0D01*
G01*
G37*
%TD.AperFunction*%
%TD*%
D15*
%TO.N,GND*%
X147320000Y-104648000D03*
X140462000Y-82550000D03*
X157988000Y-105918000D03*
%TO.N,TXD*%
X154686000Y-96774000D03*
X152400000Y-105918000D03*
%TO.N,RXD*%
X154686000Y-98298000D03*
X154178000Y-105918000D03*
%TO.N,VCC*%
X140462000Y-85090000D03*
%TO.N,RST*%
X154686000Y-86360000D03*
%TO.N,PB6*%
X152146000Y-86360000D03*
%TO.N,PB7*%
X149606000Y-86360000D03*
%TO.N,TCK*%
X147066000Y-86360000D03*
%TO.N,TMS*%
X144526000Y-86360000D03*
%TD*%
D16*
%TO.N,GND*%
X137190000Y-83860001D02*
X137190000Y-82590001D01*
X137190000Y-82590001D02*
X138470001Y-82590001D01*
X140421999Y-82590001D02*
X140462000Y-82550000D01*
X137190000Y-82590001D02*
X140421999Y-82590001D01*
X145210000Y-102538000D02*
X147320000Y-104648000D01*
X145210000Y-102235000D02*
X145210000Y-102538000D01*
X154305000Y-102235000D02*
X154002000Y-102235000D01*
X157988000Y-105918000D02*
X154305000Y-102235000D01*
X145766500Y-101678500D02*
X145210000Y-102235000D01*
X150622000Y-101678500D02*
X145766500Y-101678500D01*
X153445500Y-101678500D02*
X154002000Y-102235000D01*
X150622000Y-101678500D02*
X153445500Y-101678500D01*
X151478999Y-109125001D02*
X152654000Y-107950000D01*
X148938999Y-109125001D02*
X151478999Y-109125001D01*
X147574000Y-110490000D02*
X148938999Y-109125001D01*
%TO.N,TXD*%
X156169999Y-95290001D02*
X154686000Y-96774000D01*
X157690000Y-95290001D02*
X156169999Y-95290001D01*
X149606000Y-105918000D02*
X147574000Y-107950000D01*
X152400000Y-105918000D02*
X149606000Y-105918000D01*
%TO.N,RXD*%
X157631502Y-96618499D02*
X157690000Y-96560001D01*
X157690000Y-96560001D02*
X156169999Y-96560001D01*
X154686000Y-98044000D02*
X154686000Y-98298000D01*
X156169999Y-96560001D02*
X154686000Y-98044000D01*
X153321001Y-106774999D02*
X154178000Y-105918000D01*
X151289001Y-106774999D02*
X153321001Y-106774999D01*
X150114000Y-107950000D02*
X151289001Y-106774999D01*
%TO.N,VCC*%
X137492500Y-102567500D02*
X138097500Y-103172500D01*
X138097500Y-103172500D02*
X139065000Y-103172500D01*
X137492500Y-99800502D02*
X137492500Y-102567500D01*
X152871001Y-86708001D02*
X142954011Y-96624991D01*
X140668011Y-96624991D02*
X137492500Y-99800502D01*
X152871001Y-86011999D02*
X152871001Y-86708001D01*
X151949002Y-85090000D02*
X152871001Y-86011999D01*
X142954011Y-96624991D02*
X140668011Y-96624991D01*
X140421999Y-85130001D02*
X140462000Y-85090000D01*
X137190000Y-85130001D02*
X140421999Y-85130001D01*
X151949002Y-85090000D02*
X140462000Y-85090000D01*
X141265501Y-105373001D02*
X147627499Y-105373001D01*
X139065000Y-103172500D02*
X141265501Y-105373001D01*
X156369001Y-107035999D02*
X153862252Y-104529250D01*
X157734000Y-110490000D02*
X156369001Y-109125001D01*
X156369001Y-109125001D02*
X156369001Y-107035999D01*
X147627499Y-105373001D02*
X148471250Y-104529250D01*
X150622000Y-104156500D02*
X150994750Y-104529250D01*
X150622000Y-103553500D02*
X150622000Y-104156500D01*
X153862252Y-104529250D02*
X150994750Y-104529250D01*
X150994750Y-104529250D02*
X148471250Y-104529250D01*
%TO.N,RST*%
X141477500Y-102537500D02*
X141810000Y-102870000D01*
X141810000Y-102870000D02*
X141684999Y-102744999D01*
X141810000Y-102870000D02*
X141810000Y-102107500D01*
X141810000Y-102235000D02*
X140652500Y-101077500D01*
X140652500Y-101077500D02*
X140652500Y-98107500D01*
X139065000Y-99695000D02*
X140652500Y-98107500D01*
X139065000Y-101297500D02*
X139065000Y-99695000D01*
X154686000Y-85314001D02*
X154686000Y-86360000D01*
X156140000Y-83860001D02*
X154686000Y-85314001D01*
X157690000Y-83860001D02*
X156140000Y-83860001D01*
X141684999Y-97075001D02*
X140652500Y-98107500D01*
X154686000Y-86360000D02*
X143970999Y-97075001D01*
X143970999Y-97075001D02*
X141684999Y-97075001D01*
%TO.N,PB6*%
X148295999Y-90210001D02*
X152146000Y-86360000D01*
X137190000Y-90210001D02*
X148295999Y-90210001D01*
%TO.N,PB7*%
X137190000Y-88940001D02*
X144739999Y-88940001D01*
X147025999Y-88940001D02*
X144739999Y-88940001D01*
X149606000Y-86360000D02*
X147025999Y-88940001D01*
%TO.N,TCK*%
X137190000Y-87670001D02*
X143469999Y-87670001D01*
X145755999Y-87670001D02*
X143469999Y-87670001D01*
X147066000Y-86360000D02*
X145755999Y-87670001D01*
%TO.N,TMS*%
X144485999Y-86400001D02*
X144526000Y-86360000D01*
X137190000Y-86400001D02*
X144485999Y-86400001D01*
%TO.N,Net-(SW1-Pad1)*%
X157910000Y-102870000D02*
X157480000Y-102870000D01*
X157690000Y-87670001D02*
X156140000Y-87670001D01*
X156005000Y-100838000D02*
X157402000Y-102235000D01*
X156140000Y-87670001D02*
X153670000Y-90140001D01*
X153670000Y-90140001D02*
X153670000Y-100330000D01*
X153670000Y-100330000D02*
X154178000Y-100838000D01*
X154178000Y-100838000D02*
X156005000Y-100838000D01*
%TD*%
D17*
G36*
X149157820Y-109705283D02*
G01*
X149023102Y-109906903D01*
X148930307Y-110130931D01*
X148883000Y-110368757D01*
X148883000Y-110611243D01*
X148930307Y-110849069D01*
X149023102Y-111073097D01*
X149157820Y-111274717D01*
X149237103Y-111354000D01*
X148450897Y-111354000D01*
X148530180Y-111274717D01*
X148664898Y-111073097D01*
X148757693Y-110849069D01*
X148805000Y-110611243D01*
X148805000Y-110368757D01*
X148757693Y-110130931D01*
X148725758Y-110053833D01*
X149148591Y-109631001D01*
X149232102Y-109631001D01*
X149157820Y-109705283D01*
G37*
X149157820Y-109705283D02*
X149023102Y-109906903D01*
X148930307Y-110130931D01*
X148883000Y-110368757D01*
X148883000Y-110611243D01*
X148930307Y-110849069D01*
X149023102Y-111073097D01*
X149157820Y-111274717D01*
X149237103Y-111354000D01*
X148450897Y-111354000D01*
X148530180Y-111274717D01*
X148664898Y-111073097D01*
X148757693Y-110849069D01*
X148805000Y-110611243D01*
X148805000Y-110368757D01*
X148757693Y-110130931D01*
X148725758Y-110053833D01*
X149148591Y-109631001D01*
X149232102Y-109631001D01*
X149157820Y-109705283D01*
G36*
X155341666Y-106724256D02*
G01*
X155315243Y-106719000D01*
X155072757Y-106719000D01*
X154834931Y-106766307D01*
X154610903Y-106859102D01*
X154409283Y-106993820D01*
X154237820Y-107165283D01*
X154103102Y-107366903D01*
X154010307Y-107590931D01*
X153963000Y-107828757D01*
X153963000Y-108071243D01*
X154010307Y-108309069D01*
X154103102Y-108533097D01*
X154237820Y-108734717D01*
X154409283Y-108906180D01*
X154610903Y-109040898D01*
X154834931Y-109133693D01*
X155072757Y-109181000D01*
X155315243Y-109181000D01*
X155553069Y-109133693D01*
X155777097Y-109040898D01*
X155863001Y-108983499D01*
X155863001Y-109100155D01*
X155860554Y-109125001D01*
X155863001Y-109149847D01*
X155863001Y-109149854D01*
X155870323Y-109224193D01*
X155899256Y-109319575D01*
X155946242Y-109407480D01*
X156009474Y-109484528D01*
X156028786Y-109500377D01*
X156582242Y-110053833D01*
X156550307Y-110130931D01*
X156503000Y-110368757D01*
X156503000Y-110611243D01*
X156550307Y-110849069D01*
X156643102Y-111073097D01*
X156777820Y-111274717D01*
X156857103Y-111354000D01*
X156070897Y-111354000D01*
X156150180Y-111274717D01*
X156284898Y-111073097D01*
X156377693Y-110849069D01*
X156425000Y-110611243D01*
X156425000Y-110368757D01*
X156377693Y-110130931D01*
X156284898Y-109906903D01*
X156150180Y-109705283D01*
X155978717Y-109533820D01*
X155777097Y-109399102D01*
X155553069Y-109306307D01*
X155315243Y-109259000D01*
X155072757Y-109259000D01*
X154834931Y-109306307D01*
X154610903Y-109399102D01*
X154409283Y-109533820D01*
X154237820Y-109705283D01*
X154103102Y-109906903D01*
X154010307Y-110130931D01*
X153963000Y-110368757D01*
X153963000Y-110611243D01*
X154010307Y-110849069D01*
X154103102Y-111073097D01*
X154237820Y-111274717D01*
X154317103Y-111354000D01*
X153530897Y-111354000D01*
X153610180Y-111274717D01*
X153744898Y-111073097D01*
X153837693Y-110849069D01*
X153885000Y-110611243D01*
X153885000Y-110368757D01*
X153837693Y-110130931D01*
X153744898Y-109906903D01*
X153610180Y-109705283D01*
X153438717Y-109533820D01*
X153237097Y-109399102D01*
X153013069Y-109306307D01*
X152775243Y-109259000D01*
X152532757Y-109259000D01*
X152294931Y-109306307D01*
X152070903Y-109399102D01*
X151869283Y-109533820D01*
X151697820Y-109705283D01*
X151563102Y-109906903D01*
X151470307Y-110130931D01*
X151423000Y-110368757D01*
X151423000Y-110611243D01*
X151470307Y-110849069D01*
X151563102Y-111073097D01*
X151697820Y-111274717D01*
X151777103Y-111354000D01*
X150990897Y-111354000D01*
X151070180Y-111274717D01*
X151204898Y-111073097D01*
X151297693Y-110849069D01*
X151345000Y-110611243D01*
X151345000Y-110368757D01*
X151297693Y-110130931D01*
X151204898Y-109906903D01*
X151070180Y-109705283D01*
X150995898Y-109631001D01*
X151454153Y-109631001D01*
X151478999Y-109633448D01*
X151503845Y-109631001D01*
X151503853Y-109631001D01*
X151578192Y-109623679D01*
X151673574Y-109594746D01*
X151761478Y-109547760D01*
X151838526Y-109484528D01*
X151854375Y-109465216D01*
X152217833Y-109101758D01*
X152294931Y-109133693D01*
X152532757Y-109181000D01*
X152775243Y-109181000D01*
X153013069Y-109133693D01*
X153237097Y-109040898D01*
X153438717Y-108906180D01*
X153610180Y-108734717D01*
X153744898Y-108533097D01*
X153837693Y-108309069D01*
X153885000Y-108071243D01*
X153885000Y-107828757D01*
X153837693Y-107590931D01*
X153744898Y-107366903D01*
X153621821Y-107182706D01*
X153680528Y-107134526D01*
X153696377Y-107115214D01*
X154112592Y-106699000D01*
X154254922Y-106699000D01*
X154405809Y-106668987D01*
X154547942Y-106610113D01*
X154675859Y-106524642D01*
X154784642Y-106415859D01*
X154870113Y-106287942D01*
X154880434Y-106263024D01*
X155341666Y-106724256D01*
G37*
X155341666Y-106724256D02*
X155315243Y-106719000D01*
X155072757Y-106719000D01*
X154834931Y-106766307D01*
X154610903Y-106859102D01*
X154409283Y-106993820D01*
X154237820Y-107165283D01*
X154103102Y-107366903D01*
X154010307Y-107590931D01*
X153963000Y-107828757D01*
X153963000Y-108071243D01*
X154010307Y-108309069D01*
X154103102Y-108533097D01*
X154237820Y-108734717D01*
X154409283Y-108906180D01*
X154610903Y-109040898D01*
X154834931Y-109133693D01*
X155072757Y-109181000D01*
X155315243Y-109181000D01*
X155553069Y-109133693D01*
X155777097Y-109040898D01*
X155863001Y-108983499D01*
X155863001Y-109100155D01*
X155860554Y-109125001D01*
X155863001Y-109149847D01*
X155863001Y-109149854D01*
X155870323Y-109224193D01*
X155899256Y-109319575D01*
X155946242Y-109407480D01*
X156009474Y-109484528D01*
X156028786Y-109500377D01*
X156582242Y-110053833D01*
X156550307Y-110130931D01*
X156503000Y-110368757D01*
X156503000Y-110611243D01*
X156550307Y-110849069D01*
X156643102Y-111073097D01*
X156777820Y-111274717D01*
X156857103Y-111354000D01*
X156070897Y-111354000D01*
X156150180Y-111274717D01*
X156284898Y-111073097D01*
X156377693Y-110849069D01*
X156425000Y-110611243D01*
X156425000Y-110368757D01*
X156377693Y-110130931D01*
X156284898Y-109906903D01*
X156150180Y-109705283D01*
X155978717Y-109533820D01*
X155777097Y-109399102D01*
X155553069Y-109306307D01*
X155315243Y-109259000D01*
X155072757Y-109259000D01*
X154834931Y-109306307D01*
X154610903Y-109399102D01*
X154409283Y-109533820D01*
X154237820Y-109705283D01*
X154103102Y-109906903D01*
X154010307Y-110130931D01*
X153963000Y-110368757D01*
X153963000Y-110611243D01*
X154010307Y-110849069D01*
X154103102Y-111073097D01*
X154237820Y-111274717D01*
X154317103Y-111354000D01*
X153530897Y-111354000D01*
X153610180Y-111274717D01*
X153744898Y-111073097D01*
X153837693Y-110849069D01*
X153885000Y-110611243D01*
X153885000Y-110368757D01*
X153837693Y-110130931D01*
X153744898Y-109906903D01*
X153610180Y-109705283D01*
X153438717Y-109533820D01*
X153237097Y-109399102D01*
X153013069Y-109306307D01*
X152775243Y-109259000D01*
X152532757Y-109259000D01*
X152294931Y-109306307D01*
X152070903Y-109399102D01*
X151869283Y-109533820D01*
X151697820Y-109705283D01*
X151563102Y-109906903D01*
X151470307Y-110130931D01*
X151423000Y-110368757D01*
X151423000Y-110611243D01*
X151470307Y-110849069D01*
X151563102Y-111073097D01*
X151697820Y-111274717D01*
X151777103Y-111354000D01*
X150990897Y-111354000D01*
X151070180Y-111274717D01*
X151204898Y-111073097D01*
X151297693Y-110849069D01*
X151345000Y-110611243D01*
X151345000Y-110368757D01*
X151297693Y-110130931D01*
X151204898Y-109906903D01*
X151070180Y-109705283D01*
X150995898Y-109631001D01*
X151454153Y-109631001D01*
X151478999Y-109633448D01*
X151503845Y-109631001D01*
X151503853Y-109631001D01*
X151578192Y-109623679D01*
X151673574Y-109594746D01*
X151761478Y-109547760D01*
X151838526Y-109484528D01*
X151854375Y-109465216D01*
X152217833Y-109101758D01*
X152294931Y-109133693D01*
X152532757Y-109181000D01*
X152775243Y-109181000D01*
X153013069Y-109133693D01*
X153237097Y-109040898D01*
X153438717Y-108906180D01*
X153610180Y-108734717D01*
X153744898Y-108533097D01*
X153837693Y-108309069D01*
X153885000Y-108071243D01*
X153885000Y-107828757D01*
X153837693Y-107590931D01*
X153744898Y-107366903D01*
X153621821Y-107182706D01*
X153680528Y-107134526D01*
X153696377Y-107115214D01*
X154112592Y-106699000D01*
X154254922Y-106699000D01*
X154405809Y-106668987D01*
X154547942Y-106610113D01*
X154675859Y-106524642D01*
X154784642Y-106415859D01*
X154870113Y-106287942D01*
X154880434Y-106263024D01*
X155341666Y-106724256D01*
G36*
X158598001Y-109613104D02*
G01*
X158518717Y-109533820D01*
X158317097Y-109399102D01*
X158093069Y-109306307D01*
X157855243Y-109259000D01*
X157612757Y-109259000D01*
X157374931Y-109306307D01*
X157297833Y-109338242D01*
X157142434Y-109182843D01*
X158584000Y-109182843D01*
X158598001Y-109181464D01*
X158598001Y-109613104D01*
G37*
X158598001Y-109613104D02*
X158518717Y-109533820D01*
X158317097Y-109399102D01*
X158093069Y-109306307D01*
X157855243Y-109259000D01*
X157612757Y-109259000D01*
X157374931Y-109306307D01*
X157297833Y-109338242D01*
X157142434Y-109182843D01*
X158584000Y-109182843D01*
X158598001Y-109181464D01*
X158598001Y-109613104D01*
G36*
X150913630Y-106434778D02*
G01*
X150550167Y-106798242D01*
X150473069Y-106766307D01*
X150235243Y-106719000D01*
X149992757Y-106719000D01*
X149754931Y-106766307D01*
X149530903Y-106859102D01*
X149329283Y-106993820D01*
X149157820Y-107165283D01*
X149023102Y-107366903D01*
X148930307Y-107590931D01*
X148883000Y-107828757D01*
X148883000Y-108071243D01*
X148930307Y-108309069D01*
X149023102Y-108533097D01*
X149080501Y-108619001D01*
X148963844Y-108619001D01*
X148938998Y-108616554D01*
X148914152Y-108619001D01*
X148914145Y-108619001D01*
X148849693Y-108625349D01*
X148839805Y-108626323D01*
X148744424Y-108655256D01*
X148656520Y-108702242D01*
X148579472Y-108765474D01*
X148563628Y-108784780D01*
X148010167Y-109338242D01*
X147933069Y-109306307D01*
X147695243Y-109259000D01*
X147452757Y-109259000D01*
X147214931Y-109306307D01*
X146990903Y-109399102D01*
X146789283Y-109533820D01*
X146710000Y-109613103D01*
X146710000Y-108826897D01*
X146789283Y-108906180D01*
X146990903Y-109040898D01*
X147214931Y-109133693D01*
X147452757Y-109181000D01*
X147695243Y-109181000D01*
X147933069Y-109133693D01*
X148157097Y-109040898D01*
X148358717Y-108906180D01*
X148530180Y-108734717D01*
X148664898Y-108533097D01*
X148757693Y-108309069D01*
X148805000Y-108071243D01*
X148805000Y-107828757D01*
X148757693Y-107590931D01*
X148725758Y-107513833D01*
X149815592Y-106424000D01*
X150922475Y-106424000D01*
X150913630Y-106434778D01*
G37*
X150913630Y-106434778D02*
X150550167Y-106798242D01*
X150473069Y-106766307D01*
X150235243Y-106719000D01*
X149992757Y-106719000D01*
X149754931Y-106766307D01*
X149530903Y-106859102D01*
X149329283Y-106993820D01*
X149157820Y-107165283D01*
X149023102Y-107366903D01*
X148930307Y-107590931D01*
X148883000Y-107828757D01*
X148883000Y-108071243D01*
X148930307Y-108309069D01*
X149023102Y-108533097D01*
X149080501Y-108619001D01*
X148963844Y-108619001D01*
X148938998Y-108616554D01*
X148914152Y-108619001D01*
X148914145Y-108619001D01*
X148849693Y-108625349D01*
X148839805Y-108626323D01*
X148744424Y-108655256D01*
X148656520Y-108702242D01*
X148579472Y-108765474D01*
X148563628Y-108784780D01*
X148010167Y-109338242D01*
X147933069Y-109306307D01*
X147695243Y-109259000D01*
X147452757Y-109259000D01*
X147214931Y-109306307D01*
X146990903Y-109399102D01*
X146789283Y-109533820D01*
X146710000Y-109613103D01*
X146710000Y-108826897D01*
X146789283Y-108906180D01*
X146990903Y-109040898D01*
X147214931Y-109133693D01*
X147452757Y-109181000D01*
X147695243Y-109181000D01*
X147933069Y-109133693D01*
X148157097Y-109040898D01*
X148358717Y-108906180D01*
X148530180Y-108734717D01*
X148664898Y-108533097D01*
X148757693Y-108309069D01*
X148805000Y-108071243D01*
X148805000Y-107828757D01*
X148757693Y-107590931D01*
X148725758Y-107513833D01*
X149815592Y-106424000D01*
X150922475Y-106424000D01*
X150913630Y-106434778D01*
G36*
X151563102Y-107366903D02*
G01*
X151470307Y-107590931D01*
X151423000Y-107828757D01*
X151423000Y-108071243D01*
X151470307Y-108309069D01*
X151502242Y-108386167D01*
X151269408Y-108619001D01*
X151147499Y-108619001D01*
X151204898Y-108533097D01*
X151297693Y-108309069D01*
X151345000Y-108071243D01*
X151345000Y-107828757D01*
X151297693Y-107590931D01*
X151265758Y-107513833D01*
X151498593Y-107280999D01*
X151620501Y-107280999D01*
X151563102Y-107366903D01*
G37*
X151563102Y-107366903D02*
X151470307Y-107590931D01*
X151423000Y-107828757D01*
X151423000Y-108071243D01*
X151470307Y-108309069D01*
X151502242Y-108386167D01*
X151269408Y-108619001D01*
X151147499Y-108619001D01*
X151204898Y-108533097D01*
X151297693Y-108309069D01*
X151345000Y-108071243D01*
X151345000Y-107828757D01*
X151297693Y-107590931D01*
X151265758Y-107513833D01*
X151498593Y-107280999D01*
X151620501Y-107280999D01*
X151563102Y-107366903D01*
G36*
X142744420Y-96118991D02*
G01*
X140692865Y-96118991D01*
X140668011Y-96116543D01*
X140643157Y-96118991D01*
X140568818Y-96126313D01*
X140473436Y-96155246D01*
X140385532Y-96202232D01*
X140308484Y-96265464D01*
X140292640Y-96284770D01*
X137152285Y-99425126D01*
X137132973Y-99440975D01*
X137069741Y-99518023D01*
X137022755Y-99605928D01*
X136993822Y-99701310D01*
X136986500Y-99775649D01*
X136986500Y-99775656D01*
X136984053Y-99800502D01*
X136986500Y-99825348D01*
X136986501Y-102542644D01*
X136984053Y-102567500D01*
X136993822Y-102666692D01*
X137022755Y-102762074D01*
X137027423Y-102770807D01*
X137069742Y-102849979D01*
X137132974Y-102927027D01*
X137152280Y-102942871D01*
X137722128Y-103512720D01*
X137737973Y-103532027D01*
X137815021Y-103595259D01*
X137902925Y-103642245D01*
X137998306Y-103671178D01*
X138008194Y-103672152D01*
X138040150Y-103675299D01*
X138087757Y-103764366D01*
X138165682Y-103859318D01*
X138260634Y-103937243D01*
X138368963Y-103995146D01*
X138486508Y-104030803D01*
X138608750Y-104042843D01*
X139219752Y-104042843D01*
X140890129Y-105713221D01*
X140905974Y-105732528D01*
X140983022Y-105795760D01*
X141070926Y-105842746D01*
X141144108Y-105864945D01*
X141166307Y-105871679D01*
X141176195Y-105872653D01*
X141240647Y-105879001D01*
X141240654Y-105879001D01*
X141265500Y-105881448D01*
X141290346Y-105879001D01*
X147602653Y-105879001D01*
X147627499Y-105881448D01*
X147652345Y-105879001D01*
X147652353Y-105879001D01*
X147726692Y-105871679D01*
X147822074Y-105842746D01*
X147909978Y-105795760D01*
X147987026Y-105732528D01*
X148002875Y-105713216D01*
X148680842Y-105035250D01*
X150969903Y-105035250D01*
X150994749Y-105037697D01*
X151019595Y-105035250D01*
X153652661Y-105035250D01*
X153832976Y-105215565D01*
X153808058Y-105225887D01*
X153680141Y-105311358D01*
X153571358Y-105420141D01*
X153485887Y-105548058D01*
X153427013Y-105690191D01*
X153397000Y-105841078D01*
X153397000Y-105983408D01*
X153111410Y-106268999D01*
X153099960Y-106268999D01*
X153150987Y-106145809D01*
X153181000Y-105994922D01*
X153181000Y-105841078D01*
X153150987Y-105690191D01*
X153092113Y-105548058D01*
X153006642Y-105420141D01*
X152897859Y-105311358D01*
X152769942Y-105225887D01*
X152627809Y-105167013D01*
X152476922Y-105137000D01*
X152323078Y-105137000D01*
X152172191Y-105167013D01*
X152030058Y-105225887D01*
X151902141Y-105311358D01*
X151801499Y-105412000D01*
X149630846Y-105412000D01*
X149606000Y-105409553D01*
X149581154Y-105412000D01*
X149581146Y-105412000D01*
X149506807Y-105419322D01*
X149411425Y-105448255D01*
X149323521Y-105495241D01*
X149246473Y-105558473D01*
X149230630Y-105577778D01*
X148010167Y-106798242D01*
X147933069Y-106766307D01*
X147695243Y-106719000D01*
X147452757Y-106719000D01*
X147214931Y-106766307D01*
X146990903Y-106859102D01*
X146789283Y-106993820D01*
X146710000Y-107073103D01*
X146710000Y-106699941D01*
X146711964Y-106680000D01*
X146704125Y-106600410D01*
X146680910Y-106523879D01*
X146643210Y-106453347D01*
X146592474Y-106391526D01*
X146530653Y-106340790D01*
X146460121Y-106303090D01*
X146383590Y-106279875D01*
X146323941Y-106274000D01*
X146323940Y-106274000D01*
X146304000Y-106272036D01*
X146284059Y-106274000D01*
X137328171Y-106274000D01*
X136296000Y-105241831D01*
X136296000Y-97292844D01*
X138490000Y-97292844D01*
X138564689Y-97285488D01*
X138636508Y-97263702D01*
X138702696Y-97228323D01*
X138760711Y-97180712D01*
X138808322Y-97122697D01*
X138843701Y-97056509D01*
X138865487Y-96984690D01*
X138872843Y-96910001D01*
X138872843Y-96210001D01*
X138865487Y-96135312D01*
X138843701Y-96063493D01*
X138808322Y-95997305D01*
X138760711Y-95939290D01*
X138743300Y-95925001D01*
X138760711Y-95910712D01*
X138808322Y-95852697D01*
X138843701Y-95786509D01*
X138865487Y-95714690D01*
X138872843Y-95640001D01*
X138872843Y-94940001D01*
X138865487Y-94865312D01*
X138843701Y-94793493D01*
X138808322Y-94727305D01*
X138760711Y-94669290D01*
X138743300Y-94655001D01*
X138760711Y-94640712D01*
X138808322Y-94582697D01*
X138843701Y-94516509D01*
X138865487Y-94444690D01*
X138872843Y-94370001D01*
X138872843Y-93670001D01*
X138865487Y-93595312D01*
X138843701Y-93523493D01*
X138808322Y-93457305D01*
X138760711Y-93399290D01*
X138743300Y-93385001D01*
X138760711Y-93370712D01*
X138808322Y-93312697D01*
X138843701Y-93246509D01*
X138865487Y-93174690D01*
X138872843Y-93100001D01*
X138872843Y-92400001D01*
X138865487Y-92325312D01*
X138843701Y-92253493D01*
X138808322Y-92187305D01*
X138760711Y-92129290D01*
X138743300Y-92115001D01*
X138760711Y-92100712D01*
X138808322Y-92042697D01*
X138843701Y-91976509D01*
X138865487Y-91904690D01*
X138872843Y-91830001D01*
X138872843Y-91130001D01*
X138865487Y-91055312D01*
X138843701Y-90983493D01*
X138808322Y-90917305D01*
X138760711Y-90859290D01*
X138743300Y-90845001D01*
X138760711Y-90830712D01*
X138808322Y-90772697D01*
X138838627Y-90716001D01*
X148147409Y-90716001D01*
X142744420Y-96118991D01*
G37*
X142744420Y-96118991D02*
X140692865Y-96118991D01*
X140668011Y-96116543D01*
X140643157Y-96118991D01*
X140568818Y-96126313D01*
X140473436Y-96155246D01*
X140385532Y-96202232D01*
X140308484Y-96265464D01*
X140292640Y-96284770D01*
X137152285Y-99425126D01*
X137132973Y-99440975D01*
X137069741Y-99518023D01*
X137022755Y-99605928D01*
X136993822Y-99701310D01*
X136986500Y-99775649D01*
X136986500Y-99775656D01*
X136984053Y-99800502D01*
X136986500Y-99825348D01*
X136986501Y-102542644D01*
X136984053Y-102567500D01*
X136993822Y-102666692D01*
X137022755Y-102762074D01*
X137027423Y-102770807D01*
X137069742Y-102849979D01*
X137132974Y-102927027D01*
X137152280Y-102942871D01*
X137722128Y-103512720D01*
X137737973Y-103532027D01*
X137815021Y-103595259D01*
X137902925Y-103642245D01*
X137998306Y-103671178D01*
X138008194Y-103672152D01*
X138040150Y-103675299D01*
X138087757Y-103764366D01*
X138165682Y-103859318D01*
X138260634Y-103937243D01*
X138368963Y-103995146D01*
X138486508Y-104030803D01*
X138608750Y-104042843D01*
X139219752Y-104042843D01*
X140890129Y-105713221D01*
X140905974Y-105732528D01*
X140983022Y-105795760D01*
X141070926Y-105842746D01*
X141144108Y-105864945D01*
X141166307Y-105871679D01*
X141176195Y-105872653D01*
X141240647Y-105879001D01*
X141240654Y-105879001D01*
X141265500Y-105881448D01*
X141290346Y-105879001D01*
X147602653Y-105879001D01*
X147627499Y-105881448D01*
X147652345Y-105879001D01*
X147652353Y-105879001D01*
X147726692Y-105871679D01*
X147822074Y-105842746D01*
X147909978Y-105795760D01*
X147987026Y-105732528D01*
X148002875Y-105713216D01*
X148680842Y-105035250D01*
X150969903Y-105035250D01*
X150994749Y-105037697D01*
X151019595Y-105035250D01*
X153652661Y-105035250D01*
X153832976Y-105215565D01*
X153808058Y-105225887D01*
X153680141Y-105311358D01*
X153571358Y-105420141D01*
X153485887Y-105548058D01*
X153427013Y-105690191D01*
X153397000Y-105841078D01*
X153397000Y-105983408D01*
X153111410Y-106268999D01*
X153099960Y-106268999D01*
X153150987Y-106145809D01*
X153181000Y-105994922D01*
X153181000Y-105841078D01*
X153150987Y-105690191D01*
X153092113Y-105548058D01*
X153006642Y-105420141D01*
X152897859Y-105311358D01*
X152769942Y-105225887D01*
X152627809Y-105167013D01*
X152476922Y-105137000D01*
X152323078Y-105137000D01*
X152172191Y-105167013D01*
X152030058Y-105225887D01*
X151902141Y-105311358D01*
X151801499Y-105412000D01*
X149630846Y-105412000D01*
X149606000Y-105409553D01*
X149581154Y-105412000D01*
X149581146Y-105412000D01*
X149506807Y-105419322D01*
X149411425Y-105448255D01*
X149323521Y-105495241D01*
X149246473Y-105558473D01*
X149230630Y-105577778D01*
X148010167Y-106798242D01*
X147933069Y-106766307D01*
X147695243Y-106719000D01*
X147452757Y-106719000D01*
X147214931Y-106766307D01*
X146990903Y-106859102D01*
X146789283Y-106993820D01*
X146710000Y-107073103D01*
X146710000Y-106699941D01*
X146711964Y-106680000D01*
X146704125Y-106600410D01*
X146680910Y-106523879D01*
X146643210Y-106453347D01*
X146592474Y-106391526D01*
X146530653Y-106340790D01*
X146460121Y-106303090D01*
X146383590Y-106279875D01*
X146323941Y-106274000D01*
X146323940Y-106274000D01*
X146304000Y-106272036D01*
X146284059Y-106274000D01*
X137328171Y-106274000D01*
X136296000Y-105241831D01*
X136296000Y-97292844D01*
X138490000Y-97292844D01*
X138564689Y-97285488D01*
X138636508Y-97263702D01*
X138702696Y-97228323D01*
X138760711Y-97180712D01*
X138808322Y-97122697D01*
X138843701Y-97056509D01*
X138865487Y-96984690D01*
X138872843Y-96910001D01*
X138872843Y-96210001D01*
X138865487Y-96135312D01*
X138843701Y-96063493D01*
X138808322Y-95997305D01*
X138760711Y-95939290D01*
X138743300Y-95925001D01*
X138760711Y-95910712D01*
X138808322Y-95852697D01*
X138843701Y-95786509D01*
X138865487Y-95714690D01*
X138872843Y-95640001D01*
X138872843Y-94940001D01*
X138865487Y-94865312D01*
X138843701Y-94793493D01*
X138808322Y-94727305D01*
X138760711Y-94669290D01*
X138743300Y-94655001D01*
X138760711Y-94640712D01*
X138808322Y-94582697D01*
X138843701Y-94516509D01*
X138865487Y-94444690D01*
X138872843Y-94370001D01*
X138872843Y-93670001D01*
X138865487Y-93595312D01*
X138843701Y-93523493D01*
X138808322Y-93457305D01*
X138760711Y-93399290D01*
X138743300Y-93385001D01*
X138760711Y-93370712D01*
X138808322Y-93312697D01*
X138843701Y-93246509D01*
X138865487Y-93174690D01*
X138872843Y-93100001D01*
X138872843Y-92400001D01*
X138865487Y-92325312D01*
X138843701Y-92253493D01*
X138808322Y-92187305D01*
X138760711Y-92129290D01*
X138743300Y-92115001D01*
X138760711Y-92100712D01*
X138808322Y-92042697D01*
X138843701Y-91976509D01*
X138865487Y-91904690D01*
X138872843Y-91830001D01*
X138872843Y-91130001D01*
X138865487Y-91055312D01*
X138843701Y-90983493D01*
X138808322Y-90917305D01*
X138760711Y-90859290D01*
X138743300Y-90845001D01*
X138760711Y-90830712D01*
X138808322Y-90772697D01*
X138838627Y-90716001D01*
X148147409Y-90716001D01*
X142744420Y-96118991D01*
G36*
X149644757Y-102270366D02*
G01*
X149722682Y-102365318D01*
X149817634Y-102443243D01*
X149925963Y-102501146D01*
X150043508Y-102536803D01*
X150165750Y-102548843D01*
X151078250Y-102548843D01*
X151200492Y-102536803D01*
X151318037Y-102501146D01*
X151426366Y-102443243D01*
X151521318Y-102365318D01*
X151599243Y-102270366D01*
X151645139Y-102184500D01*
X153169157Y-102184500D01*
X153169157Y-103085000D01*
X153176513Y-103159689D01*
X153198299Y-103231508D01*
X153233678Y-103297696D01*
X153281289Y-103355711D01*
X153339304Y-103403322D01*
X153405492Y-103438701D01*
X153477311Y-103460487D01*
X153552000Y-103467843D01*
X154452000Y-103467843D01*
X154526689Y-103460487D01*
X154598508Y-103438701D01*
X154664696Y-103403322D01*
X154715795Y-103361386D01*
X157207000Y-105852592D01*
X157207000Y-105994922D01*
X157237013Y-106145809D01*
X157295887Y-106287942D01*
X157381358Y-106415859D01*
X157490141Y-106524642D01*
X157618058Y-106610113D01*
X157760191Y-106668987D01*
X157911078Y-106699000D01*
X158064922Y-106699000D01*
X158215809Y-106668987D01*
X158357942Y-106610113D01*
X158485859Y-106524642D01*
X158594642Y-106415859D01*
X158598001Y-106410832D01*
X158598001Y-106718536D01*
X158584000Y-106717157D01*
X156884000Y-106717157D01*
X156809311Y-106724513D01*
X156776198Y-106734558D01*
X156728528Y-106676472D01*
X156709221Y-106660627D01*
X154237628Y-104189035D01*
X154221779Y-104169723D01*
X154144731Y-104106491D01*
X154056827Y-104059505D01*
X153961445Y-104030572D01*
X153887106Y-104023250D01*
X153887098Y-104023250D01*
X153862252Y-104020803D01*
X153837406Y-104023250D01*
X151661328Y-104023250D01*
X151692803Y-103919492D01*
X151704843Y-103797250D01*
X151704843Y-103309750D01*
X151692803Y-103187508D01*
X151657146Y-103069963D01*
X151599243Y-102961634D01*
X151521318Y-102866682D01*
X151426366Y-102788757D01*
X151318037Y-102730854D01*
X151200492Y-102695197D01*
X151078250Y-102683157D01*
X150165750Y-102683157D01*
X150043508Y-102695197D01*
X149925963Y-102730854D01*
X149817634Y-102788757D01*
X149722682Y-102866682D01*
X149644757Y-102961634D01*
X149586854Y-103069963D01*
X149551197Y-103187508D01*
X149539157Y-103309750D01*
X149539157Y-103797250D01*
X149551197Y-103919492D01*
X149582672Y-104023250D01*
X148496095Y-104023250D01*
X148471249Y-104020803D01*
X148446403Y-104023250D01*
X148446396Y-104023250D01*
X148381944Y-104029598D01*
X148372056Y-104030572D01*
X148283918Y-104057308D01*
X148276675Y-104059505D01*
X148188771Y-104106491D01*
X148111723Y-104169723D01*
X148095880Y-104189028D01*
X148010005Y-104274903D01*
X147926642Y-104150141D01*
X147817859Y-104041358D01*
X147689942Y-103955887D01*
X147547809Y-103897013D01*
X147396922Y-103867000D01*
X147254592Y-103867000D01*
X146042843Y-102655252D01*
X146042843Y-102184500D01*
X149598861Y-102184500D01*
X149644757Y-102270366D01*
G37*
X149644757Y-102270366D02*
X149722682Y-102365318D01*
X149817634Y-102443243D01*
X149925963Y-102501146D01*
X150043508Y-102536803D01*
X150165750Y-102548843D01*
X151078250Y-102548843D01*
X151200492Y-102536803D01*
X151318037Y-102501146D01*
X151426366Y-102443243D01*
X151521318Y-102365318D01*
X151599243Y-102270366D01*
X151645139Y-102184500D01*
X153169157Y-102184500D01*
X153169157Y-103085000D01*
X153176513Y-103159689D01*
X153198299Y-103231508D01*
X153233678Y-103297696D01*
X153281289Y-103355711D01*
X153339304Y-103403322D01*
X153405492Y-103438701D01*
X153477311Y-103460487D01*
X153552000Y-103467843D01*
X154452000Y-103467843D01*
X154526689Y-103460487D01*
X154598508Y-103438701D01*
X154664696Y-103403322D01*
X154715795Y-103361386D01*
X157207000Y-105852592D01*
X157207000Y-105994922D01*
X157237013Y-106145809D01*
X157295887Y-106287942D01*
X157381358Y-106415859D01*
X157490141Y-106524642D01*
X157618058Y-106610113D01*
X157760191Y-106668987D01*
X157911078Y-106699000D01*
X158064922Y-106699000D01*
X158215809Y-106668987D01*
X158357942Y-106610113D01*
X158485859Y-106524642D01*
X158594642Y-106415859D01*
X158598001Y-106410832D01*
X158598001Y-106718536D01*
X158584000Y-106717157D01*
X156884000Y-106717157D01*
X156809311Y-106724513D01*
X156776198Y-106734558D01*
X156728528Y-106676472D01*
X156709221Y-106660627D01*
X154237628Y-104189035D01*
X154221779Y-104169723D01*
X154144731Y-104106491D01*
X154056827Y-104059505D01*
X153961445Y-104030572D01*
X153887106Y-104023250D01*
X153887098Y-104023250D01*
X153862252Y-104020803D01*
X153837406Y-104023250D01*
X151661328Y-104023250D01*
X151692803Y-103919492D01*
X151704843Y-103797250D01*
X151704843Y-103309750D01*
X151692803Y-103187508D01*
X151657146Y-103069963D01*
X151599243Y-102961634D01*
X151521318Y-102866682D01*
X151426366Y-102788757D01*
X151318037Y-102730854D01*
X151200492Y-102695197D01*
X151078250Y-102683157D01*
X150165750Y-102683157D01*
X150043508Y-102695197D01*
X149925963Y-102730854D01*
X149817634Y-102788757D01*
X149722682Y-102866682D01*
X149644757Y-102961634D01*
X149586854Y-103069963D01*
X149551197Y-103187508D01*
X149539157Y-103309750D01*
X149539157Y-103797250D01*
X149551197Y-103919492D01*
X149582672Y-104023250D01*
X148496095Y-104023250D01*
X148471249Y-104020803D01*
X148446403Y-104023250D01*
X148446396Y-104023250D01*
X148381944Y-104029598D01*
X148372056Y-104030572D01*
X148283918Y-104057308D01*
X148276675Y-104059505D01*
X148188771Y-104106491D01*
X148111723Y-104169723D01*
X148095880Y-104189028D01*
X148010005Y-104274903D01*
X147926642Y-104150141D01*
X147817859Y-104041358D01*
X147689942Y-103955887D01*
X147547809Y-103897013D01*
X147396922Y-103867000D01*
X147254592Y-103867000D01*
X146042843Y-102655252D01*
X146042843Y-102184500D01*
X149598861Y-102184500D01*
X149644757Y-102270366D01*
G36*
X156243492Y-97263702D02*
G01*
X156315311Y-97285488D01*
X156390000Y-97292844D01*
X158598001Y-97292844D01*
X158598001Y-105425168D01*
X158594642Y-105420141D01*
X158485859Y-105311358D01*
X158357942Y-105225887D01*
X158215809Y-105167013D01*
X158064922Y-105137000D01*
X157922592Y-105137000D01*
X154834843Y-102049252D01*
X154834843Y-101385000D01*
X154830805Y-101344000D01*
X155795409Y-101344000D01*
X156569157Y-102117749D01*
X156569157Y-103085000D01*
X156576513Y-103159689D01*
X156598299Y-103231508D01*
X156633678Y-103297696D01*
X156681289Y-103355711D01*
X156739304Y-103403322D01*
X156805492Y-103438701D01*
X156877311Y-103460487D01*
X156952000Y-103467843D01*
X157852000Y-103467843D01*
X157926689Y-103460487D01*
X157998508Y-103438701D01*
X158064696Y-103403322D01*
X158122711Y-103355711D01*
X158160225Y-103309999D01*
X158192479Y-103292759D01*
X158269527Y-103229527D01*
X158332759Y-103152479D01*
X158379745Y-103064575D01*
X158408678Y-102969193D01*
X158418448Y-102870000D01*
X158408678Y-102770807D01*
X158379745Y-102675425D01*
X158332759Y-102587521D01*
X158269527Y-102510473D01*
X158234843Y-102482008D01*
X158234843Y-101385000D01*
X158227487Y-101310311D01*
X158205701Y-101238492D01*
X158170322Y-101172304D01*
X158122711Y-101114289D01*
X158064696Y-101066678D01*
X157998508Y-101031299D01*
X157926689Y-101009513D01*
X157852000Y-101002157D01*
X156952000Y-101002157D01*
X156890778Y-101008187D01*
X156380376Y-100497785D01*
X156364527Y-100478473D01*
X156287479Y-100415241D01*
X156199575Y-100368255D01*
X156104193Y-100339322D01*
X156029854Y-100332000D01*
X156029846Y-100332000D01*
X156005000Y-100329553D01*
X155980154Y-100332000D01*
X154387592Y-100332000D01*
X154176000Y-100120409D01*
X154176000Y-98892501D01*
X154188141Y-98904642D01*
X154316058Y-98990113D01*
X154458191Y-99048987D01*
X154609078Y-99079000D01*
X154762922Y-99079000D01*
X154913809Y-99048987D01*
X155055942Y-98990113D01*
X155183859Y-98904642D01*
X155292642Y-98795859D01*
X155378113Y-98667942D01*
X155436987Y-98525809D01*
X155467000Y-98374922D01*
X155467000Y-98221078D01*
X155436987Y-98070191D01*
X155418949Y-98026643D01*
X156203348Y-97242244D01*
X156243492Y-97263702D01*
G37*
X156243492Y-97263702D02*
X156315311Y-97285488D01*
X156390000Y-97292844D01*
X158598001Y-97292844D01*
X158598001Y-105425168D01*
X158594642Y-105420141D01*
X158485859Y-105311358D01*
X158357942Y-105225887D01*
X158215809Y-105167013D01*
X158064922Y-105137000D01*
X157922592Y-105137000D01*
X154834843Y-102049252D01*
X154834843Y-101385000D01*
X154830805Y-101344000D01*
X155795409Y-101344000D01*
X156569157Y-102117749D01*
X156569157Y-103085000D01*
X156576513Y-103159689D01*
X156598299Y-103231508D01*
X156633678Y-103297696D01*
X156681289Y-103355711D01*
X156739304Y-103403322D01*
X156805492Y-103438701D01*
X156877311Y-103460487D01*
X156952000Y-103467843D01*
X157852000Y-103467843D01*
X157926689Y-103460487D01*
X157998508Y-103438701D01*
X158064696Y-103403322D01*
X158122711Y-103355711D01*
X158160225Y-103309999D01*
X158192479Y-103292759D01*
X158269527Y-103229527D01*
X158332759Y-103152479D01*
X158379745Y-103064575D01*
X158408678Y-102969193D01*
X158418448Y-102870000D01*
X158408678Y-102770807D01*
X158379745Y-102675425D01*
X158332759Y-102587521D01*
X158269527Y-102510473D01*
X158234843Y-102482008D01*
X158234843Y-101385000D01*
X158227487Y-101310311D01*
X158205701Y-101238492D01*
X158170322Y-101172304D01*
X158122711Y-101114289D01*
X158064696Y-101066678D01*
X157998508Y-101031299D01*
X157926689Y-101009513D01*
X157852000Y-101002157D01*
X156952000Y-101002157D01*
X156890778Y-101008187D01*
X156380376Y-100497785D01*
X156364527Y-100478473D01*
X156287479Y-100415241D01*
X156199575Y-100368255D01*
X156104193Y-100339322D01*
X156029854Y-100332000D01*
X156029846Y-100332000D01*
X156005000Y-100329553D01*
X155980154Y-100332000D01*
X154387592Y-100332000D01*
X154176000Y-100120409D01*
X154176000Y-98892501D01*
X154188141Y-98904642D01*
X154316058Y-98990113D01*
X154458191Y-99048987D01*
X154609078Y-99079000D01*
X154762922Y-99079000D01*
X154913809Y-99048987D01*
X155055942Y-98990113D01*
X155183859Y-98904642D01*
X155292642Y-98795859D01*
X155378113Y-98667942D01*
X155436987Y-98525809D01*
X155467000Y-98374922D01*
X155467000Y-98221078D01*
X155436987Y-98070191D01*
X155418949Y-98026643D01*
X156203348Y-97242244D01*
X156243492Y-97263702D01*
G36*
X141627157Y-100400001D02*
G01*
X141634513Y-100474690D01*
X141656299Y-100546509D01*
X141691678Y-100612697D01*
X141739289Y-100670712D01*
X141797304Y-100718323D01*
X141863492Y-100753702D01*
X141935311Y-100775488D01*
X142010000Y-100782844D01*
X142710000Y-100782844D01*
X142784689Y-100775488D01*
X142856508Y-100753702D01*
X142922696Y-100718323D01*
X142980711Y-100670712D01*
X142995000Y-100653301D01*
X143009289Y-100670712D01*
X143067304Y-100718323D01*
X143133492Y-100753702D01*
X143205311Y-100775488D01*
X143280000Y-100782844D01*
X143980000Y-100782844D01*
X144054689Y-100775488D01*
X144126508Y-100753702D01*
X144192696Y-100718323D01*
X144250711Y-100670712D01*
X144265000Y-100653301D01*
X144279289Y-100670712D01*
X144337304Y-100718323D01*
X144403492Y-100753702D01*
X144475311Y-100775488D01*
X144550000Y-100782844D01*
X145250000Y-100782844D01*
X145324689Y-100775488D01*
X145396508Y-100753702D01*
X145462696Y-100718323D01*
X145520711Y-100670712D01*
X145535000Y-100653301D01*
X145549289Y-100670712D01*
X145607304Y-100718323D01*
X145673492Y-100753702D01*
X145745311Y-100775488D01*
X145820000Y-100782844D01*
X146520000Y-100782844D01*
X146594689Y-100775488D01*
X146666508Y-100753702D01*
X146732696Y-100718323D01*
X146790711Y-100670712D01*
X146805000Y-100653301D01*
X146819289Y-100670712D01*
X146877304Y-100718323D01*
X146943492Y-100753702D01*
X147015311Y-100775488D01*
X147090000Y-100782844D01*
X147790000Y-100782844D01*
X147864689Y-100775488D01*
X147936508Y-100753702D01*
X148002696Y-100718323D01*
X148060711Y-100670712D01*
X148075000Y-100653301D01*
X148089289Y-100670712D01*
X148147304Y-100718323D01*
X148213492Y-100753702D01*
X148285311Y-100775488D01*
X148360000Y-100782844D01*
X149060000Y-100782844D01*
X149134689Y-100775488D01*
X149206508Y-100753702D01*
X149272696Y-100718323D01*
X149330711Y-100670712D01*
X149345000Y-100653301D01*
X149359289Y-100670712D01*
X149417304Y-100718323D01*
X149483492Y-100753702D01*
X149555311Y-100775488D01*
X149630000Y-100782844D01*
X150330000Y-100782844D01*
X150404689Y-100775488D01*
X150476508Y-100753702D01*
X150542696Y-100718323D01*
X150600711Y-100670712D01*
X150615000Y-100653301D01*
X150629289Y-100670712D01*
X150687304Y-100718323D01*
X150753492Y-100753702D01*
X150825311Y-100775488D01*
X150900000Y-100782844D01*
X151600000Y-100782844D01*
X151674689Y-100775488D01*
X151746508Y-100753702D01*
X151812696Y-100718323D01*
X151870711Y-100670712D01*
X151885000Y-100653301D01*
X151899289Y-100670712D01*
X151957304Y-100718323D01*
X152023492Y-100753702D01*
X152095311Y-100775488D01*
X152170000Y-100782844D01*
X152870000Y-100782844D01*
X152944689Y-100775488D01*
X153016508Y-100753702D01*
X153082696Y-100718323D01*
X153140711Y-100670712D01*
X153188322Y-100612697D01*
X153217840Y-100557473D01*
X153247242Y-100612479D01*
X153310474Y-100689527D01*
X153329780Y-100705371D01*
X153626565Y-101002157D01*
X153552000Y-101002157D01*
X153477311Y-101009513D01*
X153405492Y-101031299D01*
X153339304Y-101066678D01*
X153281289Y-101114289D01*
X153233678Y-101172304D01*
X153233573Y-101172500D01*
X151645139Y-101172500D01*
X151599243Y-101086634D01*
X151521318Y-100991682D01*
X151426366Y-100913757D01*
X151318037Y-100855854D01*
X151200492Y-100820197D01*
X151078250Y-100808157D01*
X150165750Y-100808157D01*
X150043508Y-100820197D01*
X149925963Y-100855854D01*
X149817634Y-100913757D01*
X149722682Y-100991682D01*
X149644757Y-101086634D01*
X149598861Y-101172500D01*
X145978427Y-101172500D01*
X145978322Y-101172304D01*
X145930711Y-101114289D01*
X145872696Y-101066678D01*
X145806508Y-101031299D01*
X145734689Y-101009513D01*
X145660000Y-101002157D01*
X144760000Y-101002157D01*
X144685311Y-101009513D01*
X144613492Y-101031299D01*
X144547304Y-101066678D01*
X144489289Y-101114289D01*
X144441678Y-101172304D01*
X144406299Y-101238492D01*
X144384513Y-101310311D01*
X144377157Y-101385000D01*
X144377157Y-103085000D01*
X144384513Y-103159689D01*
X144406299Y-103231508D01*
X144441678Y-103297696D01*
X144489289Y-103355711D01*
X144547304Y-103403322D01*
X144613492Y-103438701D01*
X144685311Y-103460487D01*
X144760000Y-103467843D01*
X145424252Y-103467843D01*
X146539000Y-104582592D01*
X146539000Y-104724922D01*
X146567261Y-104867001D01*
X141475093Y-104867001D01*
X140136770Y-103528678D01*
X140147843Y-103416250D01*
X140147843Y-102928750D01*
X140135803Y-102806508D01*
X140100146Y-102688963D01*
X140042243Y-102580634D01*
X139964318Y-102485682D01*
X139869366Y-102407757D01*
X139761037Y-102349854D01*
X139643492Y-102314197D01*
X139521250Y-102302157D01*
X138608750Y-102302157D01*
X138486508Y-102314197D01*
X138368963Y-102349854D01*
X138260634Y-102407757D01*
X138165682Y-102485682D01*
X138147918Y-102507327D01*
X137998500Y-102357909D01*
X137998500Y-101677677D01*
X138029854Y-101781037D01*
X138087757Y-101889366D01*
X138165682Y-101984318D01*
X138260634Y-102062243D01*
X138368963Y-102120146D01*
X138486508Y-102155803D01*
X138608750Y-102167843D01*
X139521250Y-102167843D01*
X139643492Y-102155803D01*
X139761037Y-102120146D01*
X139869366Y-102062243D01*
X139964318Y-101984318D01*
X140042243Y-101889366D01*
X140100146Y-101781037D01*
X140135803Y-101663492D01*
X140147843Y-101541250D01*
X140147843Y-101115988D01*
X140153822Y-101176692D01*
X140182755Y-101272074D01*
X140229741Y-101359979D01*
X140292973Y-101437027D01*
X140312285Y-101452876D01*
X140977157Y-102117749D01*
X140977157Y-102455214D01*
X140969053Y-102537500D01*
X140977157Y-102619786D01*
X140977157Y-103085000D01*
X140984513Y-103159689D01*
X141006299Y-103231508D01*
X141041678Y-103297696D01*
X141089289Y-103355711D01*
X141147304Y-103403322D01*
X141213492Y-103438701D01*
X141285311Y-103460487D01*
X141360000Y-103467843D01*
X142260000Y-103467843D01*
X142334689Y-103460487D01*
X142406508Y-103438701D01*
X142472696Y-103403322D01*
X142530711Y-103355711D01*
X142578322Y-103297696D01*
X142613701Y-103231508D01*
X142635487Y-103159689D01*
X142642843Y-103085000D01*
X142642843Y-101385000D01*
X142635487Y-101310311D01*
X142613701Y-101238492D01*
X142578322Y-101172304D01*
X142530711Y-101114289D01*
X142472696Y-101066678D01*
X142406508Y-101031299D01*
X142334689Y-101009513D01*
X142260000Y-101002157D01*
X141360000Y-101002157D01*
X141298778Y-101008187D01*
X141158500Y-100867909D01*
X141158500Y-98317091D01*
X141627157Y-97848435D01*
X141627157Y-100400001D01*
G37*
X141627157Y-100400001D02*
X141634513Y-100474690D01*
X141656299Y-100546509D01*
X141691678Y-100612697D01*
X141739289Y-100670712D01*
X141797304Y-100718323D01*
X141863492Y-100753702D01*
X141935311Y-100775488D01*
X142010000Y-100782844D01*
X142710000Y-100782844D01*
X142784689Y-100775488D01*
X142856508Y-100753702D01*
X142922696Y-100718323D01*
X142980711Y-100670712D01*
X142995000Y-100653301D01*
X143009289Y-100670712D01*
X143067304Y-100718323D01*
X143133492Y-100753702D01*
X143205311Y-100775488D01*
X143280000Y-100782844D01*
X143980000Y-100782844D01*
X144054689Y-100775488D01*
X144126508Y-100753702D01*
X144192696Y-100718323D01*
X144250711Y-100670712D01*
X144265000Y-100653301D01*
X144279289Y-100670712D01*
X144337304Y-100718323D01*
X144403492Y-100753702D01*
X144475311Y-100775488D01*
X144550000Y-100782844D01*
X145250000Y-100782844D01*
X145324689Y-100775488D01*
X145396508Y-100753702D01*
X145462696Y-100718323D01*
X145520711Y-100670712D01*
X145535000Y-100653301D01*
X145549289Y-100670712D01*
X145607304Y-100718323D01*
X145673492Y-100753702D01*
X145745311Y-100775488D01*
X145820000Y-100782844D01*
X146520000Y-100782844D01*
X146594689Y-100775488D01*
X146666508Y-100753702D01*
X146732696Y-100718323D01*
X146790711Y-100670712D01*
X146805000Y-100653301D01*
X146819289Y-100670712D01*
X146877304Y-100718323D01*
X146943492Y-100753702D01*
X147015311Y-100775488D01*
X147090000Y-100782844D01*
X147790000Y-100782844D01*
X147864689Y-100775488D01*
X147936508Y-100753702D01*
X148002696Y-100718323D01*
X148060711Y-100670712D01*
X148075000Y-100653301D01*
X148089289Y-100670712D01*
X148147304Y-100718323D01*
X148213492Y-100753702D01*
X148285311Y-100775488D01*
X148360000Y-100782844D01*
X149060000Y-100782844D01*
X149134689Y-100775488D01*
X149206508Y-100753702D01*
X149272696Y-100718323D01*
X149330711Y-100670712D01*
X149345000Y-100653301D01*
X149359289Y-100670712D01*
X149417304Y-100718323D01*
X149483492Y-100753702D01*
X149555311Y-100775488D01*
X149630000Y-100782844D01*
X150330000Y-100782844D01*
X150404689Y-100775488D01*
X150476508Y-100753702D01*
X150542696Y-100718323D01*
X150600711Y-100670712D01*
X150615000Y-100653301D01*
X150629289Y-100670712D01*
X150687304Y-100718323D01*
X150753492Y-100753702D01*
X150825311Y-100775488D01*
X150900000Y-100782844D01*
X151600000Y-100782844D01*
X151674689Y-100775488D01*
X151746508Y-100753702D01*
X151812696Y-100718323D01*
X151870711Y-100670712D01*
X151885000Y-100653301D01*
X151899289Y-100670712D01*
X151957304Y-100718323D01*
X152023492Y-100753702D01*
X152095311Y-100775488D01*
X152170000Y-100782844D01*
X152870000Y-100782844D01*
X152944689Y-100775488D01*
X153016508Y-100753702D01*
X153082696Y-100718323D01*
X153140711Y-100670712D01*
X153188322Y-100612697D01*
X153217840Y-100557473D01*
X153247242Y-100612479D01*
X153310474Y-100689527D01*
X153329780Y-100705371D01*
X153626565Y-101002157D01*
X153552000Y-101002157D01*
X153477311Y-101009513D01*
X153405492Y-101031299D01*
X153339304Y-101066678D01*
X153281289Y-101114289D01*
X153233678Y-101172304D01*
X153233573Y-101172500D01*
X151645139Y-101172500D01*
X151599243Y-101086634D01*
X151521318Y-100991682D01*
X151426366Y-100913757D01*
X151318037Y-100855854D01*
X151200492Y-100820197D01*
X151078250Y-100808157D01*
X150165750Y-100808157D01*
X150043508Y-100820197D01*
X149925963Y-100855854D01*
X149817634Y-100913757D01*
X149722682Y-100991682D01*
X149644757Y-101086634D01*
X149598861Y-101172500D01*
X145978427Y-101172500D01*
X145978322Y-101172304D01*
X145930711Y-101114289D01*
X145872696Y-101066678D01*
X145806508Y-101031299D01*
X145734689Y-101009513D01*
X145660000Y-101002157D01*
X144760000Y-101002157D01*
X144685311Y-101009513D01*
X144613492Y-101031299D01*
X144547304Y-101066678D01*
X144489289Y-101114289D01*
X144441678Y-101172304D01*
X144406299Y-101238492D01*
X144384513Y-101310311D01*
X144377157Y-101385000D01*
X144377157Y-103085000D01*
X144384513Y-103159689D01*
X144406299Y-103231508D01*
X144441678Y-103297696D01*
X144489289Y-103355711D01*
X144547304Y-103403322D01*
X144613492Y-103438701D01*
X144685311Y-103460487D01*
X144760000Y-103467843D01*
X145424252Y-103467843D01*
X146539000Y-104582592D01*
X146539000Y-104724922D01*
X146567261Y-104867001D01*
X141475093Y-104867001D01*
X140136770Y-103528678D01*
X140147843Y-103416250D01*
X140147843Y-102928750D01*
X140135803Y-102806508D01*
X140100146Y-102688963D01*
X140042243Y-102580634D01*
X139964318Y-102485682D01*
X139869366Y-102407757D01*
X139761037Y-102349854D01*
X139643492Y-102314197D01*
X139521250Y-102302157D01*
X138608750Y-102302157D01*
X138486508Y-102314197D01*
X138368963Y-102349854D01*
X138260634Y-102407757D01*
X138165682Y-102485682D01*
X138147918Y-102507327D01*
X137998500Y-102357909D01*
X137998500Y-101677677D01*
X138029854Y-101781037D01*
X138087757Y-101889366D01*
X138165682Y-101984318D01*
X138260634Y-102062243D01*
X138368963Y-102120146D01*
X138486508Y-102155803D01*
X138608750Y-102167843D01*
X139521250Y-102167843D01*
X139643492Y-102155803D01*
X139761037Y-102120146D01*
X139869366Y-102062243D01*
X139964318Y-101984318D01*
X140042243Y-101889366D01*
X140100146Y-101781037D01*
X140135803Y-101663492D01*
X140147843Y-101541250D01*
X140147843Y-101115988D01*
X140153822Y-101176692D01*
X140182755Y-101272074D01*
X140229741Y-101359979D01*
X140292973Y-101437027D01*
X140312285Y-101452876D01*
X140977157Y-102117749D01*
X140977157Y-102455214D01*
X140969053Y-102537500D01*
X140977157Y-102619786D01*
X140977157Y-103085000D01*
X140984513Y-103159689D01*
X141006299Y-103231508D01*
X141041678Y-103297696D01*
X141089289Y-103355711D01*
X141147304Y-103403322D01*
X141213492Y-103438701D01*
X141285311Y-103460487D01*
X141360000Y-103467843D01*
X142260000Y-103467843D01*
X142334689Y-103460487D01*
X142406508Y-103438701D01*
X142472696Y-103403322D01*
X142530711Y-103355711D01*
X142578322Y-103297696D01*
X142613701Y-103231508D01*
X142635487Y-103159689D01*
X142642843Y-103085000D01*
X142642843Y-101385000D01*
X142635487Y-101310311D01*
X142613701Y-101238492D01*
X142578322Y-101172304D01*
X142530711Y-101114289D01*
X142472696Y-101066678D01*
X142406508Y-101031299D01*
X142334689Y-101009513D01*
X142260000Y-101002157D01*
X141360000Y-101002157D01*
X141298778Y-101008187D01*
X141158500Y-100867909D01*
X141158500Y-98317091D01*
X141627157Y-97848435D01*
X141627157Y-100400001D01*
G36*
X140146500Y-101040115D02*
G01*
X140135803Y-100931508D01*
X140100146Y-100813963D01*
X140042243Y-100705634D01*
X139964318Y-100610682D01*
X139869366Y-100532757D01*
X139761037Y-100474854D01*
X139643492Y-100439197D01*
X139571000Y-100432057D01*
X139571000Y-99904591D01*
X140146501Y-99329091D01*
X140146500Y-101040115D01*
G37*
X140146500Y-101040115D02*
X140135803Y-100931508D01*
X140100146Y-100813963D01*
X140042243Y-100705634D01*
X139964318Y-100610682D01*
X139869366Y-100532757D01*
X139761037Y-100474854D01*
X139643492Y-100439197D01*
X139571000Y-100432057D01*
X139571000Y-99904591D01*
X140146501Y-99329091D01*
X140146500Y-101040115D01*
G36*
X140312283Y-97732126D02*
G01*
X140312278Y-97732130D01*
X140312275Y-97732133D01*
X140292974Y-97747973D01*
X140277134Y-97767274D01*
X138724780Y-99319628D01*
X138705474Y-99335473D01*
X138642242Y-99412521D01*
X138627033Y-99440975D01*
X138595255Y-99500426D01*
X138566322Y-99595808D01*
X138556553Y-99695000D01*
X138559001Y-99719856D01*
X138559001Y-100432057D01*
X138486508Y-100439197D01*
X138368963Y-100474854D01*
X138260634Y-100532757D01*
X138165682Y-100610682D01*
X138087757Y-100705634D01*
X138029854Y-100813963D01*
X137998500Y-100917323D01*
X137998500Y-100010093D01*
X140877603Y-97130991D01*
X140913417Y-97130991D01*
X140312283Y-97732126D01*
G37*
X140312283Y-97732126D02*
X140312278Y-97732130D01*
X140312275Y-97732133D01*
X140292974Y-97747973D01*
X140277134Y-97767274D01*
X138724780Y-99319628D01*
X138705474Y-99335473D01*
X138642242Y-99412521D01*
X138627033Y-99440975D01*
X138595255Y-99500426D01*
X138566322Y-99595808D01*
X138556553Y-99695000D01*
X138559001Y-99719856D01*
X138559001Y-100432057D01*
X138486508Y-100439197D01*
X138368963Y-100474854D01*
X138260634Y-100532757D01*
X138165682Y-100610682D01*
X138087757Y-100705634D01*
X138029854Y-100813963D01*
X137998500Y-100917323D01*
X137998500Y-100010093D01*
X140877603Y-97130991D01*
X140913417Y-97130991D01*
X140312283Y-97732126D01*
G36*
X154188141Y-97380642D02*
G01*
X154316058Y-97466113D01*
X154458191Y-97524987D01*
X154484240Y-97530168D01*
X154469681Y-97544727D01*
X154458191Y-97547013D01*
X154316058Y-97605887D01*
X154188141Y-97691358D01*
X154176000Y-97703499D01*
X154176000Y-97368501D01*
X154188141Y-97380642D01*
G37*
X154188141Y-97380642D02*
X154316058Y-97466113D01*
X154458191Y-97524987D01*
X154484240Y-97530168D01*
X154469681Y-97544727D01*
X154458191Y-97547013D01*
X154316058Y-97605887D01*
X154188141Y-97691358D01*
X154176000Y-97703499D01*
X154176000Y-97368501D01*
X154188141Y-97380642D01*
G36*
X156014513Y-84705312D02*
G01*
X156007157Y-84780001D01*
X156007157Y-85480001D01*
X156014513Y-85554690D01*
X156036299Y-85626509D01*
X156071678Y-85692697D01*
X156119289Y-85750712D01*
X156136700Y-85765001D01*
X156119289Y-85779290D01*
X156071678Y-85837305D01*
X156036299Y-85903493D01*
X156014513Y-85975312D01*
X156007157Y-86050001D01*
X156007157Y-86750001D01*
X156014513Y-86824690D01*
X156036299Y-86896509D01*
X156071678Y-86962697D01*
X156119289Y-87020712D01*
X156136700Y-87035001D01*
X156119289Y-87049290D01*
X156071678Y-87107305D01*
X156036811Y-87172535D01*
X156033653Y-87173493D01*
X155945425Y-87200256D01*
X155857521Y-87247242D01*
X155780473Y-87310474D01*
X155764629Y-87329780D01*
X153329785Y-89764625D01*
X153310473Y-89780474D01*
X153247241Y-89857522D01*
X153200255Y-89945427D01*
X153171322Y-90040809D01*
X153164000Y-90115148D01*
X153164000Y-90115155D01*
X153161553Y-90140001D01*
X153164000Y-90164847D01*
X153164001Y-97557669D01*
X153140711Y-97529290D01*
X153082696Y-97481679D01*
X153016508Y-97446300D01*
X152944689Y-97424514D01*
X152870000Y-97417158D01*
X152170000Y-97417158D01*
X152095311Y-97424514D01*
X152023492Y-97446300D01*
X151957304Y-97481679D01*
X151899289Y-97529290D01*
X151885000Y-97546701D01*
X151870711Y-97529290D01*
X151812696Y-97481679D01*
X151746508Y-97446300D01*
X151674689Y-97424514D01*
X151600000Y-97417158D01*
X150900000Y-97417158D01*
X150825311Y-97424514D01*
X150753492Y-97446300D01*
X150687304Y-97481679D01*
X150629289Y-97529290D01*
X150615000Y-97546701D01*
X150600711Y-97529290D01*
X150542696Y-97481679D01*
X150476508Y-97446300D01*
X150404689Y-97424514D01*
X150330000Y-97417158D01*
X149630000Y-97417158D01*
X149555311Y-97424514D01*
X149483492Y-97446300D01*
X149417304Y-97481679D01*
X149359289Y-97529290D01*
X149345000Y-97546701D01*
X149330711Y-97529290D01*
X149272696Y-97481679D01*
X149206508Y-97446300D01*
X149134689Y-97424514D01*
X149060000Y-97417158D01*
X148360000Y-97417158D01*
X148285311Y-97424514D01*
X148213492Y-97446300D01*
X148147304Y-97481679D01*
X148089289Y-97529290D01*
X148075000Y-97546701D01*
X148060711Y-97529290D01*
X148002696Y-97481679D01*
X147936508Y-97446300D01*
X147864689Y-97424514D01*
X147790000Y-97417158D01*
X147090000Y-97417158D01*
X147015311Y-97424514D01*
X146943492Y-97446300D01*
X146877304Y-97481679D01*
X146819289Y-97529290D01*
X146805000Y-97546701D01*
X146790711Y-97529290D01*
X146732696Y-97481679D01*
X146666508Y-97446300D01*
X146594689Y-97424514D01*
X146520000Y-97417158D01*
X145820000Y-97417158D01*
X145745311Y-97424514D01*
X145673492Y-97446300D01*
X145607304Y-97481679D01*
X145549289Y-97529290D01*
X145535000Y-97546701D01*
X145520711Y-97529290D01*
X145462696Y-97481679D01*
X145396508Y-97446300D01*
X145324689Y-97424514D01*
X145250000Y-97417158D01*
X144550000Y-97417158D01*
X144475311Y-97424514D01*
X144403492Y-97446300D01*
X144337304Y-97481679D01*
X144279289Y-97529290D01*
X144265000Y-97546701D01*
X144250711Y-97529290D01*
X144228536Y-97511092D01*
X144253478Y-97497760D01*
X144330526Y-97434528D01*
X144346375Y-97415216D01*
X154620592Y-87141000D01*
X154762922Y-87141000D01*
X154913809Y-87110987D01*
X155055942Y-87052113D01*
X155183859Y-86966642D01*
X155292642Y-86857859D01*
X155378113Y-86729942D01*
X155436987Y-86587809D01*
X155467000Y-86436922D01*
X155467000Y-86283078D01*
X155436987Y-86132191D01*
X155378113Y-85990058D01*
X155292642Y-85862141D01*
X155192000Y-85761499D01*
X155192000Y-85523592D01*
X156016356Y-84699237D01*
X156014513Y-84705312D01*
G37*
X156014513Y-84705312D02*
X156007157Y-84780001D01*
X156007157Y-85480001D01*
X156014513Y-85554690D01*
X156036299Y-85626509D01*
X156071678Y-85692697D01*
X156119289Y-85750712D01*
X156136700Y-85765001D01*
X156119289Y-85779290D01*
X156071678Y-85837305D01*
X156036299Y-85903493D01*
X156014513Y-85975312D01*
X156007157Y-86050001D01*
X156007157Y-86750001D01*
X156014513Y-86824690D01*
X156036299Y-86896509D01*
X156071678Y-86962697D01*
X156119289Y-87020712D01*
X156136700Y-87035001D01*
X156119289Y-87049290D01*
X156071678Y-87107305D01*
X156036811Y-87172535D01*
X156033653Y-87173493D01*
X155945425Y-87200256D01*
X155857521Y-87247242D01*
X155780473Y-87310474D01*
X155764629Y-87329780D01*
X153329785Y-89764625D01*
X153310473Y-89780474D01*
X153247241Y-89857522D01*
X153200255Y-89945427D01*
X153171322Y-90040809D01*
X153164000Y-90115148D01*
X153164000Y-90115155D01*
X153161553Y-90140001D01*
X153164000Y-90164847D01*
X153164001Y-97557669D01*
X153140711Y-97529290D01*
X153082696Y-97481679D01*
X153016508Y-97446300D01*
X152944689Y-97424514D01*
X152870000Y-97417158D01*
X152170000Y-97417158D01*
X152095311Y-97424514D01*
X152023492Y-97446300D01*
X151957304Y-97481679D01*
X151899289Y-97529290D01*
X151885000Y-97546701D01*
X151870711Y-97529290D01*
X151812696Y-97481679D01*
X151746508Y-97446300D01*
X151674689Y-97424514D01*
X151600000Y-97417158D01*
X150900000Y-97417158D01*
X150825311Y-97424514D01*
X150753492Y-97446300D01*
X150687304Y-97481679D01*
X150629289Y-97529290D01*
X150615000Y-97546701D01*
X150600711Y-97529290D01*
X150542696Y-97481679D01*
X150476508Y-97446300D01*
X150404689Y-97424514D01*
X150330000Y-97417158D01*
X149630000Y-97417158D01*
X149555311Y-97424514D01*
X149483492Y-97446300D01*
X149417304Y-97481679D01*
X149359289Y-97529290D01*
X149345000Y-97546701D01*
X149330711Y-97529290D01*
X149272696Y-97481679D01*
X149206508Y-97446300D01*
X149134689Y-97424514D01*
X149060000Y-97417158D01*
X148360000Y-97417158D01*
X148285311Y-97424514D01*
X148213492Y-97446300D01*
X148147304Y-97481679D01*
X148089289Y-97529290D01*
X148075000Y-97546701D01*
X148060711Y-97529290D01*
X148002696Y-97481679D01*
X147936508Y-97446300D01*
X147864689Y-97424514D01*
X147790000Y-97417158D01*
X147090000Y-97417158D01*
X147015311Y-97424514D01*
X146943492Y-97446300D01*
X146877304Y-97481679D01*
X146819289Y-97529290D01*
X146805000Y-97546701D01*
X146790711Y-97529290D01*
X146732696Y-97481679D01*
X146666508Y-97446300D01*
X146594689Y-97424514D01*
X146520000Y-97417158D01*
X145820000Y-97417158D01*
X145745311Y-97424514D01*
X145673492Y-97446300D01*
X145607304Y-97481679D01*
X145549289Y-97529290D01*
X145535000Y-97546701D01*
X145520711Y-97529290D01*
X145462696Y-97481679D01*
X145396508Y-97446300D01*
X145324689Y-97424514D01*
X145250000Y-97417158D01*
X144550000Y-97417158D01*
X144475311Y-97424514D01*
X144403492Y-97446300D01*
X144337304Y-97481679D01*
X144279289Y-97529290D01*
X144265000Y-97546701D01*
X144250711Y-97529290D01*
X144228536Y-97511092D01*
X144253478Y-97497760D01*
X144330526Y-97434528D01*
X144346375Y-97415216D01*
X154620592Y-87141000D01*
X154762922Y-87141000D01*
X154913809Y-87110987D01*
X155055942Y-87052113D01*
X155183859Y-86966642D01*
X155292642Y-86857859D01*
X155378113Y-86729942D01*
X155436987Y-86587809D01*
X155467000Y-86436922D01*
X155467000Y-86283078D01*
X155436987Y-86132191D01*
X155378113Y-85990058D01*
X155292642Y-85862141D01*
X155192000Y-85761499D01*
X155192000Y-85523592D01*
X156016356Y-84699237D01*
X156014513Y-84705312D01*
G36*
X158598000Y-67478171D02*
G01*
X158598000Y-81857158D01*
X156390000Y-81857158D01*
X156315311Y-81864514D01*
X156243492Y-81886300D01*
X156177304Y-81921679D01*
X156119289Y-81969290D01*
X156071678Y-82027305D01*
X156036299Y-82093493D01*
X156014513Y-82165312D01*
X156007157Y-82240001D01*
X156007157Y-82940001D01*
X156014513Y-83014690D01*
X156036299Y-83086509D01*
X156071678Y-83152697D01*
X156119289Y-83210712D01*
X156136700Y-83225001D01*
X156119289Y-83239290D01*
X156071678Y-83297305D01*
X156036811Y-83362535D01*
X155945425Y-83390256D01*
X155857521Y-83437242D01*
X155780473Y-83500474D01*
X155764628Y-83519781D01*
X154345785Y-84938625D01*
X154326473Y-84954474D01*
X154263241Y-85031522D01*
X154216255Y-85119427D01*
X154187322Y-85214809D01*
X154180000Y-85289148D01*
X154180000Y-85289155D01*
X154177553Y-85314001D01*
X154180000Y-85338848D01*
X154180000Y-85761499D01*
X154079358Y-85862141D01*
X153993887Y-85990058D01*
X153935013Y-86132191D01*
X153905000Y-86283078D01*
X153905000Y-86425408D01*
X143761408Y-96569001D01*
X143725592Y-96569001D01*
X153211221Y-87083373D01*
X153230528Y-87067528D01*
X153293760Y-86990480D01*
X153340746Y-86902576D01*
X153369679Y-86807194D01*
X153377001Y-86732855D01*
X153379449Y-86708001D01*
X153377001Y-86683147D01*
X153377001Y-86036844D01*
X153379448Y-86011998D01*
X153377001Y-85987152D01*
X153377001Y-85987145D01*
X153369679Y-85912806D01*
X153340746Y-85817424D01*
X153293760Y-85729520D01*
X153230528Y-85652472D01*
X153211221Y-85636627D01*
X152324378Y-84749785D01*
X152308529Y-84730473D01*
X152231481Y-84667241D01*
X152143577Y-84620255D01*
X152048195Y-84591322D01*
X151973856Y-84584000D01*
X151973848Y-84584000D01*
X151949002Y-84581553D01*
X151924156Y-84584000D01*
X141060501Y-84584000D01*
X140959859Y-84483358D01*
X140831942Y-84397887D01*
X140689809Y-84339013D01*
X140538922Y-84309000D01*
X140385078Y-84309000D01*
X140234191Y-84339013D01*
X140092058Y-84397887D01*
X139964141Y-84483358D01*
X139855358Y-84592141D01*
X139834070Y-84624001D01*
X138838627Y-84624001D01*
X138808322Y-84567305D01*
X138760711Y-84509290D01*
X138743300Y-84495001D01*
X138760711Y-84480712D01*
X138808322Y-84422697D01*
X138843701Y-84356509D01*
X138865487Y-84284690D01*
X138872843Y-84210001D01*
X138872843Y-83510001D01*
X138865487Y-83435312D01*
X138843701Y-83363493D01*
X138808322Y-83297305D01*
X138760711Y-83239290D01*
X138743300Y-83225001D01*
X138760711Y-83210712D01*
X138808322Y-83152697D01*
X138838627Y-83096001D01*
X139903500Y-83096001D01*
X139964141Y-83156642D01*
X140092058Y-83242113D01*
X140234191Y-83300987D01*
X140385078Y-83331000D01*
X140538922Y-83331000D01*
X140689809Y-83300987D01*
X140831942Y-83242113D01*
X140959859Y-83156642D01*
X141068642Y-83047859D01*
X141154113Y-82919942D01*
X141212987Y-82777809D01*
X141243000Y-82626922D01*
X141243000Y-82473078D01*
X141212987Y-82322191D01*
X141154113Y-82180058D01*
X141068642Y-82052141D01*
X140959859Y-81943358D01*
X140831942Y-81857887D01*
X140689809Y-81799013D01*
X140538922Y-81769000D01*
X140385078Y-81769000D01*
X140234191Y-81799013D01*
X140092058Y-81857887D01*
X139964141Y-81943358D01*
X139855358Y-82052141D01*
X139834070Y-82084001D01*
X138838627Y-82084001D01*
X138808322Y-82027305D01*
X138760711Y-81969290D01*
X138702696Y-81921679D01*
X138636508Y-81886300D01*
X138564689Y-81864514D01*
X138490000Y-81857158D01*
X136296000Y-81857158D01*
X136296000Y-67478169D01*
X137328171Y-66446000D01*
X157565831Y-66446000D01*
X158598000Y-67478171D01*
G37*
X158598000Y-67478171D02*
X158598000Y-81857158D01*
X156390000Y-81857158D01*
X156315311Y-81864514D01*
X156243492Y-81886300D01*
X156177304Y-81921679D01*
X156119289Y-81969290D01*
X156071678Y-82027305D01*
X156036299Y-82093493D01*
X156014513Y-82165312D01*
X156007157Y-82240001D01*
X156007157Y-82940001D01*
X156014513Y-83014690D01*
X156036299Y-83086509D01*
X156071678Y-83152697D01*
X156119289Y-83210712D01*
X156136700Y-83225001D01*
X156119289Y-83239290D01*
X156071678Y-83297305D01*
X156036811Y-83362535D01*
X155945425Y-83390256D01*
X155857521Y-83437242D01*
X155780473Y-83500474D01*
X155764628Y-83519781D01*
X154345785Y-84938625D01*
X154326473Y-84954474D01*
X154263241Y-85031522D01*
X154216255Y-85119427D01*
X154187322Y-85214809D01*
X154180000Y-85289148D01*
X154180000Y-85289155D01*
X154177553Y-85314001D01*
X154180000Y-85338848D01*
X154180000Y-85761499D01*
X154079358Y-85862141D01*
X153993887Y-85990058D01*
X153935013Y-86132191D01*
X153905000Y-86283078D01*
X153905000Y-86425408D01*
X143761408Y-96569001D01*
X143725592Y-96569001D01*
X153211221Y-87083373D01*
X153230528Y-87067528D01*
X153293760Y-86990480D01*
X153340746Y-86902576D01*
X153369679Y-86807194D01*
X153377001Y-86732855D01*
X153379449Y-86708001D01*
X153377001Y-86683147D01*
X153377001Y-86036844D01*
X153379448Y-86011998D01*
X153377001Y-85987152D01*
X153377001Y-85987145D01*
X153369679Y-85912806D01*
X153340746Y-85817424D01*
X153293760Y-85729520D01*
X153230528Y-85652472D01*
X153211221Y-85636627D01*
X152324378Y-84749785D01*
X152308529Y-84730473D01*
X152231481Y-84667241D01*
X152143577Y-84620255D01*
X152048195Y-84591322D01*
X151973856Y-84584000D01*
X151973848Y-84584000D01*
X151949002Y-84581553D01*
X151924156Y-84584000D01*
X141060501Y-84584000D01*
X140959859Y-84483358D01*
X140831942Y-84397887D01*
X140689809Y-84339013D01*
X140538922Y-84309000D01*
X140385078Y-84309000D01*
X140234191Y-84339013D01*
X140092058Y-84397887D01*
X139964141Y-84483358D01*
X139855358Y-84592141D01*
X139834070Y-84624001D01*
X138838627Y-84624001D01*
X138808322Y-84567305D01*
X138760711Y-84509290D01*
X138743300Y-84495001D01*
X138760711Y-84480712D01*
X138808322Y-84422697D01*
X138843701Y-84356509D01*
X138865487Y-84284690D01*
X138872843Y-84210001D01*
X138872843Y-83510001D01*
X138865487Y-83435312D01*
X138843701Y-83363493D01*
X138808322Y-83297305D01*
X138760711Y-83239290D01*
X138743300Y-83225001D01*
X138760711Y-83210712D01*
X138808322Y-83152697D01*
X138838627Y-83096001D01*
X139903500Y-83096001D01*
X139964141Y-83156642D01*
X140092058Y-83242113D01*
X140234191Y-83300987D01*
X140385078Y-83331000D01*
X140538922Y-83331000D01*
X140689809Y-83300987D01*
X140831942Y-83242113D01*
X140959859Y-83156642D01*
X141068642Y-83047859D01*
X141154113Y-82919942D01*
X141212987Y-82777809D01*
X141243000Y-82626922D01*
X141243000Y-82473078D01*
X141212987Y-82322191D01*
X141154113Y-82180058D01*
X141068642Y-82052141D01*
X140959859Y-81943358D01*
X140831942Y-81857887D01*
X140689809Y-81799013D01*
X140538922Y-81769000D01*
X140385078Y-81769000D01*
X140234191Y-81799013D01*
X140092058Y-81857887D01*
X139964141Y-81943358D01*
X139855358Y-82052141D01*
X139834070Y-82084001D01*
X138838627Y-82084001D01*
X138808322Y-82027305D01*
X138760711Y-81969290D01*
X138702696Y-81921679D01*
X138636508Y-81886300D01*
X138564689Y-81864514D01*
X138490000Y-81857158D01*
X136296000Y-81857158D01*
X136296000Y-67478169D01*
X137328171Y-66446000D01*
X157565831Y-66446000D01*
X158598000Y-67478171D01*
G36*
X156014513Y-88515312D02*
G01*
X156007157Y-88590001D01*
X156007157Y-89290001D01*
X156014513Y-89364690D01*
X156036299Y-89436509D01*
X156071678Y-89502697D01*
X156119289Y-89560712D01*
X156136700Y-89575001D01*
X156119289Y-89589290D01*
X156071678Y-89647305D01*
X156036299Y-89713493D01*
X156014513Y-89785312D01*
X156007157Y-89860001D01*
X156007157Y-90560001D01*
X156014513Y-90634690D01*
X156036299Y-90706509D01*
X156071678Y-90772697D01*
X156119289Y-90830712D01*
X156136700Y-90845001D01*
X156119289Y-90859290D01*
X156071678Y-90917305D01*
X156036299Y-90983493D01*
X156014513Y-91055312D01*
X156007157Y-91130001D01*
X156007157Y-91830001D01*
X156014513Y-91904690D01*
X156036299Y-91976509D01*
X156071678Y-92042697D01*
X156119289Y-92100712D01*
X156136700Y-92115001D01*
X156119289Y-92129290D01*
X156071678Y-92187305D01*
X156036299Y-92253493D01*
X156014513Y-92325312D01*
X156007157Y-92400001D01*
X156007157Y-93100001D01*
X156014513Y-93174690D01*
X156036299Y-93246509D01*
X156071678Y-93312697D01*
X156119289Y-93370712D01*
X156136700Y-93385001D01*
X156119289Y-93399290D01*
X156071678Y-93457305D01*
X156036299Y-93523493D01*
X156014513Y-93595312D01*
X156007157Y-93670001D01*
X156007157Y-94370001D01*
X156014513Y-94444690D01*
X156036299Y-94516509D01*
X156071678Y-94582697D01*
X156119289Y-94640712D01*
X156136700Y-94655001D01*
X156119289Y-94669290D01*
X156071678Y-94727305D01*
X156036299Y-94793493D01*
X156033527Y-94802631D01*
X155975424Y-94820256D01*
X155887520Y-94867242D01*
X155810472Y-94930474D01*
X155794627Y-94949781D01*
X154751409Y-95993000D01*
X154609078Y-95993000D01*
X154458191Y-96023013D01*
X154316058Y-96081887D01*
X154188141Y-96167358D01*
X154176000Y-96179499D01*
X154176000Y-90349592D01*
X156016356Y-88509237D01*
X156014513Y-88515312D01*
G37*
X156014513Y-88515312D02*
X156007157Y-88590001D01*
X156007157Y-89290001D01*
X156014513Y-89364690D01*
X156036299Y-89436509D01*
X156071678Y-89502697D01*
X156119289Y-89560712D01*
X156136700Y-89575001D01*
X156119289Y-89589290D01*
X156071678Y-89647305D01*
X156036299Y-89713493D01*
X156014513Y-89785312D01*
X156007157Y-89860001D01*
X156007157Y-90560001D01*
X156014513Y-90634690D01*
X156036299Y-90706509D01*
X156071678Y-90772697D01*
X156119289Y-90830712D01*
X156136700Y-90845001D01*
X156119289Y-90859290D01*
X156071678Y-90917305D01*
X156036299Y-90983493D01*
X156014513Y-91055312D01*
X156007157Y-91130001D01*
X156007157Y-91830001D01*
X156014513Y-91904690D01*
X156036299Y-91976509D01*
X156071678Y-92042697D01*
X156119289Y-92100712D01*
X156136700Y-92115001D01*
X156119289Y-92129290D01*
X156071678Y-92187305D01*
X156036299Y-92253493D01*
X156014513Y-92325312D01*
X156007157Y-92400001D01*
X156007157Y-93100001D01*
X156014513Y-93174690D01*
X156036299Y-93246509D01*
X156071678Y-93312697D01*
X156119289Y-93370712D01*
X156136700Y-93385001D01*
X156119289Y-93399290D01*
X156071678Y-93457305D01*
X156036299Y-93523493D01*
X156014513Y-93595312D01*
X156007157Y-93670001D01*
X156007157Y-94370001D01*
X156014513Y-94444690D01*
X156036299Y-94516509D01*
X156071678Y-94582697D01*
X156119289Y-94640712D01*
X156136700Y-94655001D01*
X156119289Y-94669290D01*
X156071678Y-94727305D01*
X156036299Y-94793493D01*
X156033527Y-94802631D01*
X155975424Y-94820256D01*
X155887520Y-94867242D01*
X155810472Y-94930474D01*
X155794627Y-94949781D01*
X154751409Y-95993000D01*
X154609078Y-95993000D01*
X154458191Y-96023013D01*
X154316058Y-96081887D01*
X154188141Y-96167358D01*
X154176000Y-96179499D01*
X154176000Y-90349592D01*
X156016356Y-88509237D01*
X156014513Y-88515312D01*
G36*
X151800976Y-85657565D02*
G01*
X151776058Y-85667887D01*
X151648141Y-85753358D01*
X151539358Y-85862141D01*
X151453887Y-85990058D01*
X151395013Y-86132191D01*
X151365000Y-86283078D01*
X151365000Y-86425408D01*
X148086408Y-89704001D01*
X138838627Y-89704001D01*
X138808322Y-89647305D01*
X138760711Y-89589290D01*
X138743300Y-89575001D01*
X138760711Y-89560712D01*
X138808322Y-89502697D01*
X138838627Y-89446001D01*
X147001153Y-89446001D01*
X147025999Y-89448448D01*
X147050845Y-89446001D01*
X147050853Y-89446001D01*
X147125192Y-89438679D01*
X147220574Y-89409746D01*
X147308478Y-89362760D01*
X147385526Y-89299528D01*
X147401375Y-89280216D01*
X149540592Y-87141000D01*
X149682922Y-87141000D01*
X149833809Y-87110987D01*
X149975942Y-87052113D01*
X150103859Y-86966642D01*
X150212642Y-86857859D01*
X150298113Y-86729942D01*
X150356987Y-86587809D01*
X150387000Y-86436922D01*
X150387000Y-86283078D01*
X150356987Y-86132191D01*
X150298113Y-85990058D01*
X150212642Y-85862141D01*
X150103859Y-85753358D01*
X149975942Y-85667887D01*
X149833809Y-85609013D01*
X149768388Y-85596000D01*
X151739411Y-85596000D01*
X151800976Y-85657565D01*
G37*
X151800976Y-85657565D02*
X151776058Y-85667887D01*
X151648141Y-85753358D01*
X151539358Y-85862141D01*
X151453887Y-85990058D01*
X151395013Y-86132191D01*
X151365000Y-86283078D01*
X151365000Y-86425408D01*
X148086408Y-89704001D01*
X138838627Y-89704001D01*
X138808322Y-89647305D01*
X138760711Y-89589290D01*
X138743300Y-89575001D01*
X138760711Y-89560712D01*
X138808322Y-89502697D01*
X138838627Y-89446001D01*
X147001153Y-89446001D01*
X147025999Y-89448448D01*
X147050845Y-89446001D01*
X147050853Y-89446001D01*
X147125192Y-89438679D01*
X147220574Y-89409746D01*
X147308478Y-89362760D01*
X147385526Y-89299528D01*
X147401375Y-89280216D01*
X149540592Y-87141000D01*
X149682922Y-87141000D01*
X149833809Y-87110987D01*
X149975942Y-87052113D01*
X150103859Y-86966642D01*
X150212642Y-86857859D01*
X150298113Y-86729942D01*
X150356987Y-86587809D01*
X150387000Y-86436922D01*
X150387000Y-86283078D01*
X150356987Y-86132191D01*
X150298113Y-85990058D01*
X150212642Y-85862141D01*
X150103859Y-85753358D01*
X149975942Y-85667887D01*
X149833809Y-85609013D01*
X149768388Y-85596000D01*
X151739411Y-85596000D01*
X151800976Y-85657565D01*
G36*
X149378191Y-85609013D02*
G01*
X149236058Y-85667887D01*
X149108141Y-85753358D01*
X148999358Y-85862141D01*
X148913887Y-85990058D01*
X148855013Y-86132191D01*
X148825000Y-86283078D01*
X148825000Y-86425408D01*
X146816408Y-88434001D01*
X138838627Y-88434001D01*
X138808322Y-88377305D01*
X138760711Y-88319290D01*
X138743300Y-88305001D01*
X138760711Y-88290712D01*
X138808322Y-88232697D01*
X138838627Y-88176001D01*
X145731153Y-88176001D01*
X145755999Y-88178448D01*
X145780845Y-88176001D01*
X145780853Y-88176001D01*
X145855192Y-88168679D01*
X145950574Y-88139746D01*
X146038478Y-88092760D01*
X146115526Y-88029528D01*
X146131375Y-88010216D01*
X147000592Y-87141000D01*
X147142922Y-87141000D01*
X147293809Y-87110987D01*
X147435942Y-87052113D01*
X147563859Y-86966642D01*
X147672642Y-86857859D01*
X147758113Y-86729942D01*
X147816987Y-86587809D01*
X147847000Y-86436922D01*
X147847000Y-86283078D01*
X147816987Y-86132191D01*
X147758113Y-85990058D01*
X147672642Y-85862141D01*
X147563859Y-85753358D01*
X147435942Y-85667887D01*
X147293809Y-85609013D01*
X147228388Y-85596000D01*
X149443612Y-85596000D01*
X149378191Y-85609013D01*
G37*
X149378191Y-85609013D02*
X149236058Y-85667887D01*
X149108141Y-85753358D01*
X148999358Y-85862141D01*
X148913887Y-85990058D01*
X148855013Y-86132191D01*
X148825000Y-86283078D01*
X148825000Y-86425408D01*
X146816408Y-88434001D01*
X138838627Y-88434001D01*
X138808322Y-88377305D01*
X138760711Y-88319290D01*
X138743300Y-88305001D01*
X138760711Y-88290712D01*
X138808322Y-88232697D01*
X138838627Y-88176001D01*
X145731153Y-88176001D01*
X145755999Y-88178448D01*
X145780845Y-88176001D01*
X145780853Y-88176001D01*
X145855192Y-88168679D01*
X145950574Y-88139746D01*
X146038478Y-88092760D01*
X146115526Y-88029528D01*
X146131375Y-88010216D01*
X147000592Y-87141000D01*
X147142922Y-87141000D01*
X147293809Y-87110987D01*
X147435942Y-87052113D01*
X147563859Y-86966642D01*
X147672642Y-86857859D01*
X147758113Y-86729942D01*
X147816987Y-86587809D01*
X147847000Y-86436922D01*
X147847000Y-86283078D01*
X147816987Y-86132191D01*
X147758113Y-85990058D01*
X147672642Y-85862141D01*
X147563859Y-85753358D01*
X147435942Y-85667887D01*
X147293809Y-85609013D01*
X147228388Y-85596000D01*
X149443612Y-85596000D01*
X149378191Y-85609013D01*
G36*
X146838191Y-85609013D02*
G01*
X146696058Y-85667887D01*
X146568141Y-85753358D01*
X146459358Y-85862141D01*
X146373887Y-85990058D01*
X146315013Y-86132191D01*
X146285000Y-86283078D01*
X146285000Y-86425408D01*
X145546408Y-87164001D01*
X138838627Y-87164001D01*
X138808322Y-87107305D01*
X138760711Y-87049290D01*
X138743300Y-87035001D01*
X138760711Y-87020712D01*
X138808322Y-86962697D01*
X138838627Y-86906001D01*
X143967500Y-86906001D01*
X144028141Y-86966642D01*
X144156058Y-87052113D01*
X144298191Y-87110987D01*
X144449078Y-87141000D01*
X144602922Y-87141000D01*
X144753809Y-87110987D01*
X144895942Y-87052113D01*
X145023859Y-86966642D01*
X145132642Y-86857859D01*
X145218113Y-86729942D01*
X145276987Y-86587809D01*
X145307000Y-86436922D01*
X145307000Y-86283078D01*
X145276987Y-86132191D01*
X145218113Y-85990058D01*
X145132642Y-85862141D01*
X145023859Y-85753358D01*
X144895942Y-85667887D01*
X144753809Y-85609013D01*
X144688388Y-85596000D01*
X146903612Y-85596000D01*
X146838191Y-85609013D01*
G37*
X146838191Y-85609013D02*
X146696058Y-85667887D01*
X146568141Y-85753358D01*
X146459358Y-85862141D01*
X146373887Y-85990058D01*
X146315013Y-86132191D01*
X146285000Y-86283078D01*
X146285000Y-86425408D01*
X145546408Y-87164001D01*
X138838627Y-87164001D01*
X138808322Y-87107305D01*
X138760711Y-87049290D01*
X138743300Y-87035001D01*
X138760711Y-87020712D01*
X138808322Y-86962697D01*
X138838627Y-86906001D01*
X143967500Y-86906001D01*
X144028141Y-86966642D01*
X144156058Y-87052113D01*
X144298191Y-87110987D01*
X144449078Y-87141000D01*
X144602922Y-87141000D01*
X144753809Y-87110987D01*
X144895942Y-87052113D01*
X145023859Y-86966642D01*
X145132642Y-86857859D01*
X145218113Y-86729942D01*
X145276987Y-86587809D01*
X145307000Y-86436922D01*
X145307000Y-86283078D01*
X145276987Y-86132191D01*
X145218113Y-85990058D01*
X145132642Y-85862141D01*
X145023859Y-85753358D01*
X144895942Y-85667887D01*
X144753809Y-85609013D01*
X144688388Y-85596000D01*
X146903612Y-85596000D01*
X146838191Y-85609013D01*
G36*
X144298191Y-85609013D02*
G01*
X144156058Y-85667887D01*
X144028141Y-85753358D01*
X143919358Y-85862141D01*
X143898070Y-85894001D01*
X138838627Y-85894001D01*
X138808322Y-85837305D01*
X138760711Y-85779290D01*
X138743300Y-85765001D01*
X138760711Y-85750712D01*
X138808322Y-85692697D01*
X138838627Y-85636001D01*
X139903500Y-85636001D01*
X139964141Y-85696642D01*
X140092058Y-85782113D01*
X140234191Y-85840987D01*
X140385078Y-85871000D01*
X140538922Y-85871000D01*
X140689809Y-85840987D01*
X140831942Y-85782113D01*
X140959859Y-85696642D01*
X141060501Y-85596000D01*
X144363612Y-85596000D01*
X144298191Y-85609013D01*
G37*
X144298191Y-85609013D02*
X144156058Y-85667887D01*
X144028141Y-85753358D01*
X143919358Y-85862141D01*
X143898070Y-85894001D01*
X138838627Y-85894001D01*
X138808322Y-85837305D01*
X138760711Y-85779290D01*
X138743300Y-85765001D01*
X138760711Y-85750712D01*
X138808322Y-85692697D01*
X138838627Y-85636001D01*
X139903500Y-85636001D01*
X139964141Y-85696642D01*
X140092058Y-85782113D01*
X140234191Y-85840987D01*
X140385078Y-85871000D01*
X140538922Y-85871000D01*
X140689809Y-85840987D01*
X140831942Y-85782113D01*
X140959859Y-85696642D01*
X141060501Y-85596000D01*
X144363612Y-85596000D01*
X144298191Y-85609013D01*
M02*
