%TF.GenerationSoftware,KiCad,Pcbnew,(5.1.6)-1*%
%TF.CreationDate,2020-11-21T19:48:35+02:00*%
%TF.ProjectId,zigbee-raspberry-module,7a696762-6565-42d7-9261-737062657272,rev?*%
%TF.SameCoordinates,Original*%
%TF.FileFunction,Soldermask,Top*%
%TF.FilePolarity,Negative*%
%FSLAX46Y46*%
G04 Gerber Fmt 4.6, Leading zero omitted, Abs format (unit mm)*
G04 Created by KiCad (PCBNEW (5.1.6)-1) date 2020-11-21 19:48:35*
%MOMM*%
%LPD*%
G01*
G04 APERTURE LIST*
%ADD10O,1.800000X1.800000*%
%ADD11R,1.800000X1.800000*%
%ADD12R,1.000000X1.800000*%
%ADD13R,2.700000X0.800000*%
%ADD14R,0.800000X2.700000*%
G04 APERTURE END LIST*
%TO.C,C1*%
G36*
G01*
X144110000Y-103199482D02*
X144110000Y-102286518D01*
G75*
G02*
X144378518Y-102018000I268518J0D01*
G01*
X145341482Y-102018000D01*
G75*
G02*
X145610000Y-102286518I0J-268518D01*
G01*
X145610000Y-103199482D01*
G75*
G02*
X145341482Y-103468000I-268518J0D01*
G01*
X144378518Y-103468000D01*
G75*
G02*
X144110000Y-103199482I0J268518D01*
G01*
G37*
G36*
G01*
X141410000Y-103199482D02*
X141410000Y-102286518D01*
G75*
G02*
X141678518Y-102018000I268518J0D01*
G01*
X142641482Y-102018000D01*
G75*
G02*
X142910000Y-102286518I0J-268518D01*
G01*
X142910000Y-103199482D01*
G75*
G02*
X142641482Y-103468000I-268518J0D01*
G01*
X141678518Y-103468000D01*
G75*
G02*
X141410000Y-103199482I0J268518D01*
G01*
G37*
%TD*%
D10*
%TO.C,J1*%
X147574000Y-110490000D03*
X147574000Y-107950000D03*
X150114000Y-110490000D03*
X150114000Y-107950000D03*
X152654000Y-110490000D03*
X152654000Y-107950000D03*
X155194000Y-110490000D03*
X155194000Y-107950000D03*
X157734000Y-110490000D03*
D11*
X157734000Y-107950000D03*
%TD*%
D12*
%TO.C,FLASH*%
X156894000Y-102616000D03*
X153494000Y-102616000D03*
%TD*%
%TO.C,RESET*%
X147652000Y-102616000D03*
X151052000Y-102616000D03*
%TD*%
D13*
%TO.C,U1*%
X137190000Y-96560001D03*
X157690000Y-96560001D03*
D14*
X147440000Y-99100001D03*
D13*
X137190000Y-95290001D03*
X137190000Y-94020001D03*
X137190000Y-92750001D03*
X137190000Y-91480001D03*
X137190000Y-90210001D03*
X137190000Y-88940001D03*
X137190000Y-87670001D03*
X137190000Y-86400001D03*
X137190000Y-85130001D03*
X137190000Y-83860001D03*
X137190000Y-82590001D03*
X157690000Y-95290001D03*
X157690000Y-94020001D03*
X157690000Y-92750001D03*
X157690000Y-91480001D03*
X157690000Y-90210001D03*
X157690000Y-88940001D03*
X157690000Y-87670001D03*
X157690000Y-86400001D03*
X157690000Y-85130001D03*
X157690000Y-83860001D03*
X157690000Y-82590001D03*
D14*
X148710000Y-99100001D03*
X149980000Y-99100001D03*
X151250000Y-99100001D03*
X152520000Y-99100001D03*
X146170000Y-99100001D03*
X144900000Y-99100001D03*
X143630000Y-99100001D03*
X142360000Y-99100001D03*
%TD*%
%TO.C,R1*%
G36*
G01*
X139084000Y-103224250D02*
X139084000Y-102261750D01*
G75*
G02*
X139352750Y-101993000I268750J0D01*
G01*
X139890250Y-101993000D01*
G75*
G02*
X140159000Y-102261750I0J-268750D01*
G01*
X140159000Y-103224250D01*
G75*
G02*
X139890250Y-103493000I-268750J0D01*
G01*
X139352750Y-103493000D01*
G75*
G02*
X139084000Y-103224250I0J268750D01*
G01*
G37*
G36*
G01*
X137209000Y-103224250D02*
X137209000Y-102261750D01*
G75*
G02*
X137477750Y-101993000I268750J0D01*
G01*
X138015250Y-101993000D01*
G75*
G02*
X138284000Y-102261750I0J-268750D01*
G01*
X138284000Y-103224250D01*
G75*
G02*
X138015250Y-103493000I-268750J0D01*
G01*
X137477750Y-103493000D01*
G75*
G02*
X137209000Y-103224250I0J268750D01*
G01*
G37*
%TD*%
M02*
