M48
; DRILL file {KiCad (5.1.6)-1} date 11/02/20 21:17:53
; FORMAT={-:-/ absolute / metric / decimal}
; #@! TF.CreationDate,2020-11-02T21:17:53+02:00
; #@! TF.GenerationSoftware,Kicad,Pcbnew,(5.1.6)-1
; #@! TF.FileFunction,Plated,1,2,PTH
FMAT,2
METRIC
T1C0.400
T2C1.000
%
G90
G05
T1
X140.462Y-82.55
X140.462Y-85.09
X144.526Y-86.36
X147.066Y-86.36
X147.32Y-104.648
X149.606Y-86.36
X152.146Y-86.36
X154.686Y-86.36
X154.686Y-96.774
X154.686Y-98.298
X157.988Y-105.918
T2
X147.574Y-107.95
X147.574Y-110.49
X150.114Y-107.95
X150.114Y-110.49
X152.654Y-107.95
X152.654Y-110.49
X155.194Y-107.95
X155.194Y-110.49
X157.734Y-107.95
X157.734Y-110.49
T0
M30
